<svg height="24" viewBox="0 0 24 24" width="24" xmlns="http://www.w3.org/2000/svg"><g fill="none" fill-rule="evenodd"><path d="m0 0h24v24h-24z"/><path d="m12 20c4.418278 0 8-3.581722 8-8s-3.581722-8-8-8-8 3.581722-8 8 3.581722 8 8 8zm0-18c2.6521649 0 5.195704 1.0535684 7.0710678 2.92893219 1.8753638 1.87536378 2.9289322 4.41890291 2.9289322 7.07106781 0 5.5228475-4.4771525 10-10 10-5.53 0-10-4.5-10-10 0-5.5228475 4.4771525-10 10-10zm.5 5v5.25l4.5 2.67-.75 1.23-5.25-3.15v-6z" fill="#f0f8ff" fill-rule="nonzero"/></g></svg>