<svg width="33" height="32" viewBox="0 0 33 32" fill="none" xmlns="http://www.w3.org/2000/svg">
<path d="M16.5003 0C17.9613 1.69611 19.5727 3.27125 21.3151 4.70713C20.1541 8.27672 19.529 12.0692 19.529 16C19.529 19.9308 20.1541 23.7233 21.3151 27.2929C19.5727 28.7287 17.9613 30.3039 16.5003 32C15.0394 30.3039 13.428 28.7287 11.6855 27.2929C12.8466 23.7233 13.4717 19.9308 13.4717 16C13.4717 12.0692 12.8466 8.27672 11.6855 4.70714C13.428 3.27126 15.0394 1.69612 16.5003 0Z" fill="#6851FF"/>
<path d="M8.35465 24.8249C6.51021 23.5995 4.55274 22.5165 2.5 21.5928C3.06942 19.8237 3.37574 17.9457 3.37574 16C3.37574 14.0542 3.06942 12.1763 2.5 10.4071C4.55273 9.48341 6.5102 8.40045 8.35465 7.17505C9.05993 10.0081 9.43313 12.9627 9.43313 16C9.43313 19.0372 9.05993 21.9918 8.35465 24.8249Z" fill="#6851FF"/>
<path d="M23.5664 16C23.5664 19.0373 23.9396 21.9918 24.6449 24.8249C26.4893 23.5995 28.4468 22.5165 30.4995 21.5929C29.9301 19.8237 29.6238 17.9457 29.6238 16C29.6238 14.0542 29.9301 12.1763 30.4995 10.4071C28.4468 9.48342 26.4893 8.40046 24.6449 7.17505C23.9396 10.0081 23.5664 12.9627 23.5664 16Z" fill="#6851FF"/>
</svg>
