<svg fill="none" height="32" viewBox="0 0 32 32" width="32" xmlns="http://www.w3.org/2000/svg"><g fill="#f0f8ff"><circle cx="16" cy="16" r="16"/><circle cx="16" cy="16" fill-opacity=".64" r="16"/><circle cx="16" cy="16" fill-opacity=".64" r="16"/></g><path clip-rule="evenodd" d="m14.7251 19.2195v-1.2714c0-.356.2924-.6357.6357-.6357h1.2715c.356 0 .6357.2797.6357.6357v1.9071 1.9072c0 .356-.2797.6357-.6357.6357h-1.9072-2.5429-1.9071c-.35601 0-.63572-.2797-.63572-.6357v-1.9072-2.5428-2.5429-1.9071c0-.3561-.27972-.6358-.63572-.6358h-.36871c-.55943 0-.85186-.6865-.445-1.0807l2.27585-2.28856c.2543-.25429.6484-.25429.9027 0l2.2632 2.28856c.4068.3942.1271 1.0807-.445 1.0807h-.3687c-.356 0-.6358.2797-.6358.6358v1.9071 2.5429 1.9071c0 .356.2798.6357.6358.6357h1.2714c.356 0 .6357-.2797.6357-.6357zm7.6285-.0001c0 .356.2797.6358.6357.6358h.3814c.5594 0 .8391.6865.445 1.0807l-2.2758 2.2758c-.2543.2543-.6485.2543-.9028 0l-2.2758-2.2758c-.4069-.3942-.1272-1.0807.445-1.0807h.3687c.356 0 .6357-.2798.6357-.6358v-1.9071-2.5429-1.9071c0-.356-.2797-.6358-.6357-.6358h-1.2714c-.3561 0-.6358.2798-.6358.6358v1.2714c0 .356-.2797.6357-.6357.6357h-1.2714c-.356 0-.6357-.2797-.6357-.6357v-1.9072-1.9071c0-.35601.2797-.63572.6357-.63572h1.9071 2.5429 1.9071c.3561 0 .6358.27971.6358.63572v1.9071 2.5429 2.5429z" fill="#615ccd" fill-rule="evenodd"/></svg>