<svg width="24" height="24" viewBox="0 0 24 24" fill="none" xmlns="http://www.w3.org/2000/svg">
<path d="M0 4C0 1.79086 1.79086 0 4 0H20C22.2091 0 24 1.79086 24 4V20C24 22.2091 22.2091 24 20 24H4C1.79086 24 0 22.2091 0 20V4Z" fill="#F0F8FF" fill-opacity="0.04"/>
<path fill-rule="evenodd" clip-rule="evenodd" d="M17.0078 7.34071L10.1676 14.1899L7.98054 12C7.52685 11.5457 6.79396 11.5457 6.34027 12C5.88658 12.4543 5.88658 13.1881 6.34027 13.6424L9.35324 16.6593C9.80693 17.1136 10.5398 17.1136 10.9935 16.6593L18.6597 8.98311C19.1134 8.52883 19.1134 7.79499 18.6597 7.34071C18.206 6.88643 17.4615 6.88643 17.0078 7.34071Z" fill="#F0F8FF" fill-opacity="0.64"/>
<path d="M4 1H20V-1H4V1ZM23 4V20H25V4H23ZM20 23H4V25H20V23ZM1 20V4H-1V20H1ZM4 23C2.34315 23 1 21.6569 1 20H-1C-1 22.7614 1.23858 25 4 25V23ZM23 20C23 21.6569 21.6569 23 20 23V25C22.7614 25 25 22.7614 25 20H23ZM20 1C21.6569 1 23 2.34315 23 4H25C25 1.23858 22.7614 -1 20 -1V1ZM4 -1C1.23858 -1 -1 1.23858 -1 4H1C1 2.34315 2.34315 1 4 1V-1Z" fill="#F0F8FF" fill-opacity="0.04"/>
</svg>
