<svg height="32" viewBox="0 0 32 32" width="32" xmlns="http://www.w3.org/2000/svg" xmlns:xlink="http://www.w3.org/1999/xlink"><linearGradient id="a" x1="61.032708%" x2="26.452567%" y1="4.946991%" y2="71.932897%"><stop offset="0" stop-color="#00a0ff"/><stop offset=".006569999" stop-color="#00a1ff"/><stop offset=".2601" stop-color="#00beff"/><stop offset=".5122" stop-color="#00d2ff"/><stop offset=".7604" stop-color="#00dfff"/><stop offset="1" stop-color="#00e3ff"/></linearGradient><linearGradient id="b" x1="107.594689%" x2="-130.515938%" y1="50.00704%" y2="50.00704%"><stop offset="0" stop-color="#ffe000"/><stop offset=".4087" stop-color="#ffbd00"/><stop offset=".7754" stop-color="#ffa500"/><stop offset="1" stop-color="#ff9c00"/></linearGradient><linearGradient id="c" x1="86.244289%" x2="-50.123082%" y1="30.900103%" y2="136.018274%"><stop offset="0" stop-color="#ff3a44"/><stop offset="1" stop-color="#c31162"/></linearGradient><linearGradient id="d" x1="-18.805348%" x2="42.087435%" y1="-11.82179%" y2="35.090042%"><stop offset="0" stop-color="#32a071"/><stop offset=".0685" stop-color="#2da771"/><stop offset=".4762" stop-color="#15cf74"/><stop offset=".8009" stop-color="#06e775"/><stop offset="1" stop-color="#00f076"/></linearGradient><g fill="none" fill-rule="evenodd"><path d="m0 0h32v32h-32z"/><g transform="translate(2)"><path d="m.56638656.4907563c-.35966387.38655462-.56638656.98151261-.56638656 1.75462185v27.49915965c0 .7731093.20672269 1.3680672.57983193 1.7411765l.09747899.0823529 15.40840338-15.4084033v-.3462185l-15.42184875-15.40504204s-.09747899.08235294-.09747899.08235294z" fill="url(#a)"/><path d="m21.2117647 21.3159664-5.1394958-5.1411765v-.3596638l5.1411765-5.1411765.1109243.0689075 6.0806723 3.4554622c1.7411765.9815126 1.7411765 2.5983194 0 3.5932773l-6.0806723 3.4554622c-.0016806 0-.112605.0689076-.112605.0689076z" fill="url(#b)"/><path d="m21.3226891 21.2470588-5.2504202-5.2521008-15.50588234 15.5058823c.56638655.6084034 1.51932773.677311 2.58487394.082353z" fill="url(#c)"/><path d="m21.3226891 10.7445378-18.1714286-10.32268906c-1.06386554-.60840336-2.01848739-.52605042-2.58487394.08235294l15.50420164 15.49075632z" fill="url(#d)"/><path d="m21.2117647 21.1361345-18.04705882 10.2537815c-1.00840336.5798319-1.90756302.5394958-2.48739496.0134453l-.09747899.097479.09747899.082353c.57983194.5243697 1.4789916.5663865 2.48739496-.0134454l18.17142862-10.3226891s-.1243698-.1109243-.1243698-.1109243z" fill="#000" fill-rule="nonzero" opacity=".2"/><path d="m27.4033613 17.6117647-6.205042 3.5243698.1109244.1109243 6.0806723-3.4554622c.8705882-.497479 1.2991596-1.1462184 1.2991596-1.7966386-.0554622.594958-.497479 1.1613445-1.2857143 1.6168067z" fill="#000" fill-rule="nonzero" opacity=".12"/><path d="m3.1512605.60168067 24.2521008 13.77815123c.7882353.4420168 1.2302521 1.0218488 1.2991597 1.6168068 0-.6487395-.4285714-1.2991597-1.2991597-1.7966387l-24.2521008-13.77815126c-1.74117647-.99495798-3.1512605-.16638655-3.1512605 1.82352941v.17983193c0-1.98991596 1.41008403-2.80504201 3.1512605-1.82352941z" fill="#fff" opacity=".25"/></g></g></svg>