<svg height="24" viewBox="0 0 24 24" width="24" xmlns="http://www.w3.org/2000/svg"><path d="m12 2c2.6521649 0 5.195704 1.0535684 7.0710678 2.92893219 1.8753638 1.87536378 2.9289322 4.41890291 2.9289322 7.07106781s-1.0535684 5.195704-2.9289322 7.0710678-4.4189029 2.9289322-7.0710678 2.9289322-5.19570403-1.0535684-7.07106781-2.9289322c-1.87536379-1.8753638-2.92893219-4.4189029-2.92893219-7.0710678 0-5.5228475 4.4771525-10 10-10zm0 2c-4.418278 0-8 3.581722-8 8s3.581722 8 8 8 8-3.581722 8-8c0-2.12173192-.8428547-4.15656322-2.3431458-5.65685425-1.500291-1.50029103-3.5351223-2.34314575-5.6568542-2.34314575zm0 2.91888168c.5515433 0 .9970206.44547727.9970206.99702056v3.08707716l3.0800061.0070711c.5515433 0 .9970206.4454773.9970206.9970206 0 .5374011-.4525484.9899495-.9899495.9899495h-3.0870772v3.0870772c0 .5515432-.4454773.9970205-.9970206.9970205s-.9970206-.4454773-.9970206-.9970205v-3.0870772h-3.08707716c-.55154329 0-.99702056-.4454773-.99702056-.9970206s.44547727-.9970206.99702056-.9970206h3.08707716v-3.08707716c0-.55154329.4454773-.99702056.9970206-.99702056z" fill="#f0f8ff" fill-rule="evenodd"/></svg>