<svg height="24" viewBox="0 0 24 24" width="24" xmlns="http://www.w3.org/2000/svg" xmlns:xlink="http://www.w3.org/1999/xlink"><linearGradient id="a" x1="9.5%" x2="90.5%" y1="0%" y2="100%"><stop offset="0" stop-color="#9345fc"/><stop offset=".432477679" stop-color="#7361d8"/><stop offset=".679020957" stop-color="#408f9c"/><stop offset="1" stop-color="#29a482"/></linearGradient><g fill="none" fill-rule="evenodd"><path d="m0 0h24v24h-24z"/><path d="m20.3817353 14.250754c.3869414.8313736.6182647 1.6085925.6182647 2.2786249 0 4.1187335-4.038083 7.4706211-9 7.4706211-4.96194735 0-9-3.3518876-9-7.4706211 0-.6700319.23132208-1.4472502.61826172-2.2786231 1.31360865 2.7773538 4.5759133 4.7492442 8.38173828 4.7492442 3.8058025 0 7.0681202-1.9718912 8.3817353-4.749246zm-8.3817353-10.250754 1.5625 3.4375 3.4375 1.5625-3.4375 1.5625-1.5625 3.4375-1.5625-3.4375-3.4375-1.5625 3.4375-1.5625z" fill="url(#a)"/></g></svg>