<svg height="24" viewBox="0 0 24 24" width="24" xmlns="http://www.w3.org/2000/svg" xmlns:xlink="http://www.w3.org/1999/xlink"><linearGradient id="a" x1="50%" x2="50%" y1="0%" y2="100%"><stop offset="0" stop-color="#f0f8ff"/><stop offset="1" stop-color="#60656c"/></linearGradient><path d="m12 1.2c5.9646753 0 10.8 4.8353247 10.8 10.8 0 2.8643381-1.1378539 5.6113603-3.1632468 7.6367532s-4.7724151 3.1632468-7.6367532 3.1632468c-5.9646753 0-10.8-4.8353247-10.8-10.8s4.8353247-10.8 10.8-10.8zm0 2c-4.8601058 0-8.8 3.9398942-8.8 8.8s3.9398942 8.8 8.8 8.8c2.3339051 0 4.5722195-.9271402 6.2225397-2.5774603 1.6503201-1.6503202 2.5774603-3.8886346 2.5774603-6.2225397 0-4.8601058-3.9398942-8.8-8.8-8.8z" fill="url(#a)"/></svg>