<svg width="20" height="18" viewBox="0 0 20 18" fill="none" xmlns="http://www.w3.org/2000/svg">
<path fill-rule="evenodd" clip-rule="evenodd" d="M3.00076 9.50005C3.00076 9.22391 2.7769 9.00005 2.50076 9.00005H1.30374C0.845497 9.00005 0.628649 8.43495 0.969258 8.1284L9.66628 0.301083C9.85643 0.129945 10.1451 0.129945 10.3352 0.301082L19.0323 8.1284C19.3729 8.43495 19.156 9.00005 18.6978 9.00005H17.5008C17.2246 9.00005 17.0008 9.22391 17.0008 9.50005V17.5C17.0008 17.7762 16.7769 18 16.5008 18H3.50076C3.22462 18 3.00076 17.7762 3.00076 17.5V9.50005ZM12.7997 16.7311C12.7924 16.7388 12.7863 16.7475 12.7815 16.757C12.7459 16.8279 12.7967 16.9116 12.876 16.9127L14.987 16.943C14.9897 16.9431 14.9924 16.9427 14.995 16.942C15.0094 16.9381 15.0184 16.9237 15.0156 16.909L15.0151 16.9064L14.9677 16.7357C14.9611 16.712 14.9586 16.6873 14.9602 16.6628C14.962 16.636 14.9687 16.6098 14.9799 16.5854L15.0446 16.4455C15.0568 16.4192 15.0735 16.3952 15.094 16.3747L15.1115 16.3572C15.1183 16.3504 15.1262 16.3446 15.1349 16.3403L15.1607 16.3272C15.1876 16.3136 15.1999 16.2819 15.1893 16.2537L15.1684 16.19C15.1578 16.1577 15.1505 16.1243 15.1467 16.0904L15.1063 15.7345L15.0722 15.3218L15.0575 15.1409C15.0535 15.0909 15.057 15.0406 15.0679 14.9917L15.1573 14.5911L15.1965 14.46L15.232 14.3182L15.2584 14.1249L15.2614 14.0883C15.2622 14.0779 15.2642 14.0676 15.2674 14.0577C15.2717 14.0441 15.2738 14.03 15.2738 14.0158V13.7664C15.2738 13.7501 15.2726 13.7338 15.2701 13.7177C15.2674 13.7003 15.2662 13.6826 15.2664 13.665L15.2738 13.0846V13.0741C15.2738 13.0367 15.2696 12.9995 15.2614 12.9631L15.2022 12.7034L15.167 12.5311L15.1254 11.9L15.06 11.3804L15.0182 11.1425C15.0089 11.0899 14.9913 11.0391 14.9659 10.9921L14.832 10.7435L14.7371 10.613C14.6798 10.5342 14.6006 10.4738 14.5094 10.4394L14.2836 10.3541L13.7185 10.1066L13.6404 10.0825L13.0842 9.9839L13.017 9.98022L12.5974 10.0068L12.5169 10.0224L11.2194 10.324L11.1155 10.3383L10.5893 10.362L10.4186 10.3695C10.3972 10.3704 10.3759 10.3697 10.3546 10.3673C10.3347 10.365 10.3149 10.3613 10.2955 10.3561L10.0124 10.2803L9.90383 10.2406L9.57142 10.0981L9.26984 9.98495C9.24262 9.97474 9.21457 9.96692 9.186 9.96158L9.07331 9.94053L8.94931 9.92197L8.62432 9.84678C8.56691 9.8335 8.5123 9.81018 8.46301 9.77789L8.25549 9.64192L8.18498 9.60024L7.93987 9.4601C7.92201 9.44989 7.9053 9.43779 7.89002 9.42401C7.8682 9.40434 7.8435 9.38812 7.81677 9.37593L7.59843 9.27634L7.36977 9.18236L7.15199 9.09344L6.46001 8.8263L6.05153 8.62559L5.87718 8.54L5.80891 8.51428C5.74928 8.49182 5.69449 8.45817 5.64749 8.41513L5.31369 8.10948C5.28808 8.08603 5.25043 8.08142 5.21992 8.09799C5.19024 8.11411 5.17361 8.1469 5.17814 8.18038L5.20769 8.39872C5.22005 8.4901 5.20053 8.58295 5.15241 8.66161L4.91681 9.04672C4.90328 9.06884 4.89149 9.09197 4.88154 9.11592L4.84386 9.20669C4.82627 9.24905 4.81737 9.29451 4.8177 9.34038L4.81793 9.37324C4.81805 9.39055 4.81521 9.40774 4.80953 9.42409C4.80414 9.43961 4.79626 9.45414 4.78621 9.46714L4.57868 9.73531L4.49104 9.82383L4.45932 9.86543C4.44215 9.88793 4.42693 9.91185 4.41382 9.93694L4.22995 10.2886L4.21655 10.324L4.18788 10.4304C4.17642 10.4728 4.17063 10.5167 4.17064 10.5607L4.17072 10.7749L4.17855 10.9171C4.1789 10.9236 4.17972 10.93 4.18099 10.9363C4.18399 10.9514 4.18951 10.9658 4.19731 10.979L4.25752 11.0809C4.26399 11.0919 4.2734 11.1008 4.28468 11.1067C4.2927 11.1109 4.29981 11.1167 4.30559 11.1236L4.34918 11.1762C4.41792 11.259 4.51998 11.3069 4.62763 11.3069H4.7302C4.77041 11.3069 4.80863 11.2894 4.83487 11.2589C4.84707 11.2448 4.86203 11.2332 4.87883 11.225L5.3166 11.0108C5.35354 10.9927 5.39257 10.9793 5.43281 10.9708L5.76724 10.9C5.85585 10.8813 5.94788 10.8869 6.03352 10.9164L6.11139 10.9432C6.15236 10.9573 6.19133 10.9767 6.22731 11.0008L6.36087 11.0905L6.38191 11.109C6.40611 11.1302 6.43229 11.1491 6.46011 11.1653L6.59058 11.2413C6.65501 11.2788 6.71022 11.3303 6.75218 11.3919L6.8939 11.6L7.04275 11.7947C7.09057 11.8572 7.12295 11.9302 7.13725 12.0076L7.20897 12.3959L7.22035 12.5283L7.21975 12.6837C7.21968 12.7007 7.22176 12.7177 7.22592 12.7342C7.23378 12.7655 7.24893 12.7944 7.27013 12.8187L7.39143 12.9575L7.40337 12.9695C7.4327 12.999 7.46559 13.0247 7.50127 13.046L7.76246 13.2021C7.78112 13.2132 7.79777 13.2275 7.81167 13.2442C7.82851 13.2644 7.84101 13.2879 7.84839 13.3132L8.11763 14.2355L8.12498 14.2774L8.14725 14.5145L8.1828 14.889L8.20567 15.1164L8.26691 15.5213L8.27699 15.6106L8.27808 16.0315C8.27815 16.0618 8.27548 16.092 8.27009 16.1218L8.26812 16.1327L8.20724 16.3835C8.20414 16.3962 8.20696 16.4097 8.2149 16.4201C8.22559 16.4342 8.22675 16.4533 8.21784 16.4685L8.21242 16.4778L8.15849 16.5651C8.14256 16.5909 8.12433 16.6152 8.10401 16.6377L8.04551 16.7024C8.01875 16.7293 7.99547 16.7593 7.9762 16.792L7.91368 16.8978C7.91313 16.8987 7.91268 16.8997 7.91234 16.9008C7.90901 16.9109 7.91696 16.9212 7.92763 16.9206L8.06787 16.912L9.52408 16.8884L9.69664 16.8821C9.70849 16.8817 9.72028 16.8801 9.73184 16.8775L9.8437 16.8522C9.87765 16.8445 9.9 16.812 9.89503 16.7776C9.89366 16.7681 9.89026 16.759 9.88506 16.7509L9.81809 16.6471C9.80768 16.6309 9.80091 16.6127 9.79825 16.5937C9.79554 16.5743 9.79714 16.5546 9.80295 16.536L9.86143 16.348C9.86656 16.3316 9.8744 16.3161 9.88464 16.3022L9.89229 16.2918C9.897 16.2854 9.90269 16.2798 9.90916 16.2752C9.93113 16.2597 9.94297 16.2334 9.94014 16.2066L9.82536 15.1201L9.82467 15.1101C9.82192 15.0701 9.82399 15.0299 9.83084 14.9903L9.85726 14.8379C9.86151 14.8134 9.8638 14.7887 9.86413 14.7638C9.86467 14.7227 9.85982 14.6817 9.84969 14.6419L9.67686 13.9618C9.67073 13.9377 9.6868 13.9136 9.71141 13.9099C9.71344 13.9096 9.71549 13.9095 9.71754 13.9095H10.0121L11.1936 13.7917C11.2239 13.7886 11.2538 13.7829 11.2831 13.7744L11.4919 13.7139L12.1 13.5729L12.4243 13.5231C12.6537 13.4878 12.8728 13.6309 12.9328 13.8551C12.9413 13.8869 12.9533 13.9177 12.9684 13.9469L13.0927 14.1865C13.1041 14.2084 13.1138 14.2312 13.1218 14.2545L13.1708 14.3972C13.1887 14.4494 13.1978 14.5042 13.1978 14.5594V15.1164L13.1618 15.949C13.1603 15.9832 13.1553 16.0171 13.1469 16.0503L13.0883 16.2812C13.0753 16.3328 13.054 16.3819 13.0255 16.4268L12.9254 16.5841C12.9096 16.6088 12.8917 16.6321 12.8719 16.6537L12.8312 16.6981L12.7997 16.7311Z" fill="#F0F8FF" fill-opacity="0.64"/>
</svg>
