<svg width="15" height="12" viewBox="0 0 15 12" fill="none" xmlns="http://www.w3.org/2000/svg">
<path fill-rule="evenodd" clip-rule="evenodd" d="M14.2797 2.00008C13.7663 2.23341 13.213 2.38675 12.6397 2.46008C13.2263 2.10675 13.6797 1.54675 13.893 0.873415C13.3397 1.20675 12.7263 1.44008 12.0797 1.57341C11.553 1.00008 10.813 0.666748 9.97301 0.666748C8.40634 0.666748 7.12634 1.94675 7.12634 3.52675C7.12634 3.75341 7.15301 3.97341 7.19967 4.18008C4.82634 4.06008 2.71301 2.92008 1.30634 1.19341C1.05967 1.61341 0.919675 2.10675 0.919675 2.62675C0.919675 3.62008 1.41967 4.50008 2.19301 5.00008C1.71967 5.00008 1.27967 4.86675 0.893008 4.66675C0.893008 4.66675 0.893008 4.66675 0.893008 4.68675C0.893008 6.07341 1.87967 7.23341 3.18634 7.49341C2.94634 7.56008 2.69301 7.59341 2.43301 7.59341C2.25301 7.59341 2.07301 7.57341 1.89967 7.54008C2.25967 8.66675 3.30634 9.50675 4.56634 9.52675C3.59301 10.3001 2.35967 10.7534 1.01301 10.7534C0.786341 10.7534 0.559674 10.7401 0.333008 10.7134C1.59967 11.5267 3.10634 12.0001 4.71967 12.0001C9.97301 12.0001 12.8597 7.64008 12.8597 3.86008C12.8597 3.73341 12.8597 3.61341 12.853 3.48675C13.413 3.08675 13.893 2.58008 14.2797 2.00008Z" fill="#F0F8FF" fill-opacity="0.32"/>
</svg>
