<svg width="20" height="20" viewBox="0 0 20 20" fill="none" xmlns="http://www.w3.org/2000/svg">
<path fill-rule="evenodd" clip-rule="evenodd" d="M19.1667 10.0002C19.1667 6.31826 16.1819 3.3335 12.5 3.3335C8.81814 3.3335 5.83337 6.31826 5.83337 10.0002C5.83337 13.6821 8.81814 16.6668 12.5 16.6668C16.1819 16.6668 19.1667 13.6821 19.1667 10.0002ZM17.5 10.0002C17.5 12.7616 15.2615 15.0002 12.5 15.0002C9.73862 15.0002 7.50004 12.7616 7.50004 10.0002C7.50004 7.23874 9.73862 5.00016 12.5 5.00016C15.2615 5.00016 17.5 7.23874 17.5 10.0002ZM2.50004 10.0002C2.50004 12.1752 3.89171 14.0252 5.83337 14.7085V16.4502C2.95837 15.7085 0.833374 13.1085 0.833374 10.0002C0.833374 6.89183 2.95837 4.29183 5.83337 3.55016V5.29183C3.89171 5.97516 2.50004 7.82516 2.50004 10.0002ZM13.2001 7.44869V9.7428H14.3007C14.9206 9.7428 15.2341 10.5872 14.7952 11.0798L12.9911 13.1048C12.7195 13.4097 12.2806 13.4097 12.009 13.1048L10.2048 11.0798C9.766 10.5872 10.0795 9.7428 10.6994 9.7428H11.807V7.44869C11.807 7.01867 12.1204 6.66683 12.5035 6.66683C12.8866 6.66683 13.2001 7.01867 13.2001 7.44869Z" fill="#F0F8FF"/>
</svg>
