<svg width="16" height="16" viewBox="0 0 16 16" fill="none" xmlns="http://www.w3.org/2000/svg">
<path d="M14.5713 14.2859C14.9309 14.2859 15.2425 14.1671 15.5075 13.9326L10.9744 9.39941C10.8657 9.47729 10.7602 9.55302 10.6607 9.62504C10.3214 9.87497 10.0461 10.07 9.83468 10.2098C9.62329 10.3498 9.34204 10.4926 8.99095 10.6384C8.63963 10.7843 8.31234 10.8571 8.00872 10.8571H7.99983H7.99094C7.68729 10.8571 7.36 10.7843 7.00871 10.6384C6.65742 10.4926 6.37617 10.3498 6.16498 10.2098C5.95359 10.07 5.67841 9.875 5.339 9.62504C5.24442 9.5557 5.13953 9.47962 5.02612 9.39819L0.492188 13.9326C0.757085 14.1671 1.06893 14.2859 1.42855 14.2859H14.5713Z" fill="#F0F8FF" fill-opacity="0.32"/>
<path d="M0.901882 6.54471C0.562678 6.31856 0.261876 6.05956 0 5.76782V12.6648L3.99542 8.66934C3.19611 8.11132 2.16624 7.40392 0.901882 6.54471Z" fill="#F0F8FF" fill-opacity="0.32"/>
<path d="M15.1068 6.54471C13.8907 7.36784 12.8571 8.07646 12.0059 8.67094L15.9996 12.6649V5.76782C15.7436 6.05369 15.446 6.31252 15.1068 6.54471Z" fill="#F0F8FF" fill-opacity="0.32"/>
<path d="M14.5712 1.71436H1.42848C0.969974 1.71436 0.617465 1.86919 0.370519 2.17853C0.123371 2.48802 0 2.87506 0 3.33924C0 3.71417 0.16372 4.12042 0.491014 4.5581C0.818309 4.99561 1.16658 5.33925 1.53564 5.58922C1.73797 5.73217 2.34811 6.15634 3.36608 6.86159C3.9156 7.24239 4.39348 7.57431 4.80415 7.86073C5.15418 8.10462 5.45606 8.31584 5.7053 8.49112C5.73392 8.51119 5.77891 8.54338 5.83864 8.58608C5.90298 8.6323 5.9844 8.69095 6.08486 8.76348C6.27829 8.90338 6.43899 9.01647 6.56698 9.10286C6.6948 9.18928 6.84966 9.28581 7.03133 9.393C7.21286 9.50005 7.38407 9.58054 7.54477 9.63408C7.7055 9.68759 7.85429 9.71443 7.99116 9.71443H8.00005H8.00894C8.14579 9.71443 8.29461 9.68759 8.45537 9.63408C8.61604 9.58054 8.7871 9.50022 8.96878 9.393C9.15028 9.28581 9.30493 9.18908 9.43315 9.10286C9.56114 9.01647 9.72184 8.90341 9.91531 8.76348C10.0156 8.69095 10.097 8.63227 10.1613 8.58623C10.2211 8.54335 10.266 8.51137 10.2948 8.49112C10.489 8.35601 10.7916 8.14567 11.1984 7.8632C11.9386 7.34889 13.0287 6.5919 14.4734 5.58922C14.9079 5.28575 15.2709 4.91953 15.5626 4.49108C15.8538 4.06264 15.9998 3.61323 15.9998 3.14298C15.9998 2.75009 15.8583 2.41391 15.5758 2.13391C15.293 1.85426 14.9581 1.71436 14.5712 1.71436Z" fill="#F0F8FF" fill-opacity="0.32"/>
</svg>
