<svg height="24" viewBox="0 0 24 24" width="24" xmlns="http://www.w3.org/2000/svg"><g fill="none" fill-rule="evenodd"><path d="m0 0h24v24h-24z"/><path d="m22.02 5h-2.02v-2.02c0-.54-.44-.98-.98-.98h-.03c-.55 0-.99.44-.99.98v2.02h-2.01c-.54 0-.98.44-.99.98v.03c0 .55.44.99.99.99h2.01v2.01c0 .54.44.99.99.98h.03c.54 0 .98-.44.98-.98v-2.01h2.02c.54 0 .98-.44.98-.98v-.04c0-.54-.44-.98-.98-.98zm-5.02 4.01v-1.01h-1.01c-.53 0-1.03-.21-1.41-.58-.37-.38-.58-.88-.58-1.44 0-.36.1-.69.27-.98h-8.27c-1.1 0-2 .9-2 2v12c0 1.1.9 2 2 2h12c1.1 0 2-.9 2-2v-8.28c-.3.17-.64.28-1.02.28-1.09-.01-1.98-.9-1.98-1.99zm-.04 9.99h-9.96c-.41 0-.65-.47-.4-.8l1.98-2.63c.21-.28.62-.26.82.02l1.6 2.41 2.61-3.48c.2-.26.59-.27.79-.01l2.95 3.68c.26.33.03.81-.39.81z" fill="#f0f8ff" fill-rule="nonzero"/></g></svg>