<svg width="24" height="24" viewBox="0 0 24 24" fill="none" xmlns="http://www.w3.org/2000/svg">
<path fill-rule="evenodd" clip-rule="evenodd" d="M18.3 5.71021C17.91 5.32021 17.28 5.32021 16.89 5.71021L12 10.5902L7.11 5.70021C6.72 5.31021 6.09 5.31021 5.7 5.70021C5.31 6.09021 5.31 6.72021 5.7 7.11021L10.59 12.0002L5.7 16.8902C5.31 17.2802 5.31 17.9102 5.7 18.3002C6.09 18.6902 6.72 18.6902 7.11 18.3002L12 13.4102L16.89 18.3002C17.28 18.6902 17.91 18.6902 18.3 18.3002C18.69 17.9102 18.69 17.2802 18.3 16.8902L13.41 12.0002L18.3 7.11021C18.68 6.73021 18.68 6.09021 18.3 5.71021Z" fill="#F0F8FF" fill-opacity="0.32"/>
</svg>
