<svg height="56" viewBox="0 0 56 56" width="56" xmlns="http://www.w3.org/2000/svg"><path d="m13.5227227 14.4611064c0 3.8626087 1.1654913 8.6937697 3.5763312 12.7075801.7149245 1.19021 1.5552951 2.31329 2.5159259 3.3060912-.0772652.57673-.1977158 1.0375138-.33195 1.3294313-.1615487.3511462-.9040292.42042-1.0120866.4604775-1.5084428.5514337-5.5768815.8698112-9.41655992 2.0325199-3.84277561 1.1636887-7.78380882 3.298203-8.82606763 7.9906879-.09510646.4282538.05308233.8731078.38866566 1.1667512 4.19655269 5.417382 14.23899119 12.5453545 27.58648569 12.5453545s23.1535916-7.0428196 27.67223-12.5453545c.2834536-.3451732.3846484-.7384973.289542-1.1667512-1.0422591-4.6924849-5.3309715-6.8269992-9.1729257-7.9906879-3.8403734-1.1631375-7.9099504-1.48176-9.4125756-2.0329487-.2042915-.0757662-.6781275-.1425287-.8465054-.4600487-.1356248-.2559025-.541791-.6838563-.6308802-1.194865 1.0150706-1.0251413 1.8981833-2.1967925 2.6451015-3.4408412 2.4099552-4.0137186 3.5755724-8.8447571 3.5755724-12.7073658 0-7.97338399-6.0653335-14.461137-14.2969268-14.461137-8.2315306 0-14.3033765 6.48703639-14.3033765 14.4611064z" fill="#f0f8ff" fill-rule="evenodd" opacity=".64"/></svg>