<svg height="24" viewBox="0 0 24 24" width="24" xmlns="http://www.w3.org/2000/svg"><g fill="none" fill-rule="evenodd"><path d="m0 0h24v24h-24z"/><path d="m5 11c-.55 0-1-.45-1-1v-4c0-.55.45-1 1-1h3c.55 0 1 .45 1 1v4c0 .55-.45 1-1 1zm0 8c-.55 0-1-.45-1-1v-4c0-.55.45-1 1-1h3c.55 0 1 .45 1 1v4c0 .55-.45 1-1 1zm6 0c-.55 0-1-.45-1-1v-4c0-.55.45-1 1-1h3c.55 0 1 .45 1 1v4c0 .55-.45 1-1 1zm6 0c-.55 0-1-.45-1-1v-4c0-.55.45-1 1-1h3c.55 0 1 .45 1 1v4c0 .55-.45 1-1 1zm-6-8c-.55 0-1-.45-1-1v-4c0-.55.45-1 1-1h3c.55 0 1 .45 1 1v4c0 .55-.45 1-1 1zm5-5c0-.55.45-1 1-1h3c.55 0 1 .45 1 1v4c0 .55-.45 1-1 1h-3c-.55 0-1-.45-1-1z" fill="#f0f8ff" fill-rule="nonzero"/></g></svg>