<svg fill="none" height="24" viewBox="0 0 25 24" width="25" xmlns="http://www.w3.org/2000/svg"><path d="m12.5 2c-5.52285 0-10 4.47715-10 10 0 2.6522 1.05357 5.1957 2.92893 7.0711 1.87537 1.8753 4.41891 2.9289 7.07107 2.9289 2.6522 0 5.1957-1.0536 7.0711-2.9289 1.8753-1.8754 2.9289-4.4189 2.9289-7.0711 0-2.65216-1.0536-5.1957-2.9289-7.07107-1.8754-1.87536-4.4189-2.92893-7.0711-2.92893z" fill="#27b18a"/><path d="m16.3805 8.29006-5.88 5.88004-1.88003-1.88c-.39-.39-1.02-.39-1.41 0s-.39 1.02 0 1.41l2.59 2.59c.39003.39 1.02003.39 1.41003 0l6.59-6.59004c.39-.39.39-1.02 0-1.41s-1.03-.39-1.42 0z" fill="#f0f8ff"/></svg>