<svg width="14" height="14" viewBox="0 0 14 14" fill="none" xmlns="http://www.w3.org/2000/svg">
<path d="M6.72056 0.679161C6.82616 0.440279 7.17384 0.44028 7.27944 0.679162L9.03999 4.66173C9.08403 4.76137 9.18044 4.8296 9.29133 4.83962L13.7234 5.24007C13.9893 5.26409 14.0967 5.58621 13.8961 5.75787L10.5521 8.61968C10.4684 8.69128 10.4316 8.80169 10.4561 8.90752L11.4348 13.1376C11.4935 13.3913 11.2122 13.5904 10.9826 13.4576L7.15534 11.2437C7.05958 11.1883 6.94042 11.1883 6.84466 11.2437L3.01739 13.4576C2.78783 13.5904 2.50655 13.3913 2.56525 13.1376L3.5439 8.90752C3.56838 8.80169 3.53156 8.69128 3.44789 8.61968L0.103859 5.75787C-0.0967221 5.58621 0.0107174 5.26409 0.276564 5.24007L4.70867 4.83962C4.81956 4.8296 4.91597 4.76137 4.96002 4.66173L6.72056 0.679161Z" fill="#F0F8FF" fill-opacity="0.64"/>
</svg>
