<svg width="16" height="16" viewBox="0 0 16 16" fill="none" xmlns="http://www.w3.org/2000/svg">
<path fill-rule="evenodd" clip-rule="evenodd" d="M1.77778 0H14.2222C15.2041 0 16 0.795938 16 1.77778V14.2222C16 15.2041 15.2041 16 14.2222 16H1.77778C0.795938 16 0 15.2041 0 14.2222V1.77778C0 0.795938 0.795938 0 1.77778 0ZM13.3338 1.77783H11.1115C9.39333 1.77783 8.00043 3.17072 8.00043 4.88894V7.11117H6.22266V9.77783H8.00043V16.0001H10.6671V9.77783H13.3338V7.11117H10.6671V5.33339C10.6671 4.84247 11.0651 4.4445 11.556 4.4445H13.3338V1.77783Z" fill="#F0F8FF" fill-opacity="0.32"/>
</svg>
