<svg width="20" height="20" viewBox="0 0 20 20" fill="none" xmlns="http://www.w3.org/2000/svg">
<path fill-rule="evenodd" clip-rule="evenodd" d="M10 0C4.47715 0 0 4.47715 0 10C0 12.6522 1.05357 15.1957 2.92893 17.0711C4.8043 18.9464 7.34784 20 10 20C12.6522 20 15.1957 18.9464 17.0711 17.0711C18.9464 15.1957 20 12.6522 20 10C20 7.34784 18.9464 4.8043 17.0711 2.92893C15.1957 1.05357 12.6522 0 10 0ZM10 18C5.58172 18 2 14.4183 2 10C2 5.58172 5.58172 2 10 2C12.1217 2 14.1566 2.84285 15.6569 4.34315C17.1571 5.84344 18 7.87827 18 10C18 14.4183 14.4183 18 10 18ZM8.0534 9.85155C7.6229 9.13479 7.41477 8.27209 7.41477 7.58233C7.41477 6.15839 8.49903 4.99999 9.96895 5C11.4389 5 12.522 6.15852 12.522 7.58234C12.522 8.27209 12.3138 9.13478 11.8835 9.85151C11.7501 10.0737 11.5924 10.2829 11.4111 10.4659C11.4225 10.5311 11.4627 10.5887 11.4936 10.6329C11.506 10.6506 11.5169 10.6662 11.5238 10.6793C11.5478 10.7245 11.6064 10.7413 11.6477 10.7531C11.6582 10.756 11.6676 10.7587 11.675 10.7615C11.7911 10.8041 11.9932 10.8389 12.2407 10.8816C12.5649 10.9374 12.9669 11.0067 13.3558 11.1245C14.0418 11.3323 14.8077 11.7135 14.9938 12.5514C15.0108 12.6279 14.9927 12.6981 14.9421 12.7598C14.1352 13.7423 12.3841 15.5804 10.0006 15.5804C7.61714 15.5804 5.82385 13.7271 5.07446 12.7598C5.01454 12.7073 4.98807 12.6279 5.00506 12.5514C5.19117 11.7135 5.89493 11.3323 6.58114 11.1245C6.97013 11.0067 7.37227 10.9374 7.69662 10.8816C7.94399 10.839 8.14612 10.8042 8.26267 10.7615C8.26643 10.7602 8.2745 10.7586 8.28526 10.7564C8.32972 10.7477 8.42017 10.7298 8.4434 10.6793C8.46737 10.6272 8.48888 10.5449 8.50268 10.4419C8.33113 10.2646 8.18107 10.0641 8.0534 9.85155Z" fill="#F0F8FF"/>
</svg>
