<svg height="24" viewBox="0 0 24 24" width="24" xmlns="http://www.w3.org/2000/svg"><g fill="none" fill-rule="evenodd"><path d="m0 0h24v24h-24z"/><path d="m13.5 19c-6.27-5.6358696-9.5-8.5-9.5-11.91847826 0-2.86413044 2.28-5.08152174 5.225-5.08152174 1.615 0 3.23.73913043 4.275 1.94021739 1.045-1.20108696 2.66-1.94021739 4.275-1.94021739 2.945 0 5.225 2.2173913 5.225 5.08152174 0 3.51086956-3.23 6.37499996-9.5 11.91847826zm-1.5.78125c-6.31304348-5.53125-10.04347826-8.8125-10.04347826-13.21875 0-.1875 0-.375 0-.5625-.57391304.84375-.95652174 1.875-.95652174 3 0 3.5625 3.25217391 6.46875 9.5652174 12z" fill="#f0f8ff" fill-rule="nonzero"/></g></svg>