<svg width="21" height="13" viewBox="0 0 21 13" fill="none" xmlns="http://www.w3.org/2000/svg">
<path fill-rule="evenodd" clip-rule="evenodd" d="M20.0764 12.9713L20.1213 13L20.204 12.9993L20.2486 12.9849L20.5987 12.9177L20.6406 12.9061L20.6327 12.8647L20.5514 12.5664L20.5587 12.4543L20.7008 12.1415L20.7843 12.0565L20.9065 11.9936L20.8801 11.9219L20.8277 11.7597L20.7622 11.172L20.7138 10.5758L20.6843 10.2057L20.8346 9.52037L20.8902 9.33101L20.9407 9.12617L20.9781 8.84694L20.9841 8.77155L21 8.72037V8.29379L20.989 8.22097L21 7.34429V7.24796L20.8983 6.79371L20.8483 6.54487L20.7893 5.63321L20.6965 4.88267L20.6173 4.4244L20.3729 3.9627L20.1135 3.59976L19.5945 3.40037L18.7924 3.04273L18.6816 3.00804L17.8922 2.86556L17.7968 2.86025L17.2014 2.89867L17.087 2.92117L15.2454 3.35679L15.098 3.37743L14.3512 3.41169L14.0634 3.42459L13.9756 3.41441L13.5324 3.29372L13.3783 3.23638L12.9065 3.03054L12.4204 2.84492L12.1995 2.80292L12.0235 2.77611L11.5392 2.68151L11.4391 2.6385L11.0388 2.3716L10.9387 2.3114L10.5527 2.08678L10.4733 2.01396L10.1062 1.84353L9.90391 1.74233L9.78167 1.70778L9.47258 1.57935L8.24935 1.19347L8.16586 1.14961L8.11754 1.12567L7.94941 1.06618L7.66959 0.903556L7.42215 0.779926L7.19712 0.693665L6.81139 0V0.779926L6.73548 0.811175L6.29577 0.194955V0.98876L6.13759 1.30356L6.08398 1.38956L6.03022 1.55985L5.9819 1.6493L5.9177 1.83564L5.91899 2.02127L5.89526 2.09079L5.57916 2.50648L5.45478 2.63435L5.37314 2.74329L5.08421 3.30562L5.06519 3.35679L5 3.60291L5.00014 3.74238L5.01201 3.96184L5.02116 4.00842L5.04518 4.09443L5.09579 4.17298L5.13739 4.20867L5.17914 4.23089L5.40746 4.29153H5.88411L5.96903 4.19119L6.01993 4.06777L6.02993 3.9508L6.23552 3.86609L6.44325 3.78567L6.70545 3.71844L7.27789 3.36711L7.42215 3.28956L7.4739 3.32296L7.74039 3.50501L7.82188 3.57782L8.20532 4.0186L8.99535 4.93427L9.42425 5.45303L9.50146 5.61859L9.63413 6.34963L9.65029 6.54085L9.64928 6.80231L9.67516 6.90695L9.81241 7.16081L9.89204 7.24223L10.3791 7.53837L10.4451 7.61922L10.8431 9.00677L10.8536 9.06726L10.8852 9.40971L10.9356 9.95068L10.9681 10.2792L11.055 10.8641L11.0693 10.9931L11.071 11.6668L11.0567 11.7472L10.9634 12.1385L11.0062 12.1958L10.9777 12.2456L10.8671 12.4278L10.7408 12.5701L10.6836 12.6285L10.5525 12.8544L10.5419 12.8872L10.7725 12.8729L11.092 12.863H11.1193L11.3041 12.8686L11.344 12.8597L11.3274 12.789L11.29 12.6495L11.3043 12.5664L11.5519 12.1946L11.6125 12.1411L11.7147 12.0868L11.6894 11.7L11.6498 11.1374L11.6291 10.7941L11.6075 10.3751L11.6198 10.2874L11.7515 9.95498L11.9546 10.4806L11.9975 10.6108L12.2094 11.3723L12.2481 11.567L12.3065 12.1348L12.3023 12.189L12.2012 12.5675L12.1656 12.6249L12.0739 12.7178L12.0464 12.7532L12.1009 12.7751L12.2446 12.8214L12.379 12.8387L12.6492 12.8287L12.9179 12.7668L12.9025 12.6578L12.7738 12.4547L12.7622 12.3706L12.8688 12.0223L12.9116 11.9631L12.976 11.9166L12.5294 10.2845L12.5225 10.183L12.5837 9.82382L12.5855 9.68048L12.3023 7.82018L12.3719 7.80972H12.7944H13.7895L13.8853 7.80571L14.323 7.77073L14.6158 7.7369L15.2735 7.63298L15.6323 7.52719L16.2185 7.2127L16.5553 7.04742L17.3085 6.7702L17.3887 6.74383L18.0612 7.57908L18.229 8.21724L18.551 8.98355L18.6759 9.35423L18.8598 10.1442L18.8635 10.2589L18.8361 10.4006L18.6216 11.5561L18.4925 12.0742L18.2556 12.4529L18.1555 12.5638L18.0952 12.6283L17.9851 12.8346L17.9758 12.8703L18.7345 12.8288L18.7518 12.8205L18.7501 12.745L18.7657 12.6733L18.9712 12.315L19.0251 12.2648L19.1737 12.1848L19.2562 11.6169L19.3313 11.0865L19.4083 10.5418L19.477 10.2121L19.6997 9.5046L20.0284 10.0506L20.0713 10.4746L20.1343 11.0488L20.1862 11.5274L20.2072 11.8428L20.2097 11.9871L20.1954 12.0875L20.043 12.5439L19.9985 12.6282L19.8527 12.8288L19.8337 12.867L19.8993 12.8974L20.0764 12.9713ZM3.6 8.6H5.4C5.73 8.6 6 8.33 6 8C6 7.67 5.73 7.4 5.4 7.4H3.6V5.6C3.6 5.27 3.33 5 3 5C2.67 5 2.4 5.27 2.4 5.6V7.4H0.6C0.27 7.4 0 7.67 0 8C0 8.33 0.27 8.6 0.6 8.6H2.4V10.4C2.4 10.73 2.67 11 3 11C3.33 11 3.6 10.73 3.6 10.4V8.6Z" fill="#F0F8FF"/>
</svg>
