<svg height="24" viewBox="0 0 24 24" width="24" xmlns="http://www.w3.org/2000/svg"><path d="m16.4739071 3.5c.0147631 0 .0286316.00357895.0429473.00447368.0304211.00134211.0608421.00447369.0912632.00894737.0268421.00447369.0532368.00939474.0796316.01610527.0299737.00715789.0595.01610526.0885789.0268421.0259474.00939474.0514474.02013158.0765.03176316.0272895.01297368.0536842.0268421.0796316.0425.0255.01521053.0501053.03221053.0742632.05010526.0129736.00984211.0272894.01655263.0398158.02684211.0107368.00894737.0183421.01968421.0286315.02907894l.0313158.0255 5.367079 5.36752632c.0420526.04160526.0791842.08768421.1122894.13689474.0147632.02192105.0246053.04563158.0371316.06844737.0156579.02863157.0326579.05592105.0451842.08589473.012079.02952632.0192369.05994737.0281842.09036842.0076053.0255.0174474.05010527.0228158.0765.0232632.11586842.0232632.23486842.0008948.35073685-.0053685.02639473-.0152106.051-.0228158.07649998-.0089474.0304211-.0161053.0608421-.0281842.0903684-.0125263.0304211-.0295263.0577106-.0451842.0858948-.0125264.0228158-.0223685.0465263-.0371316.0684473-.0331053.0492106-.0706842.0952895-.1122895.1368948l-9.8407632 9.8407631c-.0420526.0420527-.0881315.0791842-.1373421.1122895-.0210263.0143158-.0442894.0241579-.0662105.0362369-.0290789.0161052-.0568158.0335526-.0876842.0460789-.0290789.0120789-.0595.0187895-.0894737.0277368-.0259473.0076053-.0505526.0174474-.0773947.0228158-.0581579.0111842-.1167632.0174474-.1753684.0174474-.0586053 0-.1172106-.0062632-.1753685-.0174474-.0268421-.0053684-.0514473-.0152105-.0773947-.0228158-.0299737-.0089473-.0603947-.0156579-.0894737-.0277368-.0308684-.0125263-.0586052-.0299737-.0876842-.0460789-.021921-.0125264-.0447368-.0219211-.0662105-.0362369-.0496579-.0331053-.0957369-.0702368-.1373421-.1122895l-9.84076318-9.8407631c-.04205263-.0416053-.07918421-.0876842-.11228947-.1368948-.01476316-.021921-.02460527-.0456315-.03713158-.0684473-.0156579-.0286316-.0326579-.0559211-.04518421-.0858948-.01207895-.0295263-.01923685-.0599473-.02818421-.0903684-.00760527-.02549998-.01744737-.05010525-.02281579-.07649998-.02281579-.11542106-.02281579-.23442106 0-.35028948.00536842-.02639473.01521052-.051.02281579-.0765.00894736-.03042105.01610526-.0608421.02818421-.09036842.01252631-.03042105.02952631-.05771053.04518421-.08589474.01252631-.02281579.02236842-.04652631.03713158-.06844736.03310526-.04921053.07068421-.09528948.11228947-.13689474l5.36797368-5.36842105c.00984211-.00939474.02147369-.01655264.03131579-.0255.01028948-.00894737.01789474-.02013158.02863158-.02907895.01252632-.01028947.02684211-.017.03981579-.02684211.0241579-.01789473.04786842-.03444736.07336842-.04965789.02639474-.01610526.05368421-.03042105.08142106-.04339474.02415789-.01118421.04831578-.02147368.07336842-.03042105.03042105-.01118421.0608421-.02057895.09215789-.02818421.02460526-.00626316.0496579-.01118421.0751579-.01521053.03221052-.00492105.06397368-.00805263.09618421-.00939473.01386842-.00044737.02728947-.00402632.04115789-.00402632zm-5.3684211 7.1578947h-6.78747366l6.78747366 6.7870264zm8.5769474 0h-6.7874737v6.7870264zm-12.21584212-4.93805259-3.14857894 3.14857894h5.77194736zm9.06771052 0-2.6238158 3.14857894h5.7719474zm-1.9706579-.43036843h-5.12684209l2.56342109 3.07610527z" fill="#f0f8ff" fill-rule="evenodd"/></svg>