<svg height="18" viewBox="0 0 16 18" width="16" xmlns="http://www.w3.org/2000/svg"><path d="m19.7000533 12.1c-.0129807 3.1496646-1.9429111 5.9738668-4.8725861 7.1303961-2.929675 1.1565292-6.26834093.4121774-8.42928671-1.8793-2.16094579-2.2914774-2.70842807-5.668016-1.38225422-8.52490562.12886402-.28830315.40337724-.48454031.71786867-.51317207s.61992913.11480584.79873807.37509799c.17880893.26029215.20311124.59685704.06355199.88013757-.374895.79127673-.56874652 1.65615283-.56746032 2.53174603-.00429588 3.2756679 2.63823746 5.9395635 5.91383372 5.9616414 3.2755963.0220778 5.9537977-2.6059556 5.9936569-5.8813838.0398591-3.27542814-2.5735969-5.96785644-5.8487605-6.0254957l.5674604.57619048c.2506964.24864288.3269359.62381521.1931704.9505854-.1337656.32677018-.4511955.54079131-.8042816.54227174-.2333099-.00096854-.4565249-.09528475-.6198412-.26190476l-2.04285717-2.02539682c-.17630583-.16506263-.27635566-.39578675-.27635566-.63730159s.10004983-.47223896.27635566-.63730159l2.06904767-2.06904762c.3423288-.33991811.8953993-.3379638 1.2353174.00436508s.3379638.89539935-.0043651 1.23531746l-.5761904.57619048c4.2062381.06192342 7.5861657 3.48458569 7.5952381 7.69126984z" fill="#f0f8ff" fill-rule="evenodd" transform="translate(-4 -2)"/></svg>