<svg width="20" height="18" viewBox="0 0 20 18" fill="none" xmlns="http://www.w3.org/2000/svg">
<path d="M15.1436 5.34866C14.7781 5.14095 14.3081 5.14095 13.8903 5.34866L10.9661 7.06231L8.98172 8.15282L6.10966 9.86647C5.74412 10.0742 5.27415 10.0742 4.8564 9.86647L2.61097 8.51632C2.24543 8.30861 1.98433 7.89318 1.98433 7.42582V4.82938C1.98433 4.41395 2.19321 3.99852 2.61097 3.73887L4.8564 2.44065C5.22193 2.23294 5.69191 2.23294 6.10966 2.44065L8.35509 3.7908C8.72063 3.99852 8.98172 4.41395 8.98172 4.88131V6.59496L10.9661 5.45252V3.68694C10.9661 3.27151 10.7572 2.85608 10.3394 2.59644L6.16188 0.155786C5.79634 -0.0519288 5.32637 -0.0519288 4.90862 0.155786L0.626632 2.64837C0.208877 2.85608 0 3.27151 0 3.68694V8.56825C0 8.98368 0.208877 9.39911 0.626632 9.65875L4.8564 12.0994C5.22193 12.3071 5.69191 12.3071 6.10966 12.0994L8.98172 10.4377L10.9661 9.29525L13.8381 7.63353C14.2037 7.42582 14.6736 7.42582 15.0914 7.63353L17.3368 8.93175C17.7023 9.13947 17.9634 9.5549 17.9634 10.0223V12.6187C17.9634 13.0341 17.7546 13.4496 17.3368 13.7092L15.1436 15.0074C14.7781 15.2151 14.3081 15.2151 13.8903 15.0074L11.6449 13.7092C11.2794 13.5015 11.0183 13.0861 11.0183 12.6187V10.957L9.03394 12.0994V13.8131C9.03394 14.2285 9.24282 14.6439 9.66057 14.9036L13.8903 17.3442C14.2559 17.5519 14.7258 17.5519 15.1436 17.3442L19.3734 14.9036C19.7389 14.6958 20 14.2804 20 13.8131V8.87982C20 8.46439 19.7911 8.04896 19.3734 7.78932L15.1436 5.34866Z" fill="#F0F8FF" fill-opacity="0.64"/>
</svg>
