<svg fill="none" height="24" viewBox="0 0 24 24" width="24" xmlns="http://www.w3.org/2000/svg"><path clip-rule="evenodd" d="m20.0156 6.64286h-14.8906c-.34531 0-.625-.2717-.625-.60715 0-.33544.27969-.60714.625-.60714h15c.3453 0 .625-.2717.625-.60714 0-1.00596-.8395-1.82143-1.875-1.82143h-14.375c-1.38086 0-2.5 1.08717-2.5 2.42857v12.14283c0 1.3414 1.11914 2.4286 2.5 2.4286h15.5156c1.0946 0 1.9844-.817 1.9844-1.8214v-9.71431c0-1.00445-.8898-1.82143-1.9844-1.82143zm-1.7656 7.89284c-.6902 0-1.25-.5438-1.25-1.2143s.5598-1.2143 1.25-1.2143 1.25.5438 1.25 1.2143-.5598 1.2143-1.25 1.2143z" fill="#f0f8ff" fill-rule="evenodd"/></svg>