<svg width="20" height="20" viewBox="0 0 20 20" fill="none" xmlns="http://www.w3.org/2000/svg">
<path fill-rule="evenodd" clip-rule="evenodd" d="M10 0C4.47715 0 0 4.47715 0 10C0 12.6522 1.05357 15.1957 2.92893 17.0711C4.8043 18.9464 7.34784 20 10 20C12.6522 20 15.1957 18.9464 17.0711 17.0711C18.9464 15.1957 20 12.6522 20 10C20 7.34784 18.9464 4.8043 17.0711 2.92893C15.1957 1.05357 12.6522 0 10 0ZM10 18C5.58172 18 2 14.4183 2 10C2 5.58172 5.58172 2 10 2C12.1217 2 14.1566 2.84285 15.6569 4.34315C17.1571 5.84344 18 7.87827 18 10C18 14.4183 14.4183 18 10 18ZM8 12.17L13.88 6.29C14.27 5.9 14.91 5.9 15.3 6.29C15.69 6.68 15.69 7.31 15.3 7.7L8.71 14.29C8.32 14.68 7.69 14.68 7.3 14.29L4.71 11.7C4.32 11.31 4.32 10.68 4.71 10.29C5.1 9.9 5.73 9.9 6.12 10.29L8 12.17Z" fill="#27B18A"/>
</svg>
