<?xml version="1.0" encoding="UTF-8"?>
<svg width="24px" height="24px" viewBox="0 0 24 24" version="1.1" xmlns="http://www.w3.org/2000/svg" xmlns:xlink="http://www.w3.org/1999/xlink">
    <!-- Generator: sketchtool 52.3 (67297) - http://www.bohemiancoding.com/sketch -->
    <title>EE66CAEC-58B4-4531-8207-5D80F56F20ED</title>
    <desc>Created with sketchtool.</desc>
    <defs>
        <linearGradient x1="100%" y1="100%" x2="0%" y2="100%" id="linearGradient-1">
            <stop stop-color="#747ACA" offset="0%"></stop>
            <stop stop-color="#308664" offset="100%"></stop>
        </linearGradient>
        <filter x="-4.3%" y="-27.4%" width="108.6%" height="154.7%" filterUnits="objectBoundingBox" id="filter-2">
            <feGaussianBlur stdDeviation="32" in="SourceGraphic"></feGaussianBlur>
        </filter>
        <linearGradient x1="50%" y1="50%" x2="50%" y2="100%" id="linearGradient-3">
            <stop stop-color="#1D2026" offset="0%"></stop>
            <stop stop-color="#18191C" offset="100%"></stop>
        </linearGradient>
        <radialGradient cx="50%" cy="50%" fx="50%" fy="50%" r="39.8871528%" gradientTransform="translate(0.500000,0.500000),rotate(90.000000),scale(1.000000,1.003237),translate(-0.500000,-0.500000)" id="radialGradient-4">
            <stop stop-color="#2DB64C" offset="0%"></stop>
            <stop stop-color="#1DAE37" stop-opacity="0" offset="100%"></stop>
        </radialGradient>
        <filter x="0.0%" y="0.0%" width="100.0%" height="100.0%" filterUnits="objectBoundingBox" id="filter-5">
            <feGaussianBlur stdDeviation="0" in="SourceGraphic"></feGaussianBlur>
        </filter>
        <linearGradient x1="0%" y1="50%" x2="100%" y2="50%" id="linearGradient-6">
            <stop stop-color="#22262D" offset="0%"></stop>
            <stop stop-color="#1D2026" offset="100%"></stop>
        </linearGradient>
        <linearGradient x1="0%" y1="0%" x2="100%" y2="100%" id="linearGradient-7">
            <stop stop-color="#A8FFF3" offset="0%"></stop>
            <stop stop-color="#13A82A" offset="100%"></stop>
        </linearGradient>
        <rect id="path-8" x="0" y="0" width="1080" height="318" rx="12"></rect>
        <filter x="-4.8%" y="-8.8%" width="109.6%" height="135.2%" filterUnits="objectBoundingBox" id="filter-9">
            <feOffset dx="0" dy="32" in="SourceAlpha" result="shadowOffsetOuter1"></feOffset>
            <feGaussianBlur stdDeviation="12" in="shadowOffsetOuter1" result="shadowBlurOuter1"></feGaussianBlur>
            <feComposite in="shadowBlurOuter1" in2="SourceAlpha" operator="out" result="shadowBlurOuter1"></feComposite>
            <feColorMatrix values="0 0 0 0 0   0 0 0 0 0   0 0 0 0 0  0 0 0 0.199869792 0" type="matrix" in="shadowBlurOuter1"></feColorMatrix>
        </filter>
    </defs>
    <g id="03---ui" stroke="none" stroke-width="1" fill="none" fill-rule="evenodd">
        <g id="10-buy-2" transform="translate(-688.000000, -894.000000)">
            <rect fill="#22262D" x="0" y="0" width="1920" height="1490"></rect>
            <g id="bkg" transform="translate(0.000000, 724.000000)">
                <g id="top-glow">
                    <ellipse id="bkg-oval-top-glow" fill-opacity="0.4" fill="url(#linearGradient-1)" filter="url(#filter-2)" transform="translate(960.000000, 155.500000) scale(1, -1) translate(-960.000000, -155.500000) " cx="960" cy="155.5" rx="1120" ry="175.5"></ellipse>
                    <ellipse id="bkg-oval-top-body" fill="url(#linearGradient-3)" transform="translate(960.000000, 175.500000) scale(1, -1) translate(-960.000000, -175.500000) " cx="960" cy="175.5" rx="1432" ry="175.5"></ellipse>
                </g>
            </g>
            <circle id="light-spot" fill="url(#radialGradient-4)" opacity="0.200000003" filter="url(#filter-5)" cx="960" cy="573" r="370"></circle>
            <g id="Group-2" transform="translate(420.000000, 842.000000)">
                <g id="Rectangle">
                    <use fill="black" fill-opacity="1" filter="url(#filter-9)" xlink:href="#path-8"></use>
                    <rect stroke="url(#linearGradient-7)" stroke-width="1" stroke-linejoin="square" fill="url(#linearGradient-6)" fill-rule="evenodd" x="0.5" y="0.5" width="1079" height="317" rx="12"></rect>
                </g>
                <g id="Group" transform="translate(44.000000, 44.000000)">
                    <g id="Group-11" transform="translate(216.000000, 0.000000)">
                        <g id="img-rarity">
                            <rect id="Rectangle" x="0" y="0" width="40" height="40"></rect>
                            <g id="icon-copy-2" transform="translate(8.000000, 8.000000)">
                                <g id="round-dna">
                                    <polygon id="Path" points="0 0 24 0 24 24 0 24"></polygon>
                                    <path d="M4,2 L6,2 L6,4 C6,5.44 6.68,6.61 7.88,7.78 C8.74,8.61 9.89,9.41 11.09,10.2 L9.26,11.39 C8.27,10.72 7.31,10 6.5,9.21 C5.07,7.82 4,6.1 4,4 L4,2 Z M18,2 L20,2 L20,4 C20,6.1 18.93,7.82 17.5,9.21 C16.09,10.59 14.29,11.73 12.54,12.84 C10.79,13.96 9.09,15.05 7.88,16.22 C6.68,17.39 6,18.56 6,20 L6,22 L4,22 L4,20 C4,17.9 5.07,16.18 6.5,14.79 C7.91,13.41 9.71,12.27 11.46,11.16 C13.21,10.04 14.91,8.95 16.12,7.78 C17.32,6.61 18,5.44 18,4 L18,2 Z M14.74,12.61 C15.73,13.28 16.69,14 17.5,14.79 C18.93,16.18 20,17.9 20,20 L20,22 L18,22 L18,20 C18,18.56 17.32,17.39 16.12,16.22 C15.26,15.39 14.11,14.59 12.91,13.8 L14.74,12.61 Z M7,3 L17,3 L17,4 L16.94,4.5 L7.06,4.5 L7,4 L7,3 Z M7.68,6 L16.32,6 C16.08,6.34 15.8,6.69 15.42,7.06 L14.91,7.5 L9.07,7.5 L8.58,7.06 C8.2,6.69 7.92,6.34 7.68,6 Z M9.09,16.5 L14.93,16.5 L15.42,16.94 C15.8,17.31 16.08,17.66 16.32,18 L7.68,18 C7.92,17.66 8.2,17.31 8.58,16.94 L9.09,16.5 Z M7.06,19.5 L16.94,19.5 L17,20 L17,21 L7,21 L7,20 L7.06,19.5 Z" id="Shape" fill="#F0F8FF" fill-rule="nonzero"></path>
                                </g>
                            </g>
                        </g>
                    </g>
                </g>
            </g>
        </g>
    </g>
</svg>