<svg height="24" viewBox="0 0 24 24" width="24" xmlns="http://www.w3.org/2000/svg"><g fill="none" fill-rule="evenodd"><path d="m0 0h24v24h-24z"/><path d="m11.75 11.5c-2.34721019 0-4.25-1.90278981-4.25-4.25s1.90278981-4.25 4.25-4.25c2.3472102 0 4.25 1.90278981 4.25 4.25s-1.9027898 4.25-4.25 4.25zm6 10c-2.3472102 0-4.25-1.9027898-4.25-4.25s1.9027898-4.25 4.25-4.25 4.25 1.9027898 4.25 4.25-1.9027898 4.25-4.25 4.25zm-11.5 0c-2.34721019 0-4.25-1.9027898-4.25-4.25s1.90278981-4.25 4.25-4.25 4.25 1.9027898 4.25 4.25-1.90278981 4.25-4.25 4.25z" fill="#f0f8ff"/></g></svg>