<svg fill="none" height="37" viewBox="0 0 38 37" width="38" xmlns="http://www.w3.org/2000/svg" xmlns:xlink="http://www.w3.org/1999/xlink"><filter id="a" color-interpolation-filters="sRGB" filterUnits="userSpaceOnUse" height="28" width="28" x="10" y="10"><feFlood flood-opacity="0" result="BackgroundImageFix"/><feColorMatrix in="SourceAlpha" type="matrix" values="0 0 0 0 0 0 0 0 0 0 0 0 0 0 0 0 0 0 127 0"/><feOffset/><feGaussianBlur stdDeviation="2"/><feColorMatrix type="matrix" values="0 0 0 0 0 0 0 0 0 0 0 0 0 0 0 0 0 0 1 0"/><feBlend in2="BackgroundImageFix" mode="normal" result="effect1_dropShadow"/><feBlend in="SourceGraphic" in2="effect1_dropShadow" mode="normal" result="shape"/></filter><path clip-rule="evenodd" d="m13.8182 5.93455-1.0618-1.09091-9.77458 9.77456c-1.84727 1.8473-2.98182 4.3927-2.98182 7.2 0 5.6291 4.55273 10.1818 10.1818 10.1818 2.8073 0 5.3527-1.1345 7.2-2.9818l9.7746-9.7746-1.0764-1.0618 5.4255-5.44c.3054-.2763.4945-.6691.4945-1.1054 0-.3491-.1164-.6691-.32-.9164v-.0145l-10.2836-10.283682c-.2619-.261818-.6255-.421818-1.0328-.421818-.4072 0-.7709.16-1.0327.421818zm9.2218 13.30905-7.7091 7.7237c-1.3236 1.3091-3.1418 2.1236-5.1491 2.1236-4.01453 0-7.27271-3.2582-7.27271-7.2727 0-2.0073.81455-3.8255 2.12364-5.1491l7.72367-7.7091zm-.4945-11.82542-2.08-2.05091-2.051 2.05091 2.051 2.03637zm4.0872 4.11632-2.0509-2.07995-2.0363 2.07995 2.0363 2.051zm-6.2691-8.02905 8.1309 8.13095-4.4945 4.48-8.1018-8.1164zm-12.54375 19.23965-.7578.7848 1.56946 1.5156.75781-.7848.78478.7579c.4334.4185 1.124.4064 1.5425-.027l2.2734-2.3542c.4186-.4334.4065-1.124-.0269-1.5425l-2.3542-2.2734.7578-.7848 3.1389 3.0313 1.5157-1.5695-1.5695-1.5156.7578-.7848-1.5695-1.5156-.7578.7848-.7847-.7579c-.4334-.4185-1.124-.4064-1.5426.027l-2.27338 2.3542c-.41852.4334-.40647 1.124.02693 1.5425l2.35425 2.2734-.7579.7848-3.1389-3.0313-1.51561 1.5695z" fill="#f0f8ff" fill-opacity=".64" fill-rule="evenodd"/><g filter="url(#a)"><path clip-rule="evenodd" d="m17.4165 32.3333h13.1671c1.9889 0 3.2264-2.1671 2.2353-3.894l-6.5835-11.4743c-.9935-1.7311-3.4772-1.7311-4.4706-.0001l-6.5836 11.4745c-.9911 1.7268.2464 3.8939 2.2353 3.8939zm0-1.6666c-.7022 0-1.1459-.7772-.7898-1.3978l6.5836-11.4744c.3529-.6149 1.2266-.6149 1.5795.0001l6.5835 11.4742c.3563.6207-.0875 1.3979-.7897 1.3979zm5.7502-7.5h1.6667v-1.6667h-1.6667zm0 5.8333h1.6667v-4.1667h-1.6667z" fill="#ffa700" fill-rule="evenodd"/></g></svg>