<svg fill="none" height="19" viewBox="0 0 24 19" width="24" xmlns="http://www.w3.org/2000/svg"><path clip-rule="evenodd" d="m14.4087 7.224v-5.448c0-.072.036-.116.108-.132.16-.032.352-.048.576-.048.8 0 1.396.224 1.788.672s.588 1.152.588 2.112c0 1.072-.196 1.844-.588 2.316-.384.472-.98.708-1.788.708-.224 0-.416-.016-.576-.048-.072-.016-.108-.06-.108-.132zm-1.8 1.44c.128.144.288.224.48.24.624.064 1.24.096 1.848.096 1.432 0 2.536-.388 3.312-1.164.776-.784 1.164-1.936 1.164-3.456 0-1.4-.388-2.48-1.164-3.24s-1.88-1.14-3.312-1.14c-.608 0-1.224.0320001-1.848.0959997-.192.0160003-.352.1000003-.48.2520003-.128.144-.192.316-.192.515999v7.272001c0 .2.064.376.192.528zm-7.50468-7.104c.136.136.296.204.48.204h2.70001c.00799 0 .01199.004.01199.012v.012l-1.704 1.476c-.344.296-.516.668-.516 1.116v.024c0 .184.068.344.204.48.136.128.296.192.48.192.808.008 1.36.092 1.65601.252.29599.16.444.436.444.828 0 .384-.128.684-.38401.9-.256.216-.616.324-1.08.324-.512 0-1.112-.112-1.8-.336-.16-.048-.308-.024-.444.072-.128.088-.192.212-.192.372v.408c0 .208.06.396.18.564.128.16.288.264.48.312.656.152 1.304.228 1.944.228 1.064 0 1.88001-.248 2.44798-.744.568-.496.852-1.208.852-2.136 0-.736-.212-1.32-.636-1.752-.41597-.432-.97198-.648-1.66798-.648h-.14399c-.00801 0-.01201-.004-.01201-.012v-.012l1.81198-1.5c.352-.288.528-.66.528-1.116v-.276c0-.184-.068-.344-.204-.480001-.136-.135999-.296-.203999-.48-.203999h-4.47598c-.184 0-.344.068-.48.203999-.136.136001-.204.296001-.204.480001v.276c0 .184.068.344.204.48zm5.14558 14.2544c-5.87066-.4118-10.2496-2.8728-10.2496-5.93938.0606562-1.28485.723188-2.46595 1.788-3.1875.32681-.25514.79861-.19706 1.05375.12975s.19706.79861-.12975 1.05375c-.6847.45183-1.12983 1.18776-1.212 2.004 0 1.90468 3.45324 4.00398 8.6131 4.42438l-.89409-.8934c-.29324-.2932-.29324-.7687 0-1.062.29325-.2932.76875-.2932 1.06199 0l2.25 2.25c.2933.2925.2939.7674.0014 1.0607l-2.2514 2.2513c-.1409.1406-.33196.2194-.53099.219-.41423.0008-.75061-.3344-.75136-.7486-.00037-.1997.07894-.3913.22036-.5324zm4.0004-.0444c-.4142.0199-.7661-.2998-.786-.714s.2998-.7661.714-.786c4.7445-.4545 8.322-2.346 8.322-4.39499-.0822-.81624-.5273-1.55218-1.212-2.004-.3264-.25514-.3841-.72661-.129-1.053.2552-.32639.7266-.38414 1.053-.129 1.0651.72056 1.7278 1.90143 1.788 3.186 0 2.91749-3.9795 5.34149-9.678 5.89199z" fill="#f0f8ff" fill-opacity="1" fill-rule="evenodd"/></svg>