<svg height="24" viewBox="0 0 24 24" width="24" xmlns="http://www.w3.org/2000/svg"><g fill="none" fill-rule="evenodd"><path d="m0 0h24v24h-24z"/><g fill="#f0f8ff"><path d="m22.1213253 19-.0448916-.0286685-.177136-.0739646-.0656218-.0303885.0190146-.0381291.1458262-.2006792.0444627-.0842853.1524028-.4564018.0142967-.1003396-.0024305-.1443457-.0210161-.3153531-.051897-.4786199-.0630484-.5742292-.0428901-.4240065-.3286809-.5459908-.2227425.7075376-.0686241.3296872-.0770592.5447007-.0750576.5303665-.0824919.5679222-.1486856.079985-.0538986.0501698-.2054434.3583557-.0155834.0716712.0017156.0755414-.017299.0083138-.7587255.0414259.0092929-.0356922.1100845-.2062696.060332-.064504.1000769-.1109469.2368962-.3787104.1290991-.518039.2144504-1.1554822.0274496-.1417655-.0037171-.1146739-.1838555-.7899593-.1249531-.3706832-.3219615-.7663079-.1678431-.6381599-.6725164-.8352555-.0802045.026375-.7531497.277224-.3368301.1652736-.5861644.314493-.3588469.1057866-.6576479.1039232-.2927962.0338288-.4377647.0349755-.0957879.0040136h-.9950497-.4224673l-.0696249.0104639.2832175 1.8602963-.0018586.1433423-.0611898.3592158.0068624.1014863.4466287 1.6320954-.0643352.0464429-.04289.0592003-.1065104.3483218.0115803.0841419.1286703.203116.0154404.1089402-.2687778.0619239-.2702075.0100339-.1343889-.0173444-.1436818-.0462996-.0544704-.0219313.0274497-.0354056.0917847-.0928858.0355988-.0573369.1010776-.378567.0041461-.0541834-.0583305-.5677788-.0387441-.1946588-.211877-.7615776-.04289-.1301548-.203156-.5256362-.1316726.3324108-.0122951.0877255.021588.4189895.0207302.3433048.0396018.5626185.0253052.3867375-.1022214.0543267-.0606179.0534667-.2476188.3718299-.0142966.0831385.0374573.139472.0165842.0706678-.0398878.0088872-.1848562-.0055903h-.0273067l-.3194679.0098906-.2306056.0143342.0105795-.0328254.1311007-.2259074.0571867-.0583403.1263828-.1423389.1105134-.1821881.0285934-.0497398-.0428901-.0573369.0933574-.3913244.0142967-.0804151-.0017156-.6737087-.0142967-.1290081-.0869238-.5848365-.0324535-.3285406-.0504674-.5409738-.0315957-.3424447-.0104365-.0604905-.3980199-1.3875533-.0660508-.0808451-.4870085-.2961452-.0796326-.0814184-.1372482-.2538592-.025877-.1046399.0010007-.2614563-.0161552-.1912186-.1326733-.7310457-.0772022-.1655604-.4289007-.5187557-.7900352-.9156706-.38343731-.44077752-.08149115-.07281789-.26649034-.18204471-.05175402-.03339875-.14425363.07754818-.57243955.35133196-.26220133.06722753-.20773094.08041503-.20558643.08471529-.01000769.11696728-.05089622.1234177-.08492235.1003396h-.47665172l-.22831817-.0606337-.04174634-.0222181-.04160337-.0356922-.05061029-.0785516-.02401845-.0860054-.00914988-.04658622-.01186625-.21945705-.00014297-.13947205.06519292-.24611872.0190146-.05117319.28893614-.56233181.08163412-.10894015.12438122-.12786132.31609986-.41569265.02373251-.06952101-.0012867-.18562827.06419214-.18634498.04832282-.08944559.05375557-.17029064.05361259-.08600537.15817829-.3147956v-.79380489l.43970937.61621971.07591544-.03124861v-.77992629l.38572475.69366468.22502994.08626161.24744562.12363019.27981638.16262436.16812912.05948705.0483228.02393817.0834927.04386274 1.223225.38587745.3090944.12843469.1222368.03454549.2022982.10119966.367139.17043399.0793466.07281788.3860107.22461737.1000769.06020376.4003074.26690335.1000768.04300269.4843719.09460591.1759923.02680501.2208839.04199929.4860875.18562827.4717909.20583953.1541183.05733692.4431975.12069421.0877817.0101773.2877924-.01290081.7468592-.03425881.1473989-.02064129 1.8415569-.43561722.1143735-.02250474.5954572-.03841573.095359.00530366.7894633.14248224.1107994.03468883.8020444.35763902.5189699.19938913.259485.36294268.2443305.46170557.0792036.4582653.0927856.7505402.0590453.911657.0500384.2488422.1016495.4542517v.096326l-.0110085.8766815.0110085.0728179v.4265866l-.0158693.0511732-.0060046.0753981-.0374574.2792308-.0504673.2048361-.0556141.1893552-.1502583.6853195.0294512.3701098.0484658.5961606.0654789.5877033.0523259.1622635.0264488.0716712-.1222367.0629272-.0834927.085002-.1421091.3127729-.0072913.1120937.0813482.2982953.0078632.0414259-.0418893.0116107-.350126.0672276-.0446057.0143342z" fill-rule="nonzero"/><path d="m7.4 14.6h-1.8v1.8c0 .33-.27.6-.6.6s-.6-.27-.6-.6v-1.8h-1.8c-.33 0-.6-.27-.6-.6s.27-.6.6-.6h1.8v-1.8c0-.33.27-.6.6-.6s.6.27.6.6v1.8h1.8c.33 0 .6.27.6.6s-.27.6-.6.6z"/></g></g></svg>