<svg height="24" viewBox="0 0 24 24" width="24" xmlns="http://www.w3.org/2000/svg"><g fill="none" fill-rule="evenodd"><path d="m0 0h24v24h-24z"/><path d="m4.41666667 14c-.77916667 0-1.41666667-.45-1.41666667-1v-2c0-.55.6375-1 1.41666667-1h14.16666663c.7791667 0 1.4166667.45 1.4166667 1v2c0 .55-.6375 1-1.4166667 1zm0 5c-.77916667 0-1.41666667-.45-1.41666667-1v-2c0-.55.6375-1 1.41666667-1h14.16666663c.7791667 0 1.4166667.45 1.4166667 1v2c0 .55-.6375 1-1.4166667 1zm-1.41666667-13c0-.55.6375-1 1.41666667-1h14.16666663c.7791667 0 1.4166667.45 1.4166667 1v2c0 .55-.6375 1-1.4166667 1h-14.16666663c-.77916667 0-1.41666667-.45-1.41666667-1zm1.5 7h1c.275 0 .5-.225.5-.5v-1c0-.275-.225-.5-.5-.5h-1c-.275 0-.5.225-.5.5v1c0 .275.225.5.5.5zm0 5h1c.275 0 .5-.225.5-.5v-1c0-.275-.225-.5-.5-.5h-1c-.275 0-.5.225-.5.5v1c0 .275.225.5.5.5zm0-10h1c.275 0 .5-.225.5-.5v-1c0-.275-.225-.5-.5-.5h-1c-.275 0-.5.225-.5.5v1c0 .275.225.5.5.5z" fill="#f0f8ff" fill-rule="nonzero"/></g></svg>