<svg height="24" viewBox="0 0 24 24" width="24" xmlns="http://www.w3.org/2000/svg"><g fill="none" fill-rule="evenodd"><path d="m0 0h24v24h-24z"/><path d="m12 2c-5.5 0-10 4.5-10 10s4.5 10 10 10 10-4.5 10-10-4.5-10-10-10zm1.2285379 8.0940836v-3.88070092c0-.62328776-.4674658-1.13527413-1.0716733-1.205235l-.1417094-.00814768c-.6712329 0-1.2133827.54214971-1.2133827 1.21338268v3.88070092h-2.18580989c-.55075526 0-.81752734.6626274-.4388831 1.0412717l3.39058709 3.390587c.2409554.2409555.6195996.2409555.8605551 0l3.390587-3.390587c.3872498-.3872498.1118722-1.0412717-.4302775-1.0326661zm2.7714621 7.9059164h-8c-.55 0-1-.45-1-1s.45-1 1-1h8c.55 0 1 .45 1 1s-.45 1-1 1z" fill="#f0f8ff"/></g></svg>