<svg width="24" height="24" viewBox="0 0 24 24" fill="none" xmlns="http://www.w3.org/2000/svg">
<path fill-rule="evenodd" clip-rule="evenodd" d="M8.75463 7H1V9H7.58152C7.87526 8.27434 8.27238 7.60158 8.75463 7ZM7.06189 11H1V13H7.06189C7.02104 12.6724 7 12.3387 7 12C7 11.6613 7.02104 11.3276 7.06189 11ZM7.58152 15H4.375V17H8.75463C8.27238 16.3984 7.87526 15.7257 7.58152 15Z" fill="#F0F8FF"/>
<path fill-rule="evenodd" clip-rule="evenodd" d="M22 12C22 16.4183 18.4183 20 14 20C12.5937 20 11.2722 19.6372 10.124 19H6.86442C8.67781 20.8491 11.2034 22 14 22C19.5228 22 24 17.5228 24 12C24 9.34784 22.9464 6.8043 21.0711 4.92893C19.1957 3.05357 16.6522 2 14 2C11.2026 2 8.67349 3.14864 6.85857 5H10.124C11.2722 4.36284 12.5937 4 14 4C18.4183 4 22 7.58172 22 12ZM7.75463 7H5.33782C4.97522 7.62683 4.6787 8.29667 4.4578 9H6.58152C6.87526 8.27434 7.27238 7.60158 7.75463 7ZM6.06189 11H4.04938C4.01672 11.3289 4 11.6625 4 12C4 12.3374 4.01682 12.671 4.04967 13H6.06189C6.02104 12.6724 6 12.3387 6 12C6 11.6613 6.02104 11.3276 6.06189 11ZM6.58152 15H4.45986C4.6814 15.7029 4.97866 16.3728 5.34213 17H7.75463C7.27238 16.3984 6.87526 15.7257 6.58152 15ZM14.5 12.25V7H13V13L18.25 16.15L19 14.92L14.5 12.25Z" fill="#F0F8FF"/>
</svg>
