<svg height="24" viewBox="0 0 24 24" width="24" xmlns="http://www.w3.org/2000/svg"><g fill="none" fill-rule="evenodd"><path d="m0 0h24v24h-24z"/><g fill="#ffa700" fill-rule="nonzero"><path d="m11 11h2v-2h-2zm0 7h2v-5h-2z"/><path d="m4.09977259 22h15.80045481c2.3867255 0 3.8716888-2.6005651 2.6823695-4.6728371l-7.9001673-13.7691148c-1.1922408-2.07736258-4.1726184-2.07736258-5.36479912-.00010466l-7.90028747 13.76932416c-1.18925917 2.0721673.2957041 4.6727324 2.68242958 4.6727324zm0-2c-.84266442 0-1.37517098-.9325604-.94774825-1.6773025l7.90028746-13.76932417c.4234764-.737866 1.4719-.737866 1.8954365.00010467l7.9001673 13.7691148c.4274828.7448468-.1050238 1.6774072-.9476882 1.6774072z"/></g></g></svg>