<svg fill="none" height="16" viewBox="0 0 64 16" width="64" xmlns="http://www.w3.org/2000/svg"><path clip-rule="evenodd" d="m36.7992 4.26659h1.6 2.1334 1.6c.2985 0 .5334.23465.5334.53334v1.59994 2.13331 2.13332 1.5999c0 .2987-.2349.5334-.5334.5334h-1.0666c-.2988 0-.5334-.2347-.5334-.5334v-1.5999-2.13332-1.59998c0-.29865-.2345-.53333-.5334-.53333h-1.6-1.6c-.2985 0-.5331.23468-.5331.53333v1.59998 2.13332 1.5999c0 .2987-.2349.5334-.5334.5334h-1.0666c-.2988 0-.5334-.2347-.5334-.5334v-1.5999-2.13332-2.13331-2.13328-2.1333-1.599967c0-.298661.2346-.533323.5334-.533323h1.0666c.2985 0 .5334.234662.5334.533323v1.599967 1.59996c0 .29869.2346.53334.5331.53334zm-28.26603 1.60024v-1.59997-1.59995c0-.29867.23465-.53333.53333-.53333h1.0666c.2987 0 .5334.23466.5334.53333v1.59995 2.13331 2.13328 2.13335 1.5999c0 .2987-.2347.5333-.5334.5333h-1.0666c-.29868 0-.53333-.2346-.53333-.5333v-1.5999-1.60002c0-.29865-.23466-.53333-.53331-.53333h-1.59997-2.13331-1.59996c-.29867 0-.53333.23468-.53333.53333v1.60002 1.5999c0 .2987-.23466.5333-.53332.5333h-1.066647c-.298661 0-.533323-.2346-.533323-.5333v-1.5999-2.13335-2.13328-2.13331-1.59995c0-.29867.234662-.53333.533323-.53333h1.066647c.29866 0 .53332.23466.53332.53333v1.59995 1.59997c0 .29869.23466.53334.53333.53334h1.59996 2.13331 1.59997c.29865 0 .53331-.23465.53331-.53334zm40.53283-1.59967h-2.1334-1.6c-.2986 0-.5335.23465-.5335.53334v1.59994 1.06667 1.06664 1.06664 1.06661 1.0667.5333c0 .2987.2349.5333.5335.5333h1.6 2.1334 2.1331 1.5999c.2989 0 .5335-.2346.5335-.5333v-1.0666c0-.2987-.2346-.5334-.5335-.5334h-1.5999-2.1331-1.6c-.2989 0-.5334-.2346-.5334-.5333 0-.29866.2345-.53331.5334-.53331h1.6 2.1331 1.5999c.2989 0 .5335-.23465.5335-.53334v-.5333-1.06664-1.06667-1.59994c0-.29869-.2346-.53334-.5335-.53334h-1.5999zm2.1331 2.66662c0 .29865-.2346.53333-.5332.53333h-1.5999-1.6c-.2989 0-.5334-.23468-.5334-.53333s.2345-.53334.5334-.53334h1.6 1.5999c.2986 0 .5332.23469.5332.53334zm8.5332-2.66662h2.1331 1.6c.2989 0 .5334.23465.5334.53334v1.59994 2.13331 2.13325 1.6c0 .2987-.2345.5333-.5334.5333h-1.0666c-.2985 0-.5334-.2346-.5334-.5333v-1.6-2.13325-1.59997c0-.29865-.2346-.53334-.5331-.53334h-1.6-1.6c-.2988 0-.5334.23469-.5334.53334v1.59997 2.13325 1.6c0 .2987-.2346.5333-.5334.5333h-1.0666c-.2985 0-.5334-.2346-.5334-.5333v-1.6-2.13325-2.13331-1.59994c0-.29869.2349-.53334.5334-.53334h1.6zm-40.5328 2.13328v2.13331 1.59995c0 .2987-.2347.5333-.5333.5333h-1.6-1.6c-.2986 0-.5333-.2346-.5333-.5333v-1.59995-2.13331-1.59994c0-.29869-.2346-.53334-.5333-.53334h-1.0667c-.2986 0-.5333.23465-.5333.53334v1.59994 2.13331 2.13325 1.6c0 .2987.2347.5333.5333.5333h1.6 2.1333 1.6c.2986 0 .5333.2347.5333.5333 0 .2987-.2347.5334-.5333.5334h-1.6-1.6c-.2986 0-.5333.2346-.5333.5333v1.0667c0 .2986.2347.5333.5333.5333h1.6 2.1333 1.6c.2986 0 .5333-.2347.5333-.5333v-.5334-1.0666-1.0667-2.1333-2.13325-2.13331-1.59994c0-.29869-.2347-.53334-.5333-.53334h-1.0667c-.2986 0-.5333.23465-.5333.53334zm6.4001-2.13328h2.1334 2.1332 1.6c.2986 0 .5334.23465.5334.53334v1.59994 2.13331 2.13325 1.6c0 .2987-.2348.5333-.5334.5333h-1.6-2.1332-1.6c-.2987 0-.5334.2347-.5334.5333v.5334 1.0666.5334c0 .2986-.2346.5333-.5333.5333h-1.0666c-.2987 0-.5333-.2347-.5333-.5333v-.5334-1.0666-1.0667-2.1333-2.13325-2.13331-1.59994c0-.29869.2346-.53334.5333-.53334zm4.2666 5.86654v-1.59995-1.59997c0-.29865-.2346-.53334-.5333-.53334h-1.5999-1.6c-.2987 0-.5334.23469-.5334.53334v1.59997 1.59995c0 .2987.2347.5333.5334.5333h1.6 1.5999c.2987 0 .5333-.2346.5333-.5333z" fill="#f0f8ff" fill-rule="evenodd"/></svg>