<svg width="33" height="32" viewBox="0 0 33 32" fill="none" xmlns="http://www.w3.org/2000/svg">
<path d="M0.5 4C0.5 1.79086 2.29086 0 4.5 0H28.5C30.7091 0 32.5 1.79086 32.5 4V28C32.5 30.2091 30.7091 32 28.5 32H4.5C2.29086 32 0.5 30.2091 0.5 28V4Z" fill="#0364FF"/>
<path fill-rule="evenodd" clip-rule="evenodd" d="M8.5 8.84262C8.5 7.96262 9.20135 7.19995 10.1365 7.19995H14.6953H16.624C17.5006 7.19995 18.2604 7.90395 18.2604 8.84262V10.7786V23.1573C18.2604 24.0373 17.5591 24.7999 16.624 24.7999H14.6953C13.8186 24.7999 13.0588 24.0959 13.0588 23.1573V12.4213H10.1365C9.2598 12.4213 8.5 11.7173 8.5 10.7786V8.84262ZM24.6887 9.83999C24.6887 11.248 23.5782 12.4213 22.1171 12.4213C20.7144 12.4213 19.5454 11.248 19.5454 9.83999C19.5454 8.43199 20.6559 7.25866 22.1171 7.25866C23.5198 7.25866 24.6887 8.43199 24.6887 9.83999Z" fill="white"/>
</svg>
