<svg height="24" viewBox="0 0 24 24" width="24" xmlns="http://www.w3.org/2000/svg"><g fill="none" fill-rule="evenodd"><path d="m0 0h24v24h-24z"/><g fill="#27b18a" fill-rule="nonzero"><path d="m18 19h-12c-.55 0-1-.45-1-1v-12c0-.55.45-1 1-1h12c.55 0 1 .45 1 1v12c0 .55-.45 1-1 1zm1-16h-14c-1.1 0-2 .9-2 2v14c0 1.1.9 2 2 2h14c1.1 0 2-.9 2-2v-14c0-1.1-.9-2-2-2z"/><path d="m15.88 8.29-5.88 5.88-1.88-1.88c-.39-.39-1.02-.39-1.41 0s-.39 1.02 0 1.41l2.59 2.59c.39.39 1.02.39 1.41 0l6.59-6.59c.39-.39.39-1.02 0-1.41s-1.03-.39-1.42 0z"/></g></g></svg>