<svg width="22" height="21" viewBox="0 0 22 21" fill="none" xmlns="http://www.w3.org/2000/svg">
<path d="M6.57777 0C5.93859 1.92282 5.24613 4.0195 4.65186 5.84777C4.4762 6.38822 4.34766 6.9169 4.25952 7.43202C3.79288 5.86928 3.32276 4.28135 2.91024 2.8816C3.92997 1.69039 5.17523 0.706568 6.57777 0Z" fill="#ECF1FB" fill-opacity="0.66"/>
<path d="M1.57921 16.8717C2.51386 17.088 3.4342 17.3026 4.29411 17.5053C6.43904 18.0108 8.26326 19.374 9.65244 20.8099C9.71352 20.873 9.77386 20.9364 9.83347 21C9.80417 20.9182 9.77405 20.8362 9.7431 20.7541C9.08883 19.0199 8.09153 17.3289 6.6493 16.2335C4.54647 14.6363 1.99428 12.7236 0 11.235C0.0669007 13.2847 0.633558 15.2048 1.57921 16.8717Z" fill="#ECF1FB" fill-opacity="0.66"/>
<path d="M0.0830102 9.3296C1.28595 10.2262 2.79943 11.3572 4.32913 12.5065C4.07416 12.0151 3.85831 11.4979 3.69394 10.9558C3.07978 8.93051 2.37717 6.57004 1.75769 4.47402C0.882209 5.91763 0.296288 7.5645 0.0830102 9.3296Z" fill="#ECF1FB" fill-opacity="0.66"/>
<path d="M15.4222 0C16.0614 1.92282 16.7539 4.0195 17.3481 5.84777C17.5238 6.38822 17.6523 6.9169 17.7405 7.43202C18.2071 5.86928 18.6772 4.28135 19.0898 2.8816C18.07 1.69039 16.8248 0.706568 15.4222 0Z" fill="#ECF1FB" fill-opacity="0.66"/>
<path d="M20.4208 16.8717C19.4861 17.088 18.5658 17.3026 17.7059 17.5053C15.561 18.0108 13.7367 19.374 12.3476 20.8099C12.2865 20.873 12.2261 20.9364 12.1665 21C12.1958 20.9182 12.226 20.8362 12.2569 20.7541C12.9112 19.0199 13.9085 17.3289 15.3507 16.2335C17.4535 14.6363 20.0057 12.7236 22 11.235C21.9331 13.2847 21.3664 15.2048 20.4208 16.8717Z" fill="#ECF1FB" fill-opacity="0.66"/>
<path d="M21.917 9.3296C20.7141 10.2262 19.2006 11.3572 17.6709 12.5065C17.9258 12.0151 18.1417 11.4979 18.3061 10.9558C18.9202 8.93051 19.6228 6.57004 20.2423 4.47402C21.1178 5.91763 21.7037 7.5645 21.917 9.3296Z" fill="#ECF1FB" fill-opacity="0.66"/>
<path d="M6.47155 13.0775V6.71743H7.93433V11.8781H11.1037V13.0775H6.47155Z" fill="#ECF1FB" fill-opacity="0.66"/>
<path d="M12.8049 13.0775L10.7642 8.18932H12.218L13.5734 11.4875L14.9539 8.18932H16.3083L14.2586 13.0775H12.8049Z" fill="#ECF1FB" fill-opacity="0.66"/>
</svg>
