<svg height="24" viewBox="0 0 24 24" width="24" xmlns="http://www.w3.org/2000/svg"><path d="m20.6 12.9v-1.7l3.1-2.2a.8.8 0 0 0 .2-1l-2.3-3.9a.7.7 0 0 0 -.9-.3l-3.5 1.4a6.2 6.2 0 0 0 -1.7-1.1l-.4-3.4a.8.8 0 0 0 -.8-.7h-4.6a.7.7 0 0 0 -.7.7l-.5 3.4-1.5.9-3.4-1.5a.8.8 0 0 0 -.9.3l-2.4 3.9a.8.8 0 0 0 .1 1l3 2.3v1.7l-3.1 2.2a.7.7 0 0 0 -.2.9l2.2 4a.9.9 0 0 0 1 .3l3.4-1.3a5.9 5.9 0 0 0 1.7 1l.4 3.5a.7.7 0 0 0 .7.6h4.7a.7.7 0 0 0 .7-.6l.5-3.5 1.8-1 3.4 1.4a.7.7 0 0 0 .9-.3l2.3-3.9a.6.6 0 0 0 -.2-.9zm-8.6 2.8a3.6 3.6 0 0 1 -3.7-3.7 3.6 3.6 0 0 1 3.7-3.7 3.7 3.7 0 1 1 0 7.4z" fill="#f1f8ff" fill-rule="evenodd"/></svg>