<svg height="24" viewBox="0 0 24 24" width="24" xmlns="http://www.w3.org/2000/svg"><g fill="none" fill-rule="evenodd"><path d="m0 0h24v24h-24z"/><g fill="#f0f8ff" fill-rule="nonzero"><path d="m12 20c-4.418278 0-8-3.581722-8-8s3.581722-8 8-8c2.1217319 0 4.1565632.84285472 5.6568542 2.34314575 1.5002911 1.50029103 2.3431458 3.53512233 2.3431458 5.65685425 0 4.418278-3.581722 8-8 8zm0-18c-5.5228475 0-10 4.4771525-10 10 0 2.6521649 1.0535684 5.195704 2.92893219 7.0710678 1.87536378 1.8753638 4.41890291 2.9289322 7.07106781 2.9289322s5.195704-1.0535684 7.0710678-2.9289322 2.9289322-4.4189029 2.9289322-7.0710678-1.0535684-5.19570403-2.9289322-7.07106781c-1.8753638-1.87536379-4.4189029-2.92893219-7.0710678-2.92893219z"/><path d="m14.7038062 16.9101905.0841094-.167512.042508-.0446566.0705109-.0768094.1669092-.2621841.090959-.3586424.0382774-.8840294v-.6403497l-.0880379-.2566268-.164195-.3165001-.1182568-.7397982-.7273996.1117608-.6080164.1409958-.2528318.0732369-1.6634519.1223592h-.2976566l-.0490554.0072443.1995458 1.0831914-.0013095.099237-.0431124.2486878.004835.0702598.1193649 1.1299122-.0453284.0321528-.030219.0409848-.0750437.2411459.0081591.0582521.0906568.1406187.0108789.0754201-.1893721.0428704-.1903793.0069466-1.0197439.0236184-.16247719.0099237.007454-.0227253.09236919-.1563974.040292-.0403895.0890451-.0985423.0778641-.1261302.020146-.0344352-.0302189-.0396948.0657765-.2709169.010073-.055672-.0012088-.4664137-.0100729-.0893133-.0612438-.4048869-.0228656-.2274511-.0355576-.3745203-.0222613-.2370771-.0073533-.041878-.28043177-.9606139-.04653716-.0559697-.34313023-.2050236-.05610649-.0563666-.15354417-.1757486-.01823209-.072443.00070511-.1810083-.01138247-.1323821-.09347725-.5061085-.22159872-.2898047-.20545189-.3017469-.27015732-.1573899-.05741599-.0504123-.18776034-.126031-.27046027-.0931044-.53042401.1122571-.51885919.2538492-.0598335.0694659h-.33583315l-.16086549-.1938435-.0294131-.0153818-.08189332-.138634-.00644671-.032252-.00836058-.1519318-.00010073-.2805102.04593279-.1703899.01339707-.0354276.20357492-.38930664.05751671-.0754201.08763493-.08851937.22271358-.28778722.01672115-.04812993-.00090657-.12851188.07927435-.19093193.33032394-.53994836-.05618287-.41522363.10028077-.05447388.44773478.40997793.1585487.05971958.17434206.08559013.40848055.20070853.69198358.26714593.21777783.08891632.22865664.09397741.25867412.11799276.05590504.05041238.27197046.15550434.0705109.04167953.2820434.18477924.4117834.09526749.1239984.01855731.1556275.02907643.3424813.12851193.3324084.1425042.1085867.0396948.3122624.0835576.0618481.0070458.2027691-.0089313.5262124-.0237177.1038524-.0142901 1.2975006-.3015812.0805838-.0155802.4195396-.02659547.0671868.00367177.024131.0986415.0780656.0240154.5650942.2475962.3656491.1380387.1828246.251268.1721473.3196423.0558043.3172606.0653736.5196047.0416014.6311472.0352554.1722754.0716189.3144819v.0666873l-.0077562.6069333.0077562.0504124v.2953292l-.011181.0354276-.0042306.0521986-.0263912.1933137-.0355577.1418096-.0391839.131092-.105867.474452.0207504.2562298.0341474.4127266.0461342.4068716.0368671.1123362.018635.0496185-.0861239.0435651-.0588262.0588475-.1001255.2165351-.0051372.0776033.0573153.2065121.0055401.0286795-.0295138.0080382z"/></g></g></svg>