<svg height="24" viewBox="0 0 24 24" width="24" xmlns="http://www.w3.org/2000/svg"><g fill="none" fill-rule="evenodd"><path d="m0 0h24v24h-24z"/><path d="m21.7393383 21-.0644074-.0404158-.2541425-.1042729-.0941497-.0428408.0272809-.053753.2092214-.2829109.063792-.1188225.2186569-.6434201.0205119-.1414554-.003487-.2034937-.0301525-.4445742-.0744582-.6747424-.0904575-.8095291-.0615357-.5977502-.4715687-.7697196-.3195755.9974628-.0984572.4647821-.1105591.7679009-.1076876.7476929-.1183536.8006377-.2133239.1127601-.0773299.0707277-.294756.505198-.022358.1010396.0024614.1064957-.0248194.0117206-1.0885668.0584009.0133327-.0503178.1579417-.2907919.0865602-.0909356.1435834-.1564093.3398822-.5338932.1852225-.7303141.3076786-1.6289602.0393829-.1998563-.0053331-.1616633-.2637831-1.1136583-.1792741-.5225767-.4619281-1.0803153-.2408098-.8996565-.96488-1.1775153-.1150718.0371826-1.0805672.3908211-.4832605.2329973-.8409881.4433617-.5148489.1491344-.9435476.1465074-.4200839.0476907-.6280745.0493073-.1374298.0056582h-1.4276286-.6061269l-.0998929.0147518.4063408 2.6225835-.0026665.2020791-.087791.5064104.0098457.1430721.640792 2.3008734-.0923036.0654737-.0615357.0834587-.1528137.4910524.0166146.1186204.1846072.2863462.0221528.1535802-.3856238.0872982-.387675.0141455-.1928119-.0244515-.2061447-.0652716-.0781504-.0309181.0393829-.0499136.1316864-.1309473.0510747-.0808317.1450192-.533691.0059484-.076386-.0836886-.8004356-.0555872-.2744235-.3039865-1.0736466-.0615357-.1834879-.29147418-.7410243-.18891465.4686216-.01764024.1236724.03097298.5906775.02974226.4839796.05681798.7931607.03630607.5452096-.14666012.076588-.08697048.0753755-.35526621.5241934-.02051191.1172059.0537412.1966231.02379381.099625-.05722822.0125289-.26521894-.0078811h-.03917774l-.45835042.0139435-.33085704.0202079.01517881-.0462761.18809418-.3184768.08204762-.0822462.18132525-.2006646.15855703-.2568427.04102381-.0701214-.06153572-.0808317.13394275-.5516761.0205119-.1133665-.00246143-.9497721-.0205119-.1818712-.12471239-.824483-.04656202-.4631655-.07240703-.7626468-.04533131-.4827671-.0149737-.0852774-.57105145-1.9561264-.09476501-.1139726-.69872619-.4174956-.11425131-.114781-.1969143-.3578822-.03712655-.1475178.00143583-.3685924-.02317845-.2695736-.19035049-1.0306038-.11076429-.2334014-.61535717-.73132452-1.13348792-1.29088174-.55012931-.62139345-.11691787-.10265622-.38234192-.25664055-.0742531-.04708444-.20696513.10932483-.82129671.49529605-.37618835.09477513-.29803799.11336641-.29496121.11942879-.01435833.1648966-.07302239.17399017-.12184072.14145542h-.68386694l-.32757513-.08547949-.05989477-.03132227-.05968964-.05031772-.07261215-.11073938-.03446-.1212475-.01312762-.06567573-.01702488-.30938321-.00020512-.19662304.09353429-.34696993.02728083-.07214226.41454562-.79275659.11712298-.15358017.17845358-.18025462.45351824-.58602959.03404976-.0980084-.00184607-.26169252.09209846-.26270293.06933024-.1260974.07712477-.24007005.07691964-.1212475.22694329-.44378831v-1.11907959l.63086461.86872595.10891822-.04405326v-1.099514l.55341122.97790527.3228574.12160873.35501788.17428971.40146121.22926239.24122001.08386286.06933024.03374722.11978953.06183622 1.75499866.54399713.44346741.18106294.17537679.04870108.29024347.14266789.52674574.24027213.11384108.10265622.55382146.31665806.14358334.08487325.57433336.37627142.14358334.06062375.69494338.13337225.2525016.03778881.3169089.05920919.6974048.26169253.6768929.29018569.2211183.08083166.6358691.17015067.1259431.01434762.4129047-.01818713 1.0715419-.04829692.2114778-.0290994 2.6421386-.6141186.1640952-.03172643.8543209-.05415722.1368144.00747693 1.1326675.2008667.1589672.04890316 1.1507179.50418753.7445822.28109212.3722911.51166446.3505485.65089701.1136359.6460471.1331223 1.05808653.0847142 1.2852235.0717916.3508095.1458397.6403889v.1357972l-.0157942 1.2359162.0157942.1026562v.6013876l-.0227682.0721423-.008615.1062936-.0537412.3936502-.072407.2887712-.0797914.2669465-.2155801.9661406.0422545.5217684.0695354.8404472.0939445.8285246.0750736.2287537.037947.1010395-.1753768.0887128-.1197895.119833-.2038883.4409367-.0104611.1580259.1167127.4205268.0112816.0584008-.0600999.0163685-.5023366.0947751-.0639971.0202079z" fill="#f0f8ff" fill-rule="nonzero"/></g></svg>