<svg width="46" height="46" viewBox="0 0 46 46" fill="none" xmlns="http://www.w3.org/2000/svg">
<circle cx="23" cy="23" r="22" fill="#4C3176" fill-opacity="0.5" stroke="#F0F8FF" stroke-width="2"/>
<g clip-path="url(#clip0)">
<path fill-rule="evenodd" clip-rule="evenodd" d="M31.3703 24.7337L32.6447 25.997C32.9765 26.326 32.9766 26.8596 32.6447 27.1886C32.485 27.347 32.2697 27.4353 32.0438 27.4353C31.8178 27.4353 31.6026 27.347 31.4428 27.1886L30.1684 25.9252C29.8366 25.5963 29.8365 25.0626 30.1684 24.7337C30.5003 24.4047 31.0385 24.4047 31.3703 24.7337ZM21.6432 27.372L18.6107 32.5792C18.4584 32.8407 18.1778 33.0006 17.8741 33.0006C17.7284 33.0006 17.5859 32.9634 17.4588 32.8928L14.6715 31.3425C14.4733 31.2322 14.3279 31.0479 14.2678 30.8307C14.2078 30.614 14.238 30.381 14.3514 30.1863L16.444 26.5931C16.0669 26.3555 15.7469 26.0363 15.5115 25.6594H14.0497C12.9194 25.6594 12 24.748 12 23.6275V20.7794C12 19.6588 12.9193 18.7474 14.0497 18.7474H15.5155C15.6398 18.5516 15.7884 18.3714 15.9585 18.2127C16.4995 17.708 17.2115 17.4481 17.9531 17.4854H21.0978L28.2803 13.1247C28.5425 12.9655 28.8714 12.9591 29.1396 13.108C29.4079 13.257 29.574 13.5383 29.574 13.8431V30.5636C29.574 30.8664 29.41 31.146 29.1445 31.2958C29.0163 31.3682 28.8716 31.4061 28.7242 31.4061C28.5713 31.4061 28.4214 31.3653 28.29 31.2879L21.6432 27.372ZM33.1501 21.3608C33.6194 21.3608 34 21.7381 34 22.2034C34 22.6687 33.6194 23.046 33.1501 23.046H31.3478C30.8784 23.046 30.4978 22.6687 30.4978 22.2034C30.4978 21.7381 30.8784 21.3608 31.3478 21.3608H33.1501ZM30.7694 19.9199C30.5434 19.9199 30.3283 19.8315 30.1684 19.6732C29.8366 19.3442 29.8366 18.8106 30.1684 18.4816L31.4428 17.2183C31.7746 16.8893 32.3129 16.8893 32.6447 17.2183C32.9765 17.5472 32.9765 18.0809 32.6447 18.4098L31.3703 19.6732C31.2106 19.8315 30.9953 19.9199 30.7694 19.9199ZM15.0797 23.9743V20.4325H14.0496C13.8568 20.4325 13.6997 20.5882 13.6997 20.7794V23.6275C13.6997 23.8186 13.8567 23.9743 14.0496 23.9743L15.0797 23.9743ZM17.9585 25.3691H20.4876V19.1704C20.0912 19.1704 19.6948 19.1703 19.2984 19.1702C18.9772 19.1701 18.6558 19.17 18.3346 19.1699C18.2281 19.1698 18.1216 19.1697 18.0152 19.1696C17.9712 19.1695 17.9218 19.1716 17.878 19.169C17.5963 19.1519 17.3289 19.248 17.1234 19.4397C16.9013 19.6471 16.7794 19.9426 16.7794 20.2442V24.1624C16.7794 24.8124 17.3181 25.3198 17.9585 25.3691ZM17.5583 31.0159L19.8655 27.0542H18.138L16.2535 30.2902L17.5583 31.0159ZM27.8743 29.0828V15.3471L22.1874 18.7999V25.7323L27.8743 29.0828Z" fill="#F0F8FF"/>
</g>
<defs>
<clipPath id="clip0">
<rect width="22" height="20" fill="white" transform="translate(12 13)"/>
</clipPath>
</defs>
</svg>
