<svg width="14" height="14" viewBox="0 0 14 14" fill="none" xmlns="http://www.w3.org/2000/svg">
<path fill-rule="evenodd" clip-rule="evenodd" d="M6.33325 5.00004H7.66659V3.66671H6.33325V5.00004ZM6.99992 12.3334C4.05992 12.3334 1.66659 9.94004 1.66659 7.00004C1.66659 4.06004 4.05992 1.66671 6.99992 1.66671C9.93992 1.66671 12.3333 4.06004 12.3333 7.00004C12.3333 9.94004 9.93992 12.3334 6.99992 12.3334ZM6.99992 0.333374C3.31802 0.333374 0.333252 3.31814 0.333252 7.00004C0.333252 8.76815 1.03563 10.4638 2.28587 11.7141C3.53612 12.9643 5.23181 13.6667 6.99992 13.6667C8.76803 13.6667 10.4637 12.9643 11.714 11.7141C12.9642 10.4638 13.6666 8.76815 13.6666 7.00004C13.6666 5.23193 12.9642 3.53624 11.714 2.286C10.4637 1.03575 8.76803 0.333374 6.99992 0.333374ZM6.33325 10.3334H7.66659V6.33337H6.33325V10.3334Z" fill="#68747F"/>
</svg>
