<svg width="172" height="165" viewBox="0 0 172 165" fill="none" xmlns="http://www.w3.org/2000/svg">
<circle cx="86" cy="72" r="64" fill="#F0F8FF" fill-opacity="0.04"/>
<g filter="url(#filter0_d)">
<path fill-rule="evenodd" clip-rule="evenodd" d="M59.0015 100.25H112.963C121.114 100.25 126.185 91.4731 122.124 84.4792L95.1431 38.0084C91.0714 30.9973 80.8929 30.9973 76.8214 38.0081L49.8405 84.4795C45.7789 91.4731 50.8504 100.25 59.0015 100.25ZM59.0015 93.5C56.1236 93.5 54.305 90.3526 55.7647 87.8391L82.7456 41.3676C84.1919 38.8773 87.7724 38.8773 89.2189 41.368L116.199 87.8388C117.659 90.3526 115.841 93.5 112.963 93.5H59.0015ZM89.3973 80H82.567V86.75H89.3973V80ZM89.3973 56.375H82.567V73.25H89.3973V56.375Z" fill="#696F76"/>
</g>
<defs>
<filter id="filter0_d" x="0.410603" y="0.750046" width="171.143" height="163.5" filterUnits="userSpaceOnUse" color-interpolation-filters="sRGB">
<feFlood flood-opacity="0" result="BackgroundImageFix"/>
<feColorMatrix in="SourceAlpha" type="matrix" values="0 0 0 0 0 0 0 0 0 0 0 0 0 0 0 0 0 0 127 0" result="hardAlpha"/>
<feOffset dy="16"/>
<feGaussianBlur stdDeviation="24"/>
<feColorMatrix type="matrix" values="0 0 0 0 0 0 0 0 0 0 0 0 0 0 0 0 0 0 0.24 0"/>
<feBlend mode="normal" in2="BackgroundImageFix" result="effect1_dropShadow"/>
<feBlend mode="normal" in="SourceGraphic" in2="effect1_dropShadow" result="shape"/>
</filter>
</defs>
</svg>
