<svg width="20" height="18" viewBox="0 0 20 18" fill="none" xmlns="http://www.w3.org/2000/svg">
<path d="M15.1042 5.31249C14.7396 5.10416 14.2708 5.10416 13.8542 5.31249L10.9375 7.03124L8.95833 8.12499L6.09375 9.84374C5.72917 10.0521 5.26042 10.0521 4.84375 9.84374L2.60417 8.48957C2.23958 8.28124 1.97917 7.86457 1.97917 7.39582V4.79166C1.97917 4.37499 2.1875 3.95832 2.60417 3.69791L4.84375 2.39582C5.20833 2.18749 5.67708 2.18749 6.09375 2.39582L8.33333 3.74999C8.69792 3.95832 8.95833 4.37499 8.95833 4.84374V6.56249L10.9375 5.41666V3.64582C10.9375 3.22916 10.7292 2.81249 10.3125 2.55207L6.14583 0.104156C5.78125 -0.104177 5.3125 -0.104177 4.89583 0.104156L0.625 2.60416C0.208333 2.81249 0 3.22916 0 3.64582V8.54166C0 8.95832 0.208333 9.37499 0.625 9.63541L4.84375 12.0833C5.20833 12.2917 5.67708 12.2917 6.09375 12.0833L8.95833 10.4167L10.9375 9.27082L13.8021 7.60416C14.1667 7.39582 14.6354 7.39582 15.0521 7.60416L17.2917 8.90624C17.6562 9.11457 17.9167 9.53124 17.9167 9.99999V12.6042C17.9167 13.0208 17.7083 13.4375 17.2917 13.6979L15.1042 15C14.7396 15.2083 14.2708 15.2083 13.8542 15L11.6146 13.6979C11.25 13.4896 10.9896 13.0729 10.9896 12.6042V10.9375L9.01042 12.0833V13.8021C9.01042 14.2187 9.21875 14.6354 9.63542 14.8958L13.8542 17.3437C14.2187 17.5521 14.6875 17.5521 15.1042 17.3437L19.3229 14.8958C19.6875 14.6875 19.9479 14.2708 19.9479 13.8021V8.85416C19.9479 8.43749 19.7396 8.02082 19.3229 7.76041L15.1042 5.31249Z" fill="#F0F8FF" fill-opacity="0.65"/>
</svg>
