<svg width="40" height="44" viewBox="0 0 40 44" fill="none" xmlns="http://www.w3.org/2000/svg">
<g filter="url(#filter0_d)">
<g filter="url(#filter1_d)">
<path fill-rule="evenodd" clip-rule="evenodd" d="M25.8595 20.0973L25.3427 21.6317L27.8762 22.5594L30.3383 20.0973L19.2409 9V11.3907C17.8493 11.6762 16.5291 12.2114 15.3515 12.8894C13.2462 14.1026 11.4621 15.8868 10.2489 17.992C9.74934 18.9198 9.32114 19.9189 9 20.9537L17.8632 29.7862C18.6444 30.5646 19.9082 30.5638 20.6884 29.7845L25.8595 24.6193L19.2766 17.7414L25.8595 20.0973ZM18.3625 24.0625L19.3 22L20.2375 24.0625L22.3 25L20.2375 25.9375L19.3 28L18.3625 25.9375L16.3 25L18.3625 24.0625Z" fill="url(#paint0_radial)"/>
<path fill-rule="evenodd" clip-rule="evenodd" d="M25.8595 20.0973L25.3427 21.6317L27.8762 22.5594L30.3383 20.0973L19.2409 9V11.3907C17.8493 11.6762 16.5291 12.2114 15.3515 12.8894C13.2462 14.1026 11.4621 15.8868 10.2489 17.992C9.74934 18.9198 9.32114 19.9189 9 20.9537L17.8632 29.7862C18.6444 30.5646 19.9082 30.5638 20.6884 29.7845L25.8595 24.6193L19.2766 17.7414L25.8595 20.0973ZM18.3625 24.0625L19.3 22L20.2375 24.0625L22.3 25L20.2375 25.9375L19.3 28L18.3625 25.9375L16.3 25L18.3625 24.0625Z" fill="url(#paint1_radial)" fill-opacity="0.5"/>
</g>
</g>
<defs>
<filter id="filter0_d" x="-8" y="-4" width="56" height="56" filterUnits="userSpaceOnUse" color-interpolation-filters="sRGB">
<feFlood flood-opacity="0" result="BackgroundImageFix"/>
<feColorMatrix in="SourceAlpha" type="matrix" values="0 0 0 0 0 0 0 0 0 0 0 0 0 0 0 0 0 0 127 0"/>
<feOffset dy="4"/>
<feGaussianBlur stdDeviation="4"/>
<feColorMatrix type="matrix" values="0 0 0 0 0 0 0 0 0 0 0 0 0 0 0 0 0 0 0.12 0"/>
<feBlend mode="normal" in2="BackgroundImageFix" result="effect1_dropShadow"/>
<feBlend mode="normal" in="SourceGraphic" in2="effect1_dropShadow" result="shape"/>
</filter>
<filter id="filter1_d" x="5" y="5" width="29.3383" height="29.3695" filterUnits="userSpaceOnUse" color-interpolation-filters="sRGB">
<feFlood flood-opacity="0" result="BackgroundImageFix"/>
<feColorMatrix in="SourceAlpha" type="matrix" values="0 0 0 0 0 0 0 0 0 0 0 0 0 0 0 0 0 0 127 0"/>
<feOffset/>
<feGaussianBlur stdDeviation="2"/>
<feColorMatrix type="matrix" values="0 0 0 0 0 0 0 0 0 0 0 0 0 0 0 0 0 0 0.24 0"/>
<feBlend mode="normal" in2="BackgroundImageFix" result="effect1_dropShadow"/>
<feBlend mode="normal" in="SourceGraphic" in2="effect1_dropShadow" result="shape"/>
</filter>
<radialGradient id="paint0_radial" cx="0" cy="0" r="1" gradientUnits="userSpaceOnUse" gradientTransform="translate(30.3383 30.3693) rotate(-138.772) scale(28.372 28.1265)">
<stop stop-color="#B763FF"/>
<stop offset="1" stop-color="#4E22CA"/>
</radialGradient>
<radialGradient id="paint1_radial" cx="0" cy="0" r="1" gradientUnits="userSpaceOnUse" gradientTransform="translate(15.5015 14.446) rotate(49.1173) scale(11.2069 11.5818)">
<stop stop-color="white" stop-opacity="0.8"/>
<stop offset="1" stop-color="white" stop-opacity="0"/>
</radialGradient>
</defs>
</svg>
