<svg width="46" height="46" viewBox="0 0 46 46" fill="none" xmlns="http://www.w3.org/2000/svg">
<circle cx="23" cy="23" r="22" fill="#314B7C" fill-opacity="0.6" stroke="#F0F8FF" stroke-width="2"/>
<path fill-rule="evenodd" clip-rule="evenodd" d="M21.5 21C23.433 21 25 19.433 25 17.5C25 15.567 23.433 14 21.5 14C19.567 14 18 15.567 18 17.5C18 19.433 19.567 21 21.5 21ZM21.5 23C24.5376 23 27 20.5376 27 17.5C27 14.4624 24.5376 12 21.5 12C18.4624 12 16 14.4624 16 17.5C16 20.5376 18.4624 23 21.5 23ZM33 27C33 26.4477 32.5523 26 32 26C31.4477 26 31 26.4477 31 27V29H29C28.4477 29 28 29.4477 28 30C28 30.5523 28.4477 31 29 31H31V33C31 33.5523 31.4477 34 32 34C32.5523 34 33 33.5523 33 33V31H35C35.5523 31 36 30.5523 36 30C36 29.4477 35.5523 29 35 29H33V27ZM26 23C25.8371 23 25.684 23.0738 25.5745 23.1944C24.5683 24.3035 23.1155 25 21.5 25C19.8845 25 18.4317 24.3035 17.4255 23.1944C17.316 23.0738 17.1629 23 17 23C14.7909 23 13 24.7909 13 27V31C13 31.5523 13.4477 32 14 32H24.5C25.2136 32 25.7136 31.5 25.7136 31C25.7136 30.5 25.2136 30 24.5 30H16C15.4477 30 15 29.5523 15 29V27C15 26.2937 15.3661 25.6729 15.9189 25.3171C16.4289 24.9888 17.0511 25.2774 17.5311 25.648C18.628 26.4949 20.003 26.999 21.4956 27H21.5044C22.9971 26.999 24.372 26.4949 25.4689 25.648C25.9489 25.2774 26.5711 24.9888 27.0811 25.3171C27.1706 25.3747 27.2553 25.4393 27.3343 25.5101C28.7442 26.7736 29.6621 25.1554 29.091 24.461C28.3574 23.5689 27.2451 23 26 23Z" fill="#F0F8FF"/>
</svg>
