<svg width="46" height="46" viewBox="0 0 46 46" fill="none" xmlns="http://www.w3.org/2000/svg">
<circle cx="23" cy="23" r="22" fill="#603630" fill-opacity="0.5" stroke="#F0F8FF" stroke-width="2"/>
<g clip-path="url(#clip0)">
<path fill-rule="evenodd" clip-rule="evenodd" d="M23.9235 31.5256C23.9235 30.7154 23.1886 30.0475 22.2971 30.0475C21.4055 30.0475 20.6707 30.7154 20.6707 31.5256C20.6707 32.3358 21.4055 33.0037 22.2971 33.0037C23.1886 33.0037 23.9235 32.3395 23.9235 31.5256Z" fill="#F0F8FF"/>
<path d="M23.1686 26.2217C23.0642 26.8056 22.4578 27.1998 21.8193 27.1049C21.1767 27.01 20.743 26.4589 20.8475 25.8786C21.1245 24.3494 22.522 23.218 24.0039 22.0209C24.6464 21.5027 25.305 20.9662 25.819 20.4479L25.8873 20.3823C26.1805 20.1304 26.3973 19.7874 26.5218 19.3969C26.6784 18.9115 26.6985 18.364 26.566 17.8275C26.4334 17.2947 26.1483 16.7728 25.6945 16.3348C25.2528 15.9078 24.6464 15.5611 23.8593 15.3494C23.3694 15.218 22.9156 15.1523 22.506 15.145C21.3454 15.1195 20.4178 15.5282 19.7351 16.0757C19.0363 16.6377 18.5946 17.3312 18.4219 17.864C18.3777 17.9954 18.3576 18.0976 18.3536 18.1706C18.3376 18.7618 17.7995 19.229 17.1489 19.2144C16.4983 19.1998 15.9843 18.7107 16.0004 18.1195C16.0084 17.8567 16.0606 17.5647 16.161 17.2618C16.4381 16.4115 17.1168 15.3275 18.1729 14.4771C19.2451 13.6122 20.7149 12.9698 22.5582 13.01C23.1766 13.0246 23.8312 13.1158 24.5179 13.2983C25.7387 13.6231 26.6985 14.1815 27.4093 14.8677C28.1643 15.5976 28.6421 16.4698 28.863 17.3677C29.0799 18.2582 29.0437 19.1742 28.7827 19.9917C28.5418 20.7363 28.1161 21.4078 27.5258 21.9224C26.8993 22.5538 26.2286 23.0976 25.5741 23.6231C24.4135 24.5647 23.3172 25.4516 23.1766 26.2253L23.1686 26.2217Z" fill="#F0F8FF"/>
</g>
<defs>
<clipPath id="clip0">
<rect width="13" height="20" fill="white" transform="translate(16 13)"/>
</clipPath>
</defs>
</svg>
