<svg width="24" height="24" viewBox="0 0 24 24" fill="none" xmlns="http://www.w3.org/2000/svg">
<path fill-rule="evenodd" clip-rule="evenodd" d="M4.09916 22H19.8996C22.2863 22 23.7713 19.3994 22.582 17.3271L14.6818 3.55804C13.4896 1.48067 10.5092 1.48067 9.31702 3.55793L1.41673 17.3273C0.227471 19.3994 1.71243 22 4.09916 22ZM4.09916 20C3.2565 20 2.72399 19.0674 3.15141 18.3227L11.0517 4.55336C11.4752 3.81549 12.5236 3.81549 12.9471 4.55346L20.8473 18.3226C21.2748 19.0674 20.7423 20 19.8996 20H4.09916ZM10.9994 11H12.9994V8.99999H10.9994V11ZM10.9994 18H12.9994V13H10.9994V18Z" fill="#FFA700"/>
</svg>
