<svg height="972" viewBox="0 0 1426 972" width="1426" xmlns="http://www.w3.org/2000/svg" xmlns:xlink="http://www.w3.org/1999/xlink"><mask id="a" fill="#fff"><path d="m0 971.979h1425.603v-971.979h-1425.603z" fill="#fff" fill-rule="evenodd"/></mask><g fill="#25262b" fill-rule="evenodd"><path d="m316.4263 338.2289h-316.426c0 76.21 75.511 77.307 75.511 77.307h215.746l-291.257 483.629c0 72.615 73.713 72.814 73.713 72.814h311.932c0-72.109-69.219-72.814-69.219-72.814h-240.915l310.134-483.629c0-77.307-69.219-77.307-69.219-77.307"/><path d="m831.4492 338.2289h-241.364s-71.016 7.893-71.016 77.307h387.44s-4.247-77.307-75.06-77.307"/><path d="m590.0854 971.979h241.364c75.059 0 74.324138-72.814 74.324138-72.814h-386.704138c0 72.814 71.016 72.814 71.016 72.814"/><path d="m519.069 690.615h387.439v-72.818h-387.439z" mask="url(#a)"/><path d="m1352.7646 415.5356v433.763s-.678 49.374-44.042 49.374l-157.169.492s-44.199 0-44.199-50.269l.275-401.613s0-31.747 43.109-31.747zm72.814 483.629v-899.164h-72.814v338.228h-242.718c-72.079 0-72.808 77.307-72.808 77.307v483.629c0 72.656 70.116 72.814 70.116 72.814h246.311c75.341-.009 71.913-72.814 71.913-72.814z" mask="url(#a)"/></g></svg>