<svg fill="none" height="24" viewBox="0 0 24 24" width="24" xmlns="http://www.w3.org/2000/svg"><path clip-rule="evenodd" d="m12 2c-5.5 0-10 4.5-10 10s4.5 10 10 10 10-4.5 10-10-4.5-10-10-10zm1.2285 7.61258v3.88072c0 .6233-.4674 1.1353-1.0716 1.2052l-.1417.0082c-.6713 0-1.2134-.5422-1.2134-1.2134v-3.88072h-2.18584c-.55075 0-.81752-.66263-.43888-1.04128l3.39062-3.39058c.2409-.24096.6196-.24096.8605 0l3.3906 3.39058c.3873.38725.1119 1.04128-.4303 1.03267zm2.7715 8.38742h-8c-.55 0-1-.45-1-1s.45-1 1-1h8c.55 0 1 .45 1 1s-.45 1-1 1z" fill="#f0f8ff" fill-opacity=".64" fill-rule="evenodd"/></svg>