<svg height="24" viewBox="0 0 24 24" width="24" xmlns="http://www.w3.org/2000/svg"><g fill="none" fill-rule="evenodd"><path d="m0 0h24v24h-24z"/><path d="m12 20c-4.418278 0-8-3.581722-8-8s3.581722-8 8-8c2.1217319 0 4.1565632.84285472 5.6568542 2.34314575 1.5002911 1.50029103 2.3431458 3.53512233 2.3431458 5.65685425 0 4.418278-3.581722 8-8 8zm0-18c-5.5228475 0-10 4.4771525-10 10 0 2.6521649 1.0535684 5.195704 2.92893219 7.0710678 1.87536378 1.8753638 4.41890291 2.9289322 7.07106781 2.9289322s5.195704-1.0535684 7.0710678-2.9289322 2.9289322-4.4189029 2.9289322-7.0710678-1.0535684-5.19570403-2.9289322-7.07106781c-1.8753638-1.87536379-4.4189029-2.92893219-7.0710678-2.92893219z" fill="#f0f8ff" fill-rule="nonzero"/></g></svg>