<svg height="24" viewBox="0 0 24 24" width="24" xmlns="http://www.w3.org/2000/svg"><g fill="none" fill-rule="evenodd"><path d="m0 0h24v24h-24z"/><path d="m12 2c2.6521649 0 5.195704 1.0535684 7.0710678 2.92893219 1.8753638 1.87536378 2.9289322 4.41890291 2.9289322 7.07106781 0 5.5228475-4.4771525 10-10 10-2.6521649 0-5.19570403-1.0535684-7.07106781-2.9289322-1.87536379-1.8753638-2.92893219-4.4189029-2.92893219-7.0710678s1.0535684-5.19570403 2.92893219-7.07106781c1.87536378-1.87536379 4.41890291-2.92893219 7.07106781-2.92893219zm0 2c-4.418278 0-8 3.581722-8 8s3.581722 8 8 8c2.1217319 0 4.1565632-.8428547 5.6568542-2.3431458 1.5002911-1.500291 2.3431458-3.5351223 2.3431458-5.6568542 0-4.418278-3.581722-8-8-8zm-1 13v-1h-2v-2h4v-1h-3c-.55228475 0-1-.4477153-1-1v-3c0-.55228475.44771525-1 1-1h1v-1h2v1h2v2h-4v1h3c.5522847 0 1 .4477153 1 1v3c0 .5522847-.4477153 1-1 1h-1v1z" fill="#f0f8ff" fill-rule="nonzero"/></g></svg>