<svg width="24" height="20" viewBox="0 0 24 20" fill="none" xmlns="http://www.w3.org/2000/svg">
<path d="M19.2036 7.15829L18.8961 7.69454C18.7836 7.89329 18.5436 7.97579 18.3299 7.89704C17.8874 7.73204 17.4824 7.49579 17.1261 7.19954C16.9536 7.05704 16.9086 6.80579 17.0211 6.61079L17.3286 6.07454C17.0699 5.77454 16.8674 5.42579 16.7324 5.04704H16.1136C15.8886 5.04704 15.6936 4.88579 15.6561 4.66079C15.5811 4.21079 15.5774 3.73829 15.6561 3.26954C15.6936 3.04454 15.8886 2.87954 16.1136 2.87954H16.7324C16.8674 2.50079 17.0699 2.15204 17.3286 1.85204L17.0211 1.31579C16.9086 1.12079 16.9499 0.869536 17.1261 0.727036C17.4824 0.430786 17.8911 0.194536 18.3299 0.0295356C18.5436 -0.0492144 18.7836 0.0332856 18.8961 0.232036L19.2036 0.768286C19.5974 0.697036 19.9986 0.697036 20.3924 0.768286L20.6999 0.232036C20.8124 0.0332856 21.0524 -0.0492144 21.2661 0.0295356C21.7086 0.194536 22.1136 0.430786 22.4699 0.727036C22.6424 0.869536 22.6874 1.12079 22.5749 1.31579L22.2674 1.85204C22.5261 2.15204 22.7286 2.50079 22.8636 2.87954H23.4824C23.7074 2.87954 23.9024 3.04079 23.9399 3.26579C24.0149 3.71579 24.0186 4.18829 23.9399 4.65704C23.9024 4.88204 23.7074 5.04704 23.4824 5.04704H22.8636C22.7286 5.42579 22.5261 5.77454 22.2674 6.07454L22.5749 6.61079C22.6874 6.80579 22.6461 7.05704 22.4699 7.19954C22.1136 7.49579 21.7049 7.73204 21.2661 7.89704C21.0524 7.97579 20.8124 7.89329 20.6999 7.69454L20.3924 7.15829C20.0024 7.22954 19.5974 7.22954 19.2036 7.15829ZM18.8099 4.95329C20.2536 6.06329 21.8999 4.41704 20.7899 2.97329C19.3461 1.85954 17.6999 3.50954 18.8099 4.95329ZM14.4861 10.7245L15.7499 11.3545C16.1286 11.572 16.2936 12.0333 16.1436 12.4458C15.8099 13.3533 15.1536 14.1858 14.5461 14.9133C14.2686 15.247 13.7886 15.3295 13.4099 15.112L12.3186 14.482C11.7186 14.9958 11.0211 15.4045 10.2599 15.6708V16.9308C10.2599 17.3658 9.94861 17.7408 9.52111 17.8158C8.59861 17.9733 7.63111 17.9808 6.67486 17.8158C6.24361 17.7408 5.92486 17.3695 5.92486 16.9308V15.6708C5.16361 15.4008 4.46611 14.9958 3.86611 14.482L2.77486 15.1083C2.39986 15.3258 1.91611 15.2433 1.63861 14.9095C1.03111 14.182 0.389864 13.3495 0.0561138 12.4458C-0.0938862 12.037 0.0711138 11.5758 0.449864 11.3545L1.69861 10.7245C1.55236 9.94079 1.55236 9.13454 1.69861 8.34704L0.449864 7.71329C0.0711138 7.49579 -0.0976361 7.03454 0.0561138 6.62579C0.389864 5.71829 1.03111 4.88579 1.63861 4.15829C1.91611 3.82454 2.39611 3.74204 2.77486 3.95954L3.86611 4.58954C4.46611 4.07579 5.16361 3.66704 5.92486 3.40079V2.13704C5.92486 1.70579 6.23236 1.33079 6.65986 1.25579C7.58236 1.09829 8.55361 1.09079 9.50986 1.25204C9.94111 1.32704 10.2599 1.69829 10.2599 2.13704V3.39704C11.0211 3.66704 11.7186 4.07204 12.3186 4.58579L13.4099 3.95579C13.7849 3.73829 14.2686 3.82079 14.5461 4.15454C15.1536 4.88204 15.7911 5.71454 16.1249 6.62204C16.2749 7.03079 16.1286 7.49204 15.7499 7.71329L14.4861 8.34329C14.6324 9.13079 14.6324 9.93704 14.4861 10.7245ZM10.0761 11.5158C12.2961 8.62829 8.99986 5.33204 6.11236 7.55204C3.89236 10.4395 7.18861 13.7358 10.0761 11.5158ZM19.2036 18.367L18.8961 18.9033C18.7836 19.102 18.5436 19.1845 18.3299 19.1058C17.8874 18.9408 17.4824 18.7045 17.1261 18.4083C16.9536 18.2658 16.9086 18.0145 17.0211 17.8195L17.3286 17.2833C17.0699 16.9833 16.8674 16.6345 16.7324 16.2558H16.1136C15.8886 16.2558 15.6936 16.0945 15.6561 15.8695C15.5811 15.4195 15.5774 14.947 15.6561 14.4783C15.6936 14.2533 15.8886 14.0883 16.1136 14.0883H16.7324C16.8674 13.7095 17.0699 13.3608 17.3286 13.0608L17.0211 12.5245C16.9086 12.3295 16.9499 12.0783 17.1261 11.9358C17.4824 11.6395 17.8911 11.4033 18.3299 11.2383C18.5436 11.1595 18.7836 11.242 18.8961 11.4408L19.2036 11.977C19.5974 11.9058 19.9986 11.9058 20.3924 11.977L20.6999 11.4408C20.8124 11.242 21.0524 11.1595 21.2661 11.2383C21.7086 11.4033 22.1136 11.6395 22.4699 11.9358C22.6424 12.0783 22.6874 12.3295 22.5749 12.5245L22.2674 13.0608C22.5261 13.3608 22.7286 13.7095 22.8636 14.0883H23.4824C23.7074 14.0883 23.9024 14.2495 23.9399 14.4745C24.0149 14.9245 24.0186 15.397 23.9399 15.8658C23.9024 16.0908 23.7074 16.2558 23.4824 16.2558H22.8636C22.7286 16.6345 22.5261 16.9833 22.2674 17.2833L22.5749 17.8195C22.6874 18.0145 22.6461 18.2658 22.4699 18.4083C22.1136 18.7045 21.7049 18.9408 21.2661 19.1058C21.0524 19.1845 20.8124 19.102 20.6999 18.9033L20.3924 18.367C20.0024 18.4383 19.5974 18.4383 19.2036 18.367ZM18.8099 16.1583C20.2536 17.2683 21.8999 15.622 20.7899 14.1783C19.3461 13.0683 17.6999 14.7145 18.8099 16.1583Z" fill="#F0F8FF" fill-opacity="0.64"/>
</svg>
