<svg fill="none" height="24" viewBox="0 0 104 24" width="104" xmlns="http://www.w3.org/2000/svg"><g fill="#f0f8ff" fill-opacity="1"><path d="m33.6164 3.65495h2.184v7.53195h-2.184z"/><path d="m34.7084 2.60495c-.4013 0-.728-.11667-.98-.35-.252-.23334-.378-.52267-.378-.868 0-.34534.126-.634671.378-.868004.252-.233334.5787-.350001.98-.350001.4014 0 .728.112001.98.336001s.378.504004.378.840004c0 .364-.126.66733-.378.91-.252.23333-.5786.35-.98.35z"/><path d="m32.8155 1.38695-4.242 9.79995h-2.24l-4.228-9.79995h2.45l2.982 7 3.024-7z"/><path clip-rule="evenodd" d="m45.1634 8.03695c.028-.364.042-.56.042-.588 0-.784-.1727-1.47-.518-2.058-.336-.59734-.8027-1.05467-1.4-1.372-.5974-.31734-1.2647-.476-2.002-.476-.756 0-1.442.168-2.058.504-.6067.32666-1.0874.78866-1.442 1.386-.3454.588-.518 1.25066-.518 1.988 0 .74666.1773 1.414.532 2.002.3546.58795.8586 1.04995 1.512 1.38595.6533.3267 1.4046.49 2.254.49 1.3626 0 2.3986-.406 3.108-1.218l-1.162-1.25995c-.2614.252-.546.43866-.854.56-.2987.112-.644.168-1.036.168-.5694 0-1.0454-.13534-1.428-.406-.3827-.27067-.6254-.63934-.728-1.106zm-5.11-2.422c.336-.28.7513-.42 1.246-.42.4853 0 .896.14466 1.232.434.336.28.5413.658.616 1.134h-3.71c.0746-.48534.28-.868.616-1.148z" fill-rule="evenodd"/><path d="m58.6187 3.65495-2.73 7.53195h-2.1l-1.694-4.67595-1.75 4.67595h-2.1l-2.716-7.53195h2.058l1.778 5.096 1.848-5.096h1.848l1.792 5.096 1.834-5.096z"/><path d="m69.6888 6.34295c-.4573-.504-1.1153-.826-1.974-.966l2.212-2.52v-1.47h-6.86v1.82h4.172l-2.016 2.282v1.498h1.036c1.2227 0 1.834.40133 1.834 1.204 0 .40133-.1633.714-.49.938-.3266.21466-.7746.322-1.344.322-.5133 0-1.0173-.07467-1.512-.224-.4853-.15867-.9146-.378-1.288-.658l-.882 1.73595c.4667.336 1.0314.5974 1.694.784.672.1774 1.3534.266 2.044.266.8867 0 1.6334-.1446 2.24-.434.616-.2893 1.0734-.672 1.372-1.14795.2987-.48534.448-1.01267.448-1.582 0-.73734-.2286-1.35334-.686-1.848z"/><g clip-rule="evenodd" fill-rule="evenodd"><path d="m72.038 1.38695h4.452c1.064 0 2.002.20533 2.814.616.8213.40133 1.456.97066 1.904 1.708.4573.73733.686 1.596.686 2.576s-.2287 1.83866-.686 2.576c-.448.73733-1.0827 1.31135-1.904 1.72195-.812.4014-1.75.602-2.814.602h-4.452zm4.34 7.938c.98-.00001 1.7593-.27067 2.338-.812.588-.55067.882-1.29267.882-2.226 0-.93334-.294-1.67067-.882-2.212-.5787-.55067-1.358-.826-2.338-.826h-2.072v6.076z"/><path d="m20.8972 8.71892c.0577.54927-.3408 1.04128-.8901 1.09894-5.658.59394-10.24965 1.33834-13.40763 2.17444-1.58691.4201-2.75503.8489-3.50513 1.2636-.37568.2077-.59767.3856-.71512.5167-.03147.0351-.05146.0622-.06393.0815.03849.063.16251.223.54645.4635.56477.3539 1.46271.7315 2.71331 1.1106 2.48654.7537 6.13475 1.4456 10.70235 2.0312 9.1208 1.1693 21.7511 1.8957 35.7225 1.8957 6.9796 0 13.6269-.1813 19.6705-.5088l-1.3583-1.289c-.4006-.3802-.4172-1.0132-.037-1.4138.3801-.4006 1.0131-.4172 1.4137-.037l3.0775 2.9204c.4006.3802.4172 1.0132.037 1.4138l-2.9204 3.0775c-.3802.4006-1.0131.4172-1.4137.037-.4007-.3802-.4172-1.0131-.0371-1.4137l1.2257-1.2916c-6.0499.3255-12.6912.5052-19.6579.5052-14.0289 0-26.7482-.7288-35.9768-1.912-4.6073-.5906-8.38371-1.2993-11.02821-2.1009-1.31491-.3986-2.40906-.8373-3.19502-1.3297-.72444-.4539-1.499089-1.152-1.499089-2.1574 0-.5726.260216-1.0502.588688-1.4169.323201-.3608.756081-.6666 1.237211-.9326.9635-.5327 2.31677-1.0115 3.96094-1.4467 3.30419-.87477 8.01358-1.63205 13.71068-2.23011.5493-.05766 1.0413.34086 1.0989.89013z"/><path d="m85.2027 8.93977c.0643-.54853.5611-.94109 1.1096-.87681 5.0905.59657 9.2779 1.32862 12.2122 2.16394 1.4594.4154 2.6675.8723 3.5305 1.3828.787.4646 1.644 1.1858 1.644 2.2454 0 .6714-.355 1.207-.764 1.5977-.41.3906-.962.7249-1.589 1.0199-1.26.5928-3.0447 1.1289-5.2325 1.613-4.3918.9716-10.6196 1.7786-18.037 2.3478-.5507.0422-1.0313-.3699-1.0736-.9206-.0422-.5506.3699-1.0313.9206-1.0736 7.3772-.566 13.4989-1.3641 17.758-2.3064 2.1377-.473 3.7534-.9712 4.8135-1.4698.532-.2507.869-.4764 1.059-.6575.073-.0689.111-.1186.13-.1493-.04-.0664-.18-.2495-.646-.5248-.646-.3817-1.6625-.7829-3.0611-1.1811-2.7819-.7919-6.8461-1.5091-11.8974-2.101-.5485-.06432-.9411-.5611-.8768-1.10963zm16.5013 4.87893-.001.0021-.001.003c.001-.0034.002-.0051.002-.0051z"/></g></g></svg>