<svg height="64" viewBox="0 0 64 64" width="64" xmlns="http://www.w3.org/2000/svg"><path d="m31.789011.14065934c17.4417582 0 31.6483516 14.20659336 31.6483516 31.64835166 0 17.1136725-13.6771578 31.1127446-30.6676015 31.6333622l.1101034-.0040328c-.0649016.012485-.1319195.0190222-.2004642.0190222-.58263 0-1.0549451-.472315-1.0549451-1.054945v-2.1098901c0-.5826301.4723151-1.0549451 1.0549451-1.0549451.0391337 0 .0777697.0021309.1157984.0062828l.0124844-.0142025.0299137-.0118667c14.6371916-.5532635 26.3799856-12.6389907 26.3799856-27.408785 0-15.1208791-12.3076923-27.42857144-27.4285714-27.42857144s-27.42857144 12.30769234-27.42857144 27.42857144c0 7.6764835 3.26423441 14.9449377 8.72275984 20.0667044l.279438.2585703 3.6300019-3.6300019c.2063427-.2063427.4717533-.3434012.7594591-.3921861.7310933-.123968 1.4259815.3401979 1.6005969 1.0487918l.0213536.1028533 1.9563059 11.537189c.0263941.1556575.0263941.3146478 0 .4703053-.123968.7310934-.7912596 1.2341257-1.5178071 1.1653912l-.1041434-.013746-11.53718897-1.9563059c-.28770574-.048785-.55311641-.1858435-.75945902-.3921861-.52039793-.5203979-.54778729-1.3471121-.08216813-1.8997538l.08216813-.0894697 2.99703489-2.9970349c-6.47032966-5.9076923-10.26813186-14.3472528-10.26813186-23.2791209 0-17.4417583 14.20659336-31.64835166 31.64835166-31.64835166zm-6.5595863 22.06650356c.3918571-.6707672 1.2532843-.8968685 1.9240514-.5050114l16.2646914 9.5017098c.2100379.1227026.3846647.297778.5068279.50813.3901347.6717704.1618238 1.5326145-.5099465 1.9227492l-16.2646915 9.4458174c-.2145658.1246103-.458276.1902455-.7064014.1902455-.77684 0-1.4065934-.6297533-1.4065934-1.4065934v-18.9475272c0-.2493495.0662841-.4942176.1920621-.7095199z"/></svg>