<svg width="24" height="19" viewBox="0 0 24 19" fill="none" xmlns="http://www.w3.org/2000/svg">
<path fill-rule="evenodd" clip-rule="evenodd" d="M14.4087 7.224V1.776C14.4087 1.704 14.4447 1.66 14.5167 1.644C14.6767 1.612 14.8687 1.596 15.0927 1.596C15.8927 1.596 16.4887 1.82 16.8807 2.268C17.2727 2.716 17.4687 3.42 17.4687 4.38C17.4687 5.452 17.2727 6.224 16.8807 6.696C16.4967 7.168 15.9007 7.404 15.0927 7.404C14.8687 7.404 14.6767 7.388 14.5167 7.356C14.4447 7.34 14.4087 7.296 14.4087 7.224ZM12.6087 8.664C12.7367 8.808 12.8967 8.888 13.0887 8.904C13.7127 8.968 14.3287 9 14.9367 9C16.3687 9 17.4727 8.612 18.2487 7.836C19.0247 7.052 19.4127 5.9 19.4127 4.38C19.4127 2.98 19.0247 1.9 18.2487 1.14C17.4727 0.38 16.3687 0 14.9367 0C14.3287 0 13.7127 0.0320001 13.0887 0.0959997C12.8967 0.112 12.7367 0.196 12.6087 0.348C12.4807 0.492 12.4167 0.664 12.4167 0.863999V8.136C12.4167 8.336 12.4807 8.512 12.6087 8.664ZM5.10402 1.56C5.24002 1.696 5.40002 1.764 5.58402 1.764H8.28403C8.29202 1.764 8.29602 1.768 8.29602 1.776V1.788L6.59202 3.264C6.24802 3.56 6.07602 3.932 6.07602 4.38V4.404C6.07602 4.588 6.14402 4.748 6.28002 4.884C6.41602 5.012 6.57602 5.076 6.76002 5.076C7.56802 5.084 8.12002 5.168 8.41603 5.328C8.71202 5.488 8.86003 5.764 8.86003 6.156C8.86003 6.54 8.73203 6.84 8.47602 7.056C8.22002 7.272 7.86002 7.38 7.39602 7.38C6.88402 7.38 6.28402 7.268 5.59602 7.044C5.43602 6.996 5.28802 7.02 5.15202 7.116C5.02402 7.204 4.96002 7.328 4.96002 7.488V7.896C4.96002 8.104 5.02002 8.292 5.14002 8.46C5.26802 8.62 5.42802 8.724 5.62002 8.772C6.27602 8.924 6.92402 9 7.56402 9C8.62802 9 9.44403 8.752 10.012 8.256C10.58 7.76 10.864 7.048 10.864 6.12C10.864 5.384 10.652 4.8 10.228 4.368C9.81203 3.936 9.25602 3.72 8.56002 3.72H8.41603C8.40802 3.72 8.40402 3.716 8.40402 3.708V3.696L10.216 2.196C10.568 1.908 10.744 1.536 10.744 1.08V0.804C10.744 0.62 10.676 0.46 10.54 0.323999C10.404 0.188 10.244 0.12 10.06 0.12H5.58402C5.40002 0.12 5.24002 0.188 5.10402 0.323999C4.96802 0.46 4.90002 0.62 4.90002 0.804V1.08C4.90002 1.264 4.96802 1.424 5.10402 1.56ZM10.2496 15.8144C4.37894 15.4026 0 12.9416 0 9.87502C0.0606562 8.59017 0.723188 7.40907 1.788 6.68752C2.11481 6.43238 2.58661 6.49046 2.84175 6.81727C3.09689 7.14408 3.03881 7.61588 2.712 7.87102C2.0273 8.32285 1.58217 9.05878 1.5 9.87502C1.5 11.7797 4.95324 13.879 10.1131 14.2994L9.21901 13.406C8.92577 13.1128 8.92577 12.6373 9.21901 12.344C9.51226 12.0508 9.98776 12.0508 10.281 12.344L12.531 14.594C12.8243 14.8865 12.8249 15.3614 12.5324 15.6547L10.281 17.906C10.1401 18.0466 9.94904 18.1254 9.75001 18.125C9.33578 18.1258 8.9994 17.7906 8.99865 17.3764C8.99828 17.1767 9.07759 16.9851 9.21901 16.844L10.2496 15.8144ZM14.25 15.77C13.8358 15.7899 13.4839 15.4702 13.464 15.056C13.4441 14.6418 13.7638 14.2899 14.178 14.27C18.9225 13.8155 22.5 11.924 22.5 9.87501C22.4178 9.05877 21.9727 8.32283 21.288 7.87101C20.9616 7.61587 20.9039 7.1444 21.159 6.81801C21.4142 6.49162 21.8856 6.43387 22.212 6.68901C23.2771 7.40957 23.9398 8.59044 24 9.87501C24 12.7925 20.0205 15.2165 14.322 15.767L14.25 15.77Z" fill="#F0F8FF"/>
</svg>
