<svg width="20" height="20" viewBox="0 0 20 20" fill="none" xmlns="http://www.w3.org/2000/svg">
<path fill-rule="evenodd" clip-rule="evenodd" d="M0 10C0 4.47715 4.47715 0 10 0C12.6522 0 15.1957 1.05357 17.0711 2.92893C18.9464 4.8043 20 7.34784 20 10C20 12.6522 18.9464 15.1957 17.0711 17.0711C15.1957 18.9464 12.6522 20 10 20C7.34784 20 4.8043 18.9464 2.92893 17.0711C1.05357 15.1957 0 12.6522 0 10ZM2 10C2 14.4183 5.58172 18 10 18C14.4183 18 18 14.4183 18 10C18 7.87827 17.1571 5.84344 15.6569 4.34315C14.1566 2.84285 12.1217 2 10 2C5.58172 2 2 5.58172 2 10Z" fill="#F0F8FF"/>
<path fill-rule="evenodd" clip-rule="evenodd" d="M12.4879 13.9021C12.8784 14.2926 13.5116 14.2926 13.9021 13.9021C14.2926 13.5115 14.2926 12.8784 13.9021 12.4879L11.6317 10.2175L13.7504 8.09877C14.1409 7.70824 14.1409 7.07508 13.7504 6.68455C13.3599 6.29403 12.7267 6.29403 12.3362 6.68455L10.2175 8.80325L7.94717 6.5329C7.55664 6.14238 6.92348 6.14238 6.53295 6.5329C6.14243 6.92343 6.14243 7.55659 6.53295 7.94712L8.8033 10.2175L6.68456 12.3362C6.29404 12.7267 6.29404 13.3599 6.68456 13.7504C7.07508 14.1409 7.70825 14.1409 8.09877 13.7504L10.2175 11.6317L12.4879 13.9021Z" fill="#F0F8FF"/>
</svg>
