<svg height="24" viewBox="0 0 24 24" width="24" xmlns="http://www.w3.org/2000/svg" xmlns:xlink="http://www.w3.org/1999/xlink"><linearGradient id="a" x1="50%" x2="50%" y1="0%" y2="100%"><stop offset="0" stop-color="#a3a9b0"/><stop offset="1" stop-color="#63686f"/></linearGradient><g fill="none" fill-rule="evenodd"><path d="m0 0h24v24h-24z"/><path d="m12.3725167.42051969c.3526296.39578857 8.6274833 9.80581491 8.6274833 14.61473501 0 4.9424802-4.038083 8.9647453-9 8.9647453-4.96194735 0-9-4.0222651-9-8.9647453 0-4.8089201 8.2748233-14.21894644 8.6274833-14.61473501l.3725167-.42051969zm-3.11299581 6.95093351c-2.34502463 3.1959796-3.75952089 5.9121225-3.75952089 7.2883954 0 3.4501404 2.92805645 6.2466698 6.5 6.2466698 3.5719249 0 6.5-2.7965408 6.5-6.2466698 0-1.3762699-1.4144986-4.0924091-3.7595311-7.28839373-.862498-1.17547632-1.7956255-2.34714697-2.7404755-3.46493652-.944842 1.11777858-1.8779734 2.28945478-2.74047251 3.46493485z" fill="url(#a)" fill-rule="nonzero"/></g></svg>