<svg width="24" height="21" viewBox="0 0 24 21" fill="none" xmlns="http://www.w3.org/2000/svg">
<path fill-rule="evenodd" clip-rule="evenodd" d="M13.5 1.51177C13.5 2.34669 12.8284 3.02353 12 3.02353C11.1716 3.02353 10.5 2.34669 10.5 1.51177C10.5 0.676841 11.1716 0 12 0C12.8284 0 13.5 0.676841 13.5 1.51177ZM3 7.05491C3 7.88984 2.32843 8.56668 1.5 8.56668C0.671573 8.56668 0 7.88984 0 7.05491C0 6.21999 0.671573 5.54315 1.5 5.54315C2.32843 5.54315 3 6.21999 3 7.05491ZM4.2 18.5579C3.87 18.5579 3.6 18.8326 3.6 19.1684V20.3895C3.6 20.7253 3.87 21 4.2 21H19.8C20.13 21 20.4 20.7253 20.4 20.3895V19.1684C20.4 18.8326 20.13 18.5579 19.8 18.5579H4.2ZM22.5 8.56668C23.3284 8.56668 24 7.88984 24 7.05491C24 6.21999 23.3284 5.54315 22.5 5.54315C21.6716 5.54315 21 6.21999 21 7.05491C21 7.88984 21.6716 8.56668 22.5 8.56668ZM17.85 10.5906L20.565 8.93457C20.46 8.70181 22.005 9.99535 21.9113 9.98009L19.2 17.3369H4.8L2.08875 9.98009C1.995 9.99535 3.54 8.70562 3.43875 8.93457L6.15 10.5906C6.72375 10.9417 7.47375 10.7432 7.8075 10.148L10.8638 4.70671C10.4625 4.37092 13.5375 4.37092 13.1363 4.70671L16.1925 10.148C16.5263 10.7432 17.2725 10.9417 17.85 10.5906Z" fill="#F0F8FF"/>
</svg>
