<svg width="15" height="14" viewBox="0 0 15 14" fill="none" xmlns="http://www.w3.org/2000/svg">
<path d="M7.22056 0.679161C7.32616 0.440279 7.67384 0.44028 7.77944 0.679162L9.53999 4.66173C9.58403 4.76137 9.68044 4.8296 9.79133 4.83962L14.2234 5.24007C14.4893 5.26409 14.5967 5.58621 14.3961 5.75787L11.0521 8.61968C10.9684 8.69128 10.9316 8.80169 10.9561 8.90752L11.9348 13.1376C11.9935 13.3913 11.7122 13.5904 11.4826 13.4576L7.65534 11.2437C7.55958 11.1883 7.44042 11.1883 7.34466 11.2437L3.51739 13.4576C3.28783 13.5904 3.00655 13.3913 3.06525 13.1376L4.0439 8.90752C4.06838 8.80169 4.03156 8.69128 3.94789 8.61968L0.603859 5.75787C0.403278 5.58621 0.510717 5.26409 0.776564 5.24007L5.20867 4.83962C5.31956 4.8296 5.41597 4.76137 5.46002 4.66173L7.22056 0.679161Z" fill="url(#paint0_linear_54_495)"/>
<defs>
<linearGradient id="paint0_linear_54_495" x1="9.59091" y1="10.461" x2="7.77719" y2="1.28934" gradientUnits="userSpaceOnUse">
<stop stop-color="#FDC326"/>
<stop offset="1" stop-color="#F8D74D"/>
</linearGradient>
</defs>
</svg>
