<svg width="14" height="16" viewBox="0 0 14 16" fill="none" xmlns="http://www.w3.org/2000/svg">
<path d="M12.3553 0H1.64325C0.743758 0 0.0078125 0.735946 0.0078125 1.63543V12.4293C0.0078125 13.3288 0.743758 14.0647 1.64325 14.0647H10.6927L10.2565 12.6201L11.2923 13.5741L12.2736 14.4736L13.9908 16V1.63543C14.018 0.735946 13.2821 0 12.3553 0C12.3826 0 12.3826 0 12.3553 0ZM9.27528 10.4395C9.27528 10.4395 8.97544 10.0852 8.75739 9.78535C9.32979 9.64906 9.84768 9.32198 10.202 8.83135C9.90219 9.02215 9.60236 9.18569 9.27528 9.29472C8.89367 9.45827 8.51207 9.56729 8.13047 9.64906C7.44904 9.78535 6.74035 9.78535 6.05892 9.64906C5.65006 9.56729 5.26846 9.45827 4.88686 9.29472C4.69606 9.21295 4.50526 9.13118 4.31446 9.02215C4.2872 8.99489 4.25994 8.99489 4.23269 8.99489L4.20543 8.96763C4.06914 8.88586 3.98737 8.83135 3.98737 8.83135C4.34171 9.29472 4.83234 9.62181 5.37749 9.78535C5.13217 10.0852 4.83234 10.4395 4.83234 10.4395C3.06062 10.385 2.37919 9.24021 2.37919 9.24021C2.40645 7.63203 2.78805 6.02385 3.524 4.57922C4.17817 4.06133 4.94137 3.78876 5.75909 3.73424L5.84086 3.84327C4.39623 4.25213 3.74205 4.9063 3.74205 4.9063C3.74205 4.9063 3.9056 4.79728 4.20543 4.66099C4.77783 4.38842 5.37749 4.22487 6.00441 4.1431C6.05892 4.1431 6.08618 4.11585 6.14069 4.11585C6.68584 4.03407 7.23098 4.03407 7.74887 4.08859C8.59384 4.17036 9.41156 4.44293 10.1475 4.85179C9.5751 4.38842 8.89367 4.03407 8.15773 3.84327L8.26676 3.70699C9.08448 3.7615 9.87493 4.03407 10.5019 4.55196C11.2378 5.99659 11.6194 7.60477 11.6467 9.21295C11.7012 9.24021 11.047 10.385 9.27528 10.4395ZM5.56829 6.70528C5.07766 6.67803 4.64154 7.03237 4.61428 7.523C4.58703 8.01363 4.94137 8.44975 5.432 8.477C5.92263 8.50426 6.35875 8.14992 6.38601 7.65929C6.38601 7.63203 6.38601 7.60477 6.38601 7.57751C6.41326 7.11414 6.03166 6.73254 5.56829 6.70528ZM8.48481 6.70528C7.99418 6.67803 7.55807 7.03237 7.53081 7.523C7.50355 8.01363 7.8579 8.44975 8.34853 8.477C8.83916 8.50426 9.27527 8.14992 9.30253 7.65929C9.30253 7.63203 9.30253 7.60477 9.30253 7.57751C9.32979 7.11414 8.94819 6.73254 8.48481 6.70528Z" fill="#F0F8FF" fill-opacity="0.32"/>
</svg>
