<svg height="24" viewBox="0 0 24 24" width="24" xmlns="http://www.w3.org/2000/svg" xmlns:xlink="http://www.w3.org/1999/xlink"><linearGradient id="a" x1="21.875%" x2="78.125%" y1="0%" y2="100%"><stop offset="0" stop-color="#765edb"/><stop offset=".387105306" stop-color="#2b9d7f"/><stop offset="1" stop-color="#43676a"/></linearGradient><g fill="none" fill-rule="evenodd"><path d="m0 0h24v24h-24z"/><path d="m12.3725167.42051969-.3725167-.42051969-.3725167.42051969c-.35266.39578857-8.6274833 9.80581491-8.6274833 14.61473501 0 4.9424802 4.03805265 8.9647453 9 8.9647453 4.961917 0 9-4.0222651 9-8.9647453 0-4.8089201-8.2748537-14.21894644-8.6274833-14.61473501zm-.2483445 9.71965351-.1241722-.1401732-.1241722.1401732c-.1175534.1319296-2.8758278 3.268605-2.8758278 4.8715784 0 1.6474934 1.3460175 2.9882484 3 2.9882484 1.6539723 0 3-1.340755 3-2.9882484 0-1.6029734-2.7582846-4.7396488-2.8758278-4.8715784z" fill="url(#a)"/></g></svg>