<svg height="24" viewBox="0 0 24 24" width="24" xmlns="http://www.w3.org/2000/svg"><g fill="none" fill-rule="evenodd"><path d="m0 0h24v24h-24z"/><path d="m12 2c-5.5228475 0-10 4.4771525-10 10 0 2.6521649 1.0535684 5.195704 2.92893219 7.0710678 1.87536378 1.8753638 4.41890291 2.9289322 7.07106781 2.9289322s5.195704-1.0535684 7.0710678-2.9289322 2.9289322-4.4189029 2.9289322-7.0710678-1.0535684-5.19570403-2.9289322-7.07106781c-1.8753638-1.87536379-4.4189029-2.92893219-7.0710678-2.92893219zm0 2c4.418278 0 8 3.581722 8 8s-3.581722 8-8 8-8-3.581722-8-8 3.581722-8 8-8zm-2.25 3.82c-1.54 0-2.75 1.21-2.75 2.75 0 1.89 1.7 3.43 4.28 5.77l.72.66.72-.66c2.58-2.34 4.28-3.88 4.28-5.77 0-1.54-1.21-2.75-2.75-2.75-.87 0-1.7.41-2.25 1.05-.55-.64-1.38-1.05-2.25-1.05z" fill="#f0f8ff" fill-rule="nonzero"/></g></svg>