<svg width="24" height="24" viewBox="0 0 24 24" fill="none" xmlns="http://www.w3.org/2000/svg">
<path fill-rule="evenodd" clip-rule="evenodd" d="M6 5C5.44772 5 5 5.44772 5 6C5 6.55228 5.44772 7 6 7H9C9.55228 7 10 6.55228 10 6C10 5.44772 9.55228 5 9 5H6ZM11 8C10.4477 8 10 8.44772 10 9C10 9.55228 10.4477 10 11 10H14C14.5523 10 15 9.55228 15 9C15 8.44772 14.5523 8 14 8H11ZM15 12C15 11.4477 15.4477 11 16 11H19C19.5523 11 20 11.4477 20 12C20 12.5523 19.5523 13 19 13H16C15.4477 13 15 12.5523 15 12ZM6 11C5.44772 11 5 11.4477 5 12C5 12.5523 5.44772 13 6 13H9C9.55228 13 10 12.5523 10 12C10 11.4477 9.55228 11 9 11H6ZM10 15C10 14.4477 10.4477 14 11 14H14C14.5523 14 15 14.4477 15 15C15 15.5523 14.5523 16 14 16H11C10.4477 16 10 15.5523 10 15ZM6 17C5.44772 17 5 17.4477 5 18C5 18.5523 5.44772 19 6 19H9C9.55228 19 10 18.5523 10 18C10 17.4477 9.55228 17 9 17H6Z" fill="#F0F8FF"/>
</svg>
