<svg height="24" viewBox="0 0 24 24" width="24" xmlns="http://www.w3.org/2000/svg"><path d="m12 3.5c-4.69286682 0-8.50001968 3.80235033-8.50001968 8.4955321 0 4.6976693 3.80715286 8.5044679 8.49998028 8.5044679 4.6954256 0 8.4993505-3.8068379 8.4993505-8.5044679 0-4.69318177-3.8039249-8.4955321-8.4993111-8.4955321zm.6057102 13.2251659c-.1974157.1756862-.4262055.2639821-.6853851.2639821-.2681548 0-.502062-.0867213-.7017216-.2604787-.1999746-.1734424-.3001587-.4162855-.3001587-.728293 0-.2767758.0969562-.5097382.2902387-.6985331.1932824-.1887948.4303782-.2831923.7116416-.2831923.2767758 0 .5097382.0943975.698848.2831923.1887949.1887949.2835072.4217179.2835072.6985331-.0003543.3075199-.0992393.5491426-.2969701.7247896zm2.4616156-6.1026873c-.1516736.2812634-.3318081.5237916-.5407579.7282931-.2083199.2044621-.5829966.5481191-1.1237938 1.0312859-.1491149.1363213-.2690996.2559911-.3590094.3590094-.0899098.1033727-.157106.1977307-.2009587.2835072-.0441676.0857371-.0780609.1715136-.1020736.2572507-.0240127.0854222-.0601498.236151-.1091199.4514779-.0831784.4569497-.3446018.6853852-.7839553.6853852-.2284748 0-.4204583-.0745574-.5769344-.2239872-.1558463-.1494298-.2335923-.3711732-.2335923-.6655452 0-.3689294.0572762-.6886131.1715136-.9589723.1136076-.2703987.2655961-.5074944.4543909-.7119566.1891098-.2044621.4438018-.4470297.7647452-.728293.2812633-.2460711.4844658-.431638.609568-.5567795.1254171-.1254171.2307186-.2649269.3161408-.4185294.0860914-.1539174.1283301-.32062844.1283301-.50076297 0-.35164812-.1302196-.64794897-.3919579-.88953237-.2614234-.2415834-.5987033-.36255224-1.0118003-.36255224-.4834817 0-.8393025.1219136-1.0677774.36574081-.2284748.24382721-.421403.6028366-.579808 1.07738246-.1497447.49662961-.43325189.74490511-.85020666.74490511-.24607102 0-.45372174-.0867212-.62299151-.2601637-.16895486-.1734425-.25343229-.3612532-.25343229-.56347154 0-.41726969.13407741-.84028667.40191731-1.26873604.26815482-.42844936.65916801-.78332542 1.17335445-1.06427388.5138716-.28126339 1.1138739-.42207223 1.7989441-.42207223.6370842 0 1.1992961.11774091 1.6869505.35294717.4876544.23485198.8645749.55453567 1.1304859.95897234.2655961.40412176.3986933.84347524.3986933 1.3180211.0006259.37282648-.0751912.70018638-.2268648.98144978z" fill="#f0f8ff" fill-rule="evenodd"/></svg>