<?xml version="1.0" encoding="UTF-8" standalone="no"?>
<svg
   xmlns:dc="http://purl.org/dc/elements/1.1/"
   xmlns:cc="http://creativecommons.org/ns#"
   xmlns:rdf="http://www.w3.org/1999/02/22-rdf-syntax-ns#"
   xmlns:svg="http://www.w3.org/2000/svg"
   xmlns="http://www.w3.org/2000/svg"
   xmlns:sodipodi="http://sodipodi.sourceforge.net/DTD/sodipodi-0.dtd"
   xmlns:inkscape="http://www.inkscape.org/namespaces/inkscape"
   inkscape:version="1.0 (4035a4fb49, 2020-05-01)"
   sodipodi:docname="icn-leaderboard-24.svg"
   id="svg4"
   version="1.1"
   fill="none"
   viewBox="0 0 16 16"
   height="16"
   width="16">
  <metadata
     id="metadata10">
    <rdf:RDF>
      <cc:Work
         rdf:about="">
        <dc:format>image/svg+xml</dc:format>
        <dc:type
           rdf:resource="http://purl.org/dc/dcmitype/StillImage" />
      </cc:Work>
    </rdf:RDF>
  </metadata>
  <defs
     id="defs8" />
  <sodipodi:namedview
     inkscape:current-layer="svg4"
     inkscape:window-maximized="0"
     inkscape:window-y="-8"
     inkscape:window-x="-8"
     inkscape:cy="9.9668543"
     inkscape:cx="10.01853"
     inkscape:zoom="22.671611"
     showgrid="false"
     id="namedview6"
     inkscape:window-height="1387"
     inkscape:window-width="1280"
     inkscape:pageshadow="2"
     inkscape:pageopacity="0"
     guidetolerance="10"
     gridtolerance="10"
     objecttolerance="10"
     borderopacity="1"
     bordercolor="#666666"
     pagecolor="#ffffff" />
  <path
     style="stroke-width:0.875"
     id="path2"
     fill="#f0f8ff"
     d="m 6.2058919,1.8749998 c 0,-0.4832494 0.391755,-0.87500002 0.875,-0.87500002 h 1.75 c 0.4832537,0 0.8750002,0.39175062 0.8750002,0.87500002 V 14.125 c 0,0.483263 -0.3917465,0.875 -0.8750002,0.875 h -1.75 c -0.483245,0 -0.875,-0.391737 -0.875,-0.875 z m -5.25000003,4.375 c 0,-0.4832538 0.39175063,-0.875 0.87500003,-0.875 h 1.75 c 0.483245,0 0.875,0.391755 0.875,0.875 V 14.125 c 0,0.483263 -0.391755,0.875 -0.875,0.875 h -1.75 C 1.3476425,15 0.95589187,14.608263 0.95589187,14.125 Z m 11.37500013,0.875 c -0.483262,0 -0.875,0.391755 -0.875,0.875 V 14.125 c 0,0.483263 0.391738,0.875 0.875,0.875 h 1.75 c 0.483263,0 0.875,-0.391737 0.875,-0.875 V 7.9999998 c 0,-0.483245 -0.391737,-0.875 -0.875,-0.875 z"
     clip-rule="evenodd"
     fill-rule="evenodd" />
</svg>
