<svg height="24" viewBox="0 0 24 24" width="24" xmlns="http://www.w3.org/2000/svg"><path d="m22 12.1491667c0-1.2158334-.9933333-2.2041667-2.2141667-2.2041667-.5958333 0-1.1358333.2383333-1.5333333.6216667-1.5083333-.99250003-3.5491667-1.6241667-5.8091667-1.70500003l1.2358334-3.89083334 3.3466666.78416667-.005.04833333c0 .99416667.8125 1.8025 1.8116667 1.8025.9983333 0 1.81-.80833333 1.81-1.8025 0-.99416666-.8125-1.80333333-1.81-1.80333333-.7666667 0-1.42.47833333-1.6841667 1.14916667l-3.6075-.84583334c-.1575-.03833333-.3175.0525-.3666666.2075l-1.3783334 4.33916667c-2.36499997.02833333-4.50749997.665-6.0833333 1.6875-.395-.365-.91916667-.59333333-1.49916667-.59333333-1.22083333 0-2.21333333.98916663-2.21333333 2.20500003 0 .8083333.44416667 1.5091666 1.0975 1.8925-.04333333.235-.07166667.4725-.07166667.7141666 0 3.2591667 4.00666667 5.9108334 8.93249997 5.9108334 4.9258334 0 8.9333334-2.6516667 8.9333334-5.9108334 0-.2283333-.0241667-.4533333-.0625-.675.6933333-.3725 1.1708333-1.0933333 1.1708333-1.9316666zm-14.35333333 1.5133333c0-.7233333.59166666-1.3125 1.31833333-1.3125s1.3175.5891667 1.3175 1.3125-.59083333 1.3116667-1.3175 1.3116667-1.31833333-.5883334-1.31833333-1.3116667zm7.55083333 3.8908333c-.6641667.6608334-1.7066667.9825-3.1866667.9825l-.0108333-.0025-.0108333.0025c-1.4808334 0-2.52333337-.3216666-3.1866667-.9825-.12083333-.12-.12083333-.3158333 0-.4358333.12083333-.1208333.3175-.1208333.43833333 0 .54166667.5391667 1.44083337.8008333 2.74833337.8008333l.0108333.0025.0108333-.0025c1.3075 0 2.2066667-.2625 2.7483334-.8016666.1208333-.1208334.3175-.12.4383333 0 .1208333.1208333.1208333.3158333 0 .4366666zm-.1575-2.5791666c-.7266667 0-1.3175-.5883334-1.3175-1.3116667s.5908333-1.3125 1.3175-1.3125 1.3175.5891667 1.3175 1.3125-.5908333 1.3116667-1.3175 1.3116667z" fill="#f0f8ff"/></svg>