<svg height="24" viewBox="0 0 24 24" width="24" xmlns="http://www.w3.org/2000/svg"><g fill="none" fill-rule="evenodd"><path d="m0 0h24v24h-24z"/><g fill="#18191c" fill-rule="nonzero"><path d="m9 13.75c-.69 0-1.25.56-1.25 1.25s.56 1.25 1.25 1.25 1.25-.56 1.25-1.25-.56-1.25-1.25-1.25zm6 0c-.69 0-1.25.56-1.25 1.25s.56 1.25 1.25 1.25 1.25-.56 1.25-1.25-.56-1.25-1.25-1.25zm-3-9.75c-5.52 0-10 4.48-10 10s4.48 10 10 10 10-4.48 10-10-4.48-10-10-10zm0 18c-4.41 0-8-3.59-8-8 0-.29.02-.58.05-.86 1.03206754-.4591826 1.97042456-1.0866616 2.78161706-1.8473103.21329153-.2000018-1.6545478-.9113442-2.03083581-1.75979384-.4014707-.9052313.68483081-1.95149117.87084961-2.20257359.34229888-.46202444 3.01037744 1.65539364 3.27061106 1.13740162.11442824-.22776809.22047802-.46047966.31775808-.69772389 1.1247676 1.59083151 8.254137-.71629014 10.0953467 0 1.1217042.43637923-3.2111662 4.23-1.9353467 4.23.78 0 1.53-.09 2.25-.26.21.71.33 1.47.33 2.26 0 4.41-3.59 8-8 8z"/><path d="m22.3716 5.610731c-.6776 0-1.5196.19306587-2.676.49545048l-1.7012-4.07033558c-.0948-.45613408-.4652-.84418368-.9908-1.03852813-.4964-.18347649-1.1156-.14288152-1.6204.10132762l-1.2076.58303333c-1.3128.63417661-3.0384.63417661-4.3516 0l-1.2068-.58303333c-.5056-.24420914-1.1248-.28448447-1.6204-.10132762-.526.19434445-.8964.58239405-.9864 1.01807082l-1.706 4.09079289c-1.1564-.30238461-1.9984-.49545048-2.676-.49545048-1.0804 0-1.6284.50663807-1.6284 1.50584981 0 1.9929895 2.1252 3.75199849 5.3456 4.78509269 4.4784 1.2594814 8.9571472 1.3570036 13.3088 0 3.2204-1.0330942 5.3456-2.79210319 5.3456-4.78509269 0-.99921174-.548-1.50584981-1.6284-1.50584981zm-16.60930524 2.10898527.93911118.44700372c1.76821323.89620762 3.56576226 1.35054529 5.34350956 1.35054529 1.7792142 0 3.5488942-.45507106 5.247435-1.34651162l.9468118-.45103739.369264 1.57899756-1.6442697.78289827c-3.2111661 1.6853397-6.59578 1.6886399-9.93932385-.0062339l-1.63143524-.77666437z"/></g></g></svg>