<svg width="40" height="40" viewBox="0 0 40 40" fill="none" xmlns="http://www.w3.org/2000/svg">
<rect width="40" height="40" rx="4" fill="#2AA280"/>
<path d="M29.8569 29.4285C30.3964 29.4285 30.8638 29.2503 31.2612 28.8986L24.4616 22.0988C24.2985 22.2156 24.1404 22.3292 23.991 22.4372C23.4821 22.8121 23.0691 23.1046 22.752 23.3143C22.4349 23.5244 22.0131 23.7386 21.4864 23.9572C20.9595 24.1761 20.4685 24.2852 20.0131 24.2852H19.9997H19.9864C19.5309 24.2852 19.04 24.1762 18.5131 23.9572C17.9861 23.7386 17.5643 23.5244 17.2475 23.3143C16.9304 23.1046 16.5176 22.8121 16.0085 22.4372C15.8666 22.3332 15.7093 22.2191 15.5392 22.0969L8.73828 28.8986C9.13563 29.2503 9.60339 29.4285 10.1428 29.4285H29.8569Z" fill="#F0F8FF"/>
<path d="M9.35282 17.8169C8.84402 17.4777 8.39281 17.0892 8 16.6516V26.997L13.9931 21.0039C12.7942 20.1669 11.2494 19.1058 9.35282 17.8169Z" fill="#F0F8FF"/>
<path d="M30.6612 17.8169C28.837 19.0516 27.2866 20.1146 26.0098 21.0063L32.0004 26.9973V16.6516C31.6164 17.0804 31.17 17.4687 30.6612 17.8169Z" fill="#F0F8FF"/>
<path d="M29.8567 10.5713H10.1427C9.45496 10.5713 8.9262 10.8035 8.55578 11.2675C8.18506 11.7318 8 12.3124 8 13.0086C8 13.571 8.24558 14.1804 8.73652 14.8369C9.22746 15.4932 9.74987 16.0086 10.3035 16.3836C10.607 16.598 11.5222 17.2343 13.0491 18.2921C13.8734 18.8633 14.5902 19.3612 15.2062 19.7908C15.7313 20.1567 16.1841 20.4735 16.558 20.7364C16.6009 20.7665 16.6684 20.8148 16.758 20.8789C16.8545 20.9482 16.9766 21.0362 17.1273 21.145C17.4174 21.3548 17.6585 21.5245 17.8505 21.654C18.0422 21.7837 18.2745 21.9285 18.547 22.0893C18.8193 22.2498 19.0761 22.3706 19.3172 22.4509C19.5582 22.5311 19.7814 22.5714 19.9867 22.5714H20.0001H20.0134C20.2187 22.5714 20.4419 22.5311 20.683 22.4509C20.9241 22.3706 21.1807 22.2501 21.4532 22.0893C21.7254 21.9285 21.9574 21.7834 22.1497 21.654C22.3417 21.5245 22.5828 21.3549 22.873 21.145C23.0233 21.0362 23.1455 20.9482 23.242 20.8791C23.3316 20.8148 23.3991 20.7668 23.4422 20.7364C23.7335 20.5338 24.1874 20.2183 24.7976 19.7946C25.9079 19.0231 27.5431 17.8876 29.7101 16.3836C30.3618 15.9284 30.9063 15.379 31.3439 14.7364C31.7808 14.0937 31.9998 13.4196 31.9998 12.7142C31.9998 12.1249 31.7874 11.6206 31.3637 11.2006C30.9395 10.7811 30.4371 10.5713 29.8567 10.5713Z" fill="#F0F8FF"/>
</svg>
