<svg height="24" viewBox="0 0 24 24" width="24" xmlns="http://www.w3.org/2000/svg"><g fill="none" fill-rule="evenodd"><path d="m0 0h24v24h-24z"/><path d="m9.239714 5.00001948c-.265103.00107097-2.4582222.06348915-4.7718486 1.78742469 0 0-2.4678654 4.45111543-2.4678654 9.93333803 0 0 1.43956498 2.4747075 5.2270562 2.5950073 0 0 .6341022-.756172 1.1482412-1.4092262-2.1765222-.6530553-2.9991404-2.0106695-2.9991404-2.0106695s.171416.1202789.4798996.2921357c.0171378 0 .0342244.0171592.0685004.0343453.0514138.0343708.102844.0515593.154258.0859302.4284492.2405992.8568846.4296657 1.251058.5843374.7026566.2921564 1.542443.5499159 2.5193072.7389584 1.2853472.2405995 2.7934612.3265147 4.4387064.0171727.8054848-.1546708 1.6281588-.3780595 2.4850572-.7389584.5998284-.2234137 1.268185-.5499085 1.970841-1.0139213 0 0-.8568834 1.3920397-3.1019572 2.0279089.5141394.6358684 1.1311162 1.3748139 1.1311162 1.3748139 3.7874908-.1202983 5.2270562-2.5950205 5.2270562-2.5778344 0-5.4822226-2.4678658-9.93333803-2.4678658-9.93333803-2.4507286-1.8388644-4.7986644-1.78729132-4.7986644-1.78729132l-.2398834.27496247c2.9134554.8764681 4.2673232 2.16542353 4.2673232 2.16542353-1.7823492-.96239642-3.5303828-1.44362836-5.1584896-1.63267045-1.2339338-.13748524-2.4164998-.10307337-3.4619152.03441168-.1028274 0-.1884968.01716021-.2913246.03434528-.5998288.06874313-2.0565442.27495344-3.890307 1.08267882-.6341046.2749702-1.0111742.48123467-1.0111742.48123467s1.4053136-1.3577124 4.4901478-2.23418069l-.1713832-.20620531s-.009076-.00020456-.0267496-.00014039zm-.39774907 6.31577002c.99991576 0 1.80687477.8439896 1.78933337 1.8947032 0 1.0507151-.78941761 1.8947705-1.78933337 1.8947705-.98237375 0-1.78933335-.8440554-1.78933335-1.8947705 0-1.0507136.78941719-1.8947032 1.78933335-1.8947032zm6.31592977 0c.9824506 0 1.7894737.8439896 1.7894737 1.8947032 0 1.0507151-.7894787 1.8947705-1.7894737 1.8947705-.9824503 0-1.7894736-.8440554-1.7894736-1.8947705 0-1.0507136.7894791-1.8947032 1.7894736-1.8947032z" fill="#f0f8ff" fill-rule="nonzero"/></g></svg>