<svg width="20" height="20" viewBox="0 0 20 20" fill="none" xmlns="http://www.w3.org/2000/svg">
<path fill-rule="evenodd" clip-rule="evenodd" d="M10 17.2C7.5 17.2 5.29 15.92 4 14C4.03 12 8 10.9 10 10.9C12 10.9 15.97 12 16 14C14.71 15.92 12.5 17.2 10 17.2ZM10 3C11.6569 3 13 4.34315 13 6C13 7.65685 11.6569 9 10 9C8.34315 9 7 7.65685 7 6C7 4.34315 8.34315 3 10 3ZM10 0C4.47715 0 0 4.47715 0 10C0 12.6522 1.05357 15.1957 2.92893 17.0711C4.8043 18.9464 7.34784 20 10 20C12.6522 20 15.1957 18.9464 17.0711 17.0711C18.9464 15.1957 20 12.6522 20 10C20 4.47 15.5 0 10 0Z" fill="#F0F8FF" fill-opacity="0.64"/>
</svg>
