<svg width="16" height="16" viewBox="0 0 16 16" fill="none" xmlns="http://www.w3.org/2000/svg">
<path d="M8.31828 15.3599C4.25953 15.3599 0.957031 12.0586 0.957031 7.99989C0.957031 3.94114 4.25953 0.639893 8.31828 0.639893C10.157 0.639893 11.917 1.32114 13.2758 2.55864L13.5233 2.78489L11.0958 5.21239L10.8708 5.01989C10.1583 4.40989 9.25203 4.07364 8.31828 4.07364C6.15328 4.07364 4.39078 5.83489 4.39078 7.99989C4.39078 10.1649 6.15328 11.9261 8.31828 11.9261C9.87953 11.9261 11.1133 11.1286 11.6945 9.76989H7.99828V6.45614L15.2145 6.46614L15.2683 6.71989C15.6445 8.50614 15.3433 11.1336 13.8183 13.0136C12.5558 14.5699 10.7058 15.3599 8.31828 15.3599Z" fill="#F0F8FF" fill-opacity="0.32"/>
</svg>
