<svg height="24" viewBox="0 0 24 24" width="24" xmlns="http://www.w3.org/2000/svg"><g fill="none" fill-rule="evenodd"><path d="m0 0h24v24h-24z"/><path d="m21.2515556 5.90344444-8.916-3.82044444c-.2564445-.11066667-.5462223-.11066667-.8026667 0l-8.91511112 3.82044444c-.37511111.16044445-.61777778.52888889-.61777778.93644445v11.20844441c0 .4075556.24266667.7764445.61777778.9364445l8.91600002 3.8208889c.1284444.0555555.2644444.0831111.4008889.0831111.1364444 0 .2724444-.0275556.4013333-.0835556l8.916-3.8208889c.3755556-.16.6182222-.5288889.6182222-.9364444v-11.20755557c-.0004444-.40755555-.2435555-.776-.6186666-.93688889zm-7.3826667 5.03733336 5.9626667-2.55555558v7.49599998zm-9.83155557-2.55555558 5.96266667 2.55555558-5.96266667 4.94zm6.87866667 4.44355558v7.4951111l-5.96311111-2.5555556zm1.0186667-8.70133336 6.3293333 2.71288889-6.3293333 2.71244445-6.32977781-2.71288889zm1.0182222 8.70133336 5.9635555 4.9395555-5.9635555 2.5555556z" fill="#f0f8ff" fill-rule="nonzero"/></g></svg>