<svg height="32" viewBox="0 0 32 32" width="32" xmlns="http://www.w3.org/2000/svg"><g fill="none" fill-rule="evenodd"><path d="m0 0h32v32h-32z"/><path d="m26 9c1.1045695 0 2 .8954305 2 2v12c0 1.1045695-.8954305 2-2 2h-20c-1.1045695 0-2-.8954305-2-2v-6h2v6h20v-12h-13v-2zm-2.16 4 .084.0068c.1066667.0181333.192.0725333.256.1632.08.1133333.08.2366667 0 .37l-2.9 5.28v.06h2.16l.0890625.0059375c.1939583.0277083.2909375.1523958.2909375.3740625v1.36l-.006875.076875c-.01375.07375-.048125.138125-.103125.193125-.0733333.0733333-.1633333.11-.27.11h-5.06l-.06875-.0075c-.0675-.015-.13125-.0525-.19125-.1125-.08-.08-.12-.1666667-.12-.26v-.2l2.84-5.24v-.04h-2.28l-.068125-.006875c-.06625-.01375-.126875-.048125-.181875-.103125-.0733333-.0733333-.11-.1633333-.11-.27v-1.38l.00625-.076875c.0125-.07375.04375-.138125.09375-.193125.0666667-.0733333.1533333-.11.26-.11z" fill="#f0f8ff" fill-rule="nonzero"/><path d="m6.22853791 6.6125753v5.8807009c0 .6232878-.46746582 1.1352742-1.07167334 1.205235l-.14170934.0081477c-.67123297 0-1.21338268-.5421497-1.21338268-1.2133827v-5.8807009h-2.18580994c-.55075526 0-.81752734-.66262742-.4388831-1.04127166l3.39058707-3.39058707c.24095543-.24095543.61959967-.24095543.86055509 0l3.39058707 3.39058707c.38724979.38724979.11187216 1.04127166-.43027754 1.03266611z" fill="#336f64"/></g></svg>