<svg height="24" viewBox="0 0 24 24" width="24" xmlns="http://www.w3.org/2000/svg"><g fill="none" fill-rule="evenodd"><path d="m0 0h24v24h-24z"/><path d="m16.36 14c.08-.66.14-1.32.14-2s-.06-1.34-.14-2h3.38c.16.64.26 1.31.26 2s-.1 1.36-.26 2zm-1.77 5.56c.6-1.11 1.06-2.31 1.38-3.56h2.95c-.96 1.65-2.49 2.93-4.33 3.56zm-.25-5.56h-4.68c-.1-.66-.16-1.32-.16-2s.06-1.35.16-2h4.68c.09.65.16 1.32.16 2s-.07 1.34-.16 2zm-2.34 5.96c-.83-1.2-1.5-2.53-1.91-3.96h3.82c-.41 1.43-1.08 2.76-1.91 3.96zm-4-11.96h-2.92c.95-1.66 2.49-2.94 4.32-3.56-.6 1.11-1.05 2.31-1.4 3.56zm-2.92 8h2.92c.35 1.25.8 2.45 1.4 3.56-1.83-.63-3.37-1.91-4.32-3.56zm-.82-2c-.16-.64-.26-1.31-.26-2s.1-1.36.26-2h3.38c-.08.66-.14 1.32-.14 2s.06 1.34.14 2zm7.74-9.97c.83 1.2 1.5 2.54 1.91 3.97h-3.82c.41-1.43 1.08-2.77 1.91-3.97zm6.92 3.97h-2.95c-.32-1.25-.78-2.45-1.38-3.56 1.84.63 3.37 1.9 4.33 3.56zm-6.92-6c-5.53 0-10 4.5-10 10 0 2.6521649 1.0535684 5.195704 2.92893219 7.0710678 1.87536378 1.8753638 4.41890291 2.9289322 7.07106781 2.9289322 5.5228475 0 10-4.4771525 10-10 0-2.6521649-1.0535684-5.19570403-2.9289322-7.07106781-1.8753638-1.87536379-4.4189029-2.92893219-7.0710678-2.92893219z" fill="#f0f8ff" fill-rule="nonzero"/></g></svg>