<svg height="24" viewBox="0 0 24 24" width="24" xmlns="http://www.w3.org/2000/svg"><path d="m5.1345 7.91525c.0225-.22125-.06225-.4395-.22725-.588l-1.68-2.025v-.30225h5.2185l4.0335 8.84625 3.546-8.84625h4.97475v.30225l-1.437 1.37775c-.12375.0945-.18525.24975-.15975.4035v10.1235c-.0255.153.036.30825.15975.40275l1.40325 1.37775v.30225h-7.059v-.30225l1.45425-1.4115c.1425-.1425.1425-.1845.1425-.40275v-8.1825l-4.04175 10.266h-.546l-4.70625-10.266v6.8805c-.039.28875.057.5805.26025.789l1.89075 2.2935v.303h-5.361v-.303l1.89075-2.2935c.2025-.20925.2925-.5025.24375-.789z" fill="#f0f8ff" fill-rule="evenodd"/></svg>