<svg height="24" viewBox="0 0 24 24" width="24" xmlns="http://www.w3.org/2000/svg"><g fill="none" fill-rule="evenodd"><path d="m0 0h24v24h-24z"/><g fill="#f0f8ff"><path d="m12 2c-5.5228475 0-10 4.4771525-10 10 0 2.6521649 1.0535684 5.195704 2.92893219 7.0710678 1.87536378 1.8753638 4.41890291 2.9289322 7.07106781 2.9289322s5.195704-1.0535684 7.0710678-2.9289322 2.9289322-4.4189029 2.9289322-7.0710678-1.0535684-5.19570403-2.9289322-7.07106781c-1.8753638-1.87536379-4.4189029-2.92893219-7.0710678-2.92893219zm0 2c4.418278 0 8 3.581722 8 8s-3.581722 8-8 8-8-3.581722-8-8 3.581722-8 8-8z" fill-rule="nonzero"/><path d="m8.5 16.6718756v-1.5175782h7v1.5175782zm.91979522-3.8496096v-1.3007814h5.16040958v1.3007814zm-.58532423-3.38085965v-1.44140635h6.33703071v1.44140635z"/></g></g></svg>