<svg height="24" viewBox="0 0 24 24" width="24" xmlns="http://www.w3.org/2000/svg"><path d="m7.8 2h8.4c3.2 0 5.8 2.6 5.8 5.8v8.4c0 3.2032515-2.5967485 5.8-5.8 5.8h-8.4c-3.2 0-5.8-2.6-5.8-5.8v-8.4c0-3.20325155 2.59674845-5.8 5.8-5.8zm-.2 2c-1.9882251 0-3.6 1.6117749-3.6 3.6v8.8c0 1.99 1.61 3.6 3.6 3.6h8.8c1.9882251 0 3.6-1.6117749 3.6-3.6v-8.8c0-1.99-1.61-3.6-3.6-3.6zm9.65 1.5c.6903559 0 1.25.55964406 1.25 1.25s-.5596441 1.25-1.25 1.25-1.25-.55964406-1.25-1.25.5596441-1.25 1.25-1.25zm-5.25 1.5c2.7614237 0 5 2.23857625 5 5 0 2.7614237-2.2385763 5-5 5-2.76142375 0-5-2.2385763-5-5 0-2.76142375 2.23857625-5 5-5zm0 2c-1.6568542 0-3 1.3431458-3 3s1.3431458 3 3 3 3-1.3431458 3-3-1.3431458-3-3-3z" fill="#f0f8ff"/></svg>