<svg height="24" viewBox="0 0 24 24" width="24" xmlns="http://www.w3.org/2000/svg"><g fill="none" fill-rule="evenodd"><path d="m0 0h24v24h-24z"/><path d="m16.8696691 10.5-.0322037-.0202079-.1270712-.0521364-.0470748-.0214204.0136404-.0268766.1046107-.1414554.031896-.0594113.1093285-.32171.0102559-.07072771-.0017435-.10174686-.0150762-.22228709-.0372291-.33737117-.0452288-.40476458-.0307679-.29887509-.2357843-.38485978-.1597878.49873139-.0492285.23239105-.0552796.38395042-.0538438.37384646-.0591768.40031884-.1066619.05638009-.038665.03536383-.147378.252599-.011179.0505198.0012307.0532478-.0124097.0058603-.5442834.0292005.0066663-.0251589.0789709-.1453959.0432801-.0454679.0717917-.0782046.1699411-.26694658.0926113-.36515706.1538393-.8144801.0196914-.09992815-.0026666-.08083166-.1318915-.55682916-.089637-.26128836-.2309641-.54015763-.1204049-.44982823-.48244-.58875766-.0575359.01859128-.5402836.19541056-.2416303.11649864-.420494.22168085-.2574244.07456722-.4717739.0732537-.2100419.02384534-.3140373.02465366-.0687149.0028291h-.7138143-.3030634l-.0499465.00737589.2031705 1.31129174-.0013333.10103958-.0438955.2532052.0049229.07153603.3203959 1.15043672-.0461518.03273682-.0307678.04172935-.0764069.24552621.0083074.0593102.0923035.1431731.0110765.0767901-.192812.0436491-.1938375.0070728-.0964059-.0122258-.1030723-.0326358-.0390752-.0154591.0196914-.0249567.0658432-.0654737.0255373-.0404158.0725096-.26684557.0029743-.03819297-.0418443-.40021779-.0277937-.13721176-.1519932-.53682331-.0307678-.09174395-.1457371-.37051216-.0944574.2343108-.0088201.06183623.0154865.29533871.0148711.2419898.028409.39658037.0181531.2726048-.0733301.03829401-.0434852.03768776-.1776331.26209673-.010256.0586029.0268706.0983115.0118969.0498125-.0286141.0062645-.1326095-.0039405h-.0195888l-.2291753.0069717-.16542848.0101039.00758938-.023138.0940471-.1592384.0410238-.0411231.0906627-.1003323.0792785-.12842134.0205119-.03506073-.0307679-.04041584.0669714-.27583806.0102559-.05668321-.0012307-.47488605-.0102559-.09093563-.0623562-.4122415-.023281-.23158273-.0362035-.3813234-.0226657-.24138357-.0074868-.0426387-.28552578-.97806318-.0473825-.05698633-.34936309-.20874778-.05712566-.05739049-.09845715-.1789411-.01856327-.0737589.00071791-.1842962-.01158922-.13478681-.09517525-.51530188-.05538214-.11670072-.30767859-.36566226-.56674396-.64544087-.27506466-.31069673-.05845893-.0513281-.19117096-.12832028-.03712655-.02354222-.10348256.05466241-.41064836.24764803-.18809418.04738756-.14901899.05668321-.1474806.05971439-.00717917.08244831-.03651119.08699508-.06092036.07072771h-.34193347l-.16378757-.04273975-.02994738-.01566113-.02984483-.02515886-.03630607-.05536969-.01723-.06062375-.00656381-.03283787-.00851244-.1546916-.00010256-.09831152.04676714-.17348497.01364042-.03607113.20727281-.39637829.05856149-.07679008.08922679-.09012731.22675912-.2930148.01702488-.0490042-.00092303-.13084626.04604922-.13135146.03466513-.0630487.03856238-.12003503.03845982-.06062375.11347164-.22189416v-.55953979l.31543231.43436297.05445911-.02202663v-.549757l.27670561.48895264.1614287.06080436.17750894.08714486.2007306.1146312.12061001.04193142.03466512.01687361.05989477.03091812.87749933.27199856.2217337.09053147.0876884.02435054.14512173.07133394.26337287.12013607.05692053.05132811.2769107.15832903.0717917.04243663.2871667.1881357.0717917.03031188.3474716.06668613.1262508.0188944.1584545.0296046.3487024.13084626.3384464.14509284.1105592.04041584.3179346.08507533.0629715.00717381.2064523-.00909356.535771-.02414847.1057389-.0145497 1.3210693-.30705929.0820476-.01586322.4271605-.02707861.0684072.00373847.5663337.10043334.0794836.02445158.575359.25209377.3722911.14054606.1861455.25583223.1752742.3254485.056818.32302356.0665612.52904326.042357.64261177.0358959.17540472.0729198.32019444v.0678986l-.0078971.6179581.0078971.05132811v.30069381l-.0113841.03607113-.0043075.05314682-.0268706.19682511-.0362035.14438557-.0398957.13347329-.10779.48307026.0211272.26088421.0347677.42022363.0469723.4142623.0375368.11437681.0189735.05051979-.0876884.04435638-.0598948.05991648-.1019442.22046837-.0052305.079013.0583564.2102633.0056407.0292005-.0300499.0081842-.2511683.0473875-.0319986.010104zm5.8064731 10.8365173-.0316292-.0198474-.1248042-.0512062-.046235-.0210383.0133971-.026397.1027444-.1389318.031327-.0583513.1073779-.3159705.010073-.0694659-.0017124-.0999316-.0148073-.2183214-.0365649-.3313522-.0444218-.3975433-.030219-.293543-.2315778-.3779936-.156937.4898337-.0483503.228245-.0542934.3771005-.0528831.3671768-.0581211.3931769-.104759.0553742-.0379751.0347329-.1447488.2480925-.0109795.0496185.0012087.0522978-.0121883.0057558-.534573.0286795.0065474-.02471.077562-.142802.042508-.0446567.0705108-.0768094.1669093-.2621841.090959-.3586424.1510947-.7999492.0193401-.0981454-.002619-.0793895-.1295385-.546895-.0880378-.2566268-.2268435-.5305208-.1182568-.441803-.473833-.5782539-.0565094.0182596-.5306446.1919243-.2373194.1144203-.4129922.2177259-.2528318.0732369-.463357.0719468-.2062947.0234199-.3084346.0242138-.067489.0027786h-.7010794-.2976565l-.0490554.0072443.1995457 1.2878975-.0013095.0992369-.0431123.2486879.004835.0702598.3146799 1.1299121-.0453284.0321528-.030219.0409849-.0750437.2411458.0081591.0582521.0906569.1406188.0108788.0754201-.189372.0428704-.1903794.0069465-.094686-.0120076-.1012334-.0320536-.0383781-.0151832.0193402-.0245116.0646685-.0643055.0250817-.0396948.071216-.2620848.0029211-.0375116-.0410977-.3930777-.0272978-.1347638-.1492816-.527246-.0302189-.0901072-.143137-.3639019-.0927722.2301305-.0086627.060733.0152102.2900697.0146058.2376725.0279021.3895051.0178292.2677414-.0720218.0376108-.0427094.0370154-.174464.2574207-.010073.0575574.0263912.0965576.0116846.0489238-.0281036.0061527-.1302436-.0038702h-.0192394l-.2250866.0068473-.1624771.0099237.007454-.0227252.0923692-.1563975.0402919-.0403894.0890452-.0985424.0778641-.1261301.020146-.0344353-.030219-.0396948.0657766-.2709169.0100729-.0556719-.0012087-.4664138-.010073-.0893133-.0612437-.4048868-.0228657-.2274512-.0355576-.3745203-.0222613-.2370771-.0073532-.041878-.2804318-.9606139-.0465372-.0559696-.3431302-.2050236-.0561065-.0563666-.0967006-.1757487-.0182321-.072443.0007051-.1810082-.0113825-.1323821-.0934772-.5061086-.0543941-.1146187-.3021894-.3591386-.5566329-.6339258-.2701573-.3051537-.057416-.0504123-.1877603-.126031-.0364642-.0231222-.1016364.0536872-.4033221.2432298-.1847384.0465422-.1463604.0556719-.1448495.058649-.0070511.0809774-.0358598.085443-.0598335.0694659h-.3358331l-.1608655-.0419772-.0294131-.0153817-.0293124-.0247101-.0356583-.0543818-.0169226-.0595422-.0064467-.032252-.0083606-.1519318-.0001007-.0965576.0459327-.1703899.0133971-.0354276.2035749-.3893066.0575167-.0754201.087635-.0885194.2227136-.2877872.0167211-.0481299-.0009066-.1285119.0452277-.1290081.0340467-.0619238.0378744-.1178936.0377737-.0595421.1114472-.2179355v-.5495572l.3098048.4266137.0534875-.0216337v-.539949l.271769.4802294.1585487.0597196.1743421.0855901.1971494.1125861.1184582.0411834.0340467.0165725.0588262.0303666.8618442.2671459.2177778.0889163.086124.0239161.1425326.0700613.2586742.1179928.055905.0504124.2719705.1555043.0705108.0416795.2820435.1847793.0705108.0297711.3412726.0654964.1239983.0185573.1556276.0290764.3424813.1285119.3324083.1425043.1085868.0396948.3122623.0835575.0618481.0070458.2027691-.0089313.5262125-.0237176.1038524-.0142902 1.2975005-.3015811.0805839-.0155802.4195396-.0265955.0671868.0036717.5562299.0986416.0780656.0240153.5650942.2475963.3656491.1380386.1828246.251268.1721473.3196423.0558043.3172606.0653736.5196048.0416014.6311471.0352554.1722754.0716189.314482v.0666872l-.0077562.6069333.0077562.0504124v.2953292l-.011181.0354276-.0042306.0521987-.0263912.1933136-.0355577.1418096-.0391839.1310921-.105867.4744519.0207504.2562299.0341474.4127265.0461342.4068716.0368671.1123363.018635.0496185-.0861239.043565-.0588262.0588475-.1001255.2165351-.0051372.0776033.0573153.2065121.0055401.0286795-.0295138.0080382-.2466873.0465422-.0314277.0099236zm-12 0-.0316292-.0198474-.1248042-.0512062-.046235-.0210383.0133971-.026397.1027444-.1389318.031327-.0583513.1073779-.3159705.010073-.0694659-.0017124-.0999316-.0148073-.2183214-.0365649-.3313522-.0444218-.3975433-.030219-.293543-.2315778-.3779936-.156937.4898337-.0483503.228245-.0542934.3771005-.0528831.3671768-.0581211.3931769-.10475901.0553742-.03797514.0347329-.14474872.2480925-.01097955.0496185.00120876.0522978-.0121883.0057558-.53457304.0286795.00654743-.02471.07756195-.142802.04250797-.0446567.07051086-.0768094.16690928-.2621841.09095901-.3586424.15109469-.7999492.01934012-.0981454-.00261897-.0793895-.12953852-.546895-.08803785-.2566268-.2268435-.5305208-.11825678-.441803-.47383298-.5782539-.05650941.0182596-.53064458.1919243-.23731941.1144203-.41299217.2177259-.25283179.0732369-.46335708.0719468-.20629462.0234199-.30843465.0242138-.06748896.0027786h-.7010794-.29765655l-.04905542.0072443.19954573 1.2878975-.00130948.0992369-.04311236.2486879.00483503.0702598.31467989 1.1299121-.04532841.0321528-.03021893.0409849-.0750437.2411458.00815911.0582521.09065682.1406188.01087882.0754201-.18937203.0428704-.19037931.0069465-.09468601-.0120076-.10123345-.0320536-.03837806-.0151832.01934013-.0245116.06466853-.0643055.02508172-.0396948.07121596-.2620848.00292117-.0375116-.04109776-.3930777-.02729778-.1347638-.14928156-.527246-.03021894-.0901072-.14313704-.3639019-.09277214.2301305-.00866277.060733.0152102.2900697.01460582.2376725.02790216.3895051.01782917.2677414-.0720218.0376108-.04270944.0370154-.17446401.2574207-.01007298.0575574.02639121.0965576.01168465.0489238-.02810361.0061527-.13024363-.0038702h-.01923939l-.22508657.0068473-.16247716.0099237.007454-.0227252.09236923-.1563975.04029192-.0403894.08904514-.0985424.07786413-.1261301.02014596-.0344353-.03021894-.0396948.06577656-.2709169.01007298-.0556719-.00120876-.4664138-.01007298-.0893133-.06124372-.4048868-.02286566-.2274512-.03555762-.3745203-.02226128-.2370771-.00735328-.041878-.28043176-.9606139-.04653716-.0559696-.34313023-.2050236-.0561065-.0563666-.0967006-.1757487-.0182321-.072443.00070511-.1810082-.01138246-.1323821-.09347726-.5061086-.05439409-.1146187-.30218939-.3591386-.55663287-.6339258-.27015732-.3051537-.05741598-.0504123-.18776035-.126031-.03646419-.0231222-.10163636.0536872-.40332212.2432298-.18473845.0465422-.14636039.0556719-.14484945.058649-.00705109.0809774-.03585981.085443-.0598335.0694659h-.33583315l-.16086548-.0419772-.0294131-.0153817-.02931238-.0247101-.03565835-.0543818-.0169226-.0595422-.00644671-.032252-.00836057-.1519318-.00010073-.0965576.04593279-.1703899.01339706-.0354276.20357492-.3893066.05751672-.0754201.08763492-.0885194.22271359-.2877872.01672114-.0481299-.00090656-.1285119.04522767-.1290081.03404668-.0619238.0378744-.1178936.03777368-.0595421.11144723-.2179355v-.5495572l.30980478.4266137.05348752-.0216337v-.539949l.271769.4802294.1585487.0597196.17434207.0855901.19714943.1125861.11845824.0411834.03404668.0165725.0588262.0303666.86184415.2671459.21777783.0889163.08612397.0239161.14253267.0700613.25867412.1179928.05590504.0504124.27197046.1555043.07051086.0416795.28204343.1847793.07051086.0297711.34127256.0654964.12399838.0185573.15562754.0290764.34248131.1285119.33240834.1425043.10858672.0396948.31226237.0835575.0618481.0070458.20276909-.0089313.52621246-.0237176.10385242-.0142902 1.29750054-.3015811.08058384-.0155802.41953961-.0265955.06718677.0036717.55622995.0986416.07806559.0240153.5650942.2475963.3656491.1380386.1828246.251268.1721473.3196423.0558043.3172606.0653736.5196048.0416014.6311471.0352554.1722754.0716189.314482v.0666872l-.0077562.6069333.0077562.0504124v.2953292l-.011181.0354276-.0042306.0521987-.0263912.1933136-.0355577.1418096-.0391839.1310921-.105867.4744519.0207504.2562299.0341474.4127265.0461342.4068716.0368671.1123363.018635.0496185-.0861239.043565-.0588262.0588475-.1001255.2165351-.0051372.0776033.0573153.2065121.0055401.0286795-.0295138.0080382-.2466873.0465422-.0314277.0099236z" fill="#f0f8ff" fill-rule="nonzero"/></g></svg>