<svg width="18" height="20" viewBox="0 0 18 20" fill="none" xmlns="http://www.w3.org/2000/svg">
<path d="M17.1632 14.152C16.4085 13.341 14.9964 12.1211 14.9964 8.125C14.9964 5.08984 12.8683 2.66016 9.99875 2.06406V1.25C9.99875 0.559766 9.43938 0 8.74953 0C8.05969 0 7.50032 0.559766 7.50032 1.25V2.06406C4.63079 2.66016 2.50266 5.08984 2.50266 8.125C2.50266 12.1211 1.09055 13.341 0.335867 14.152C0.101492 14.4039 -0.0024144 14.7051 -0.000461274 15C0.0038356 15.6406 0.50657 16.25 1.25344 16.25H16.2456C16.9925 16.25 17.4956 15.6406 17.4995 15C17.5015 14.7051 17.3976 14.4035 17.1632 14.152ZM2.63743 14.375C3.46633 13.2824 4.37258 11.4715 4.37688 8.14766C4.37688 8.13984 4.37454 8.13281 4.37454 8.125C4.37454 5.70859 6.33313 3.75 8.74953 3.75C11.1659 3.75 13.1245 5.70859 13.1245 8.125C13.1245 8.13281 13.1222 8.13984 13.1222 8.14766C13.1265 11.4719 14.0327 13.2828 14.8616 14.375H2.63743ZM8.74953 20C10.1292 20 11.2484 18.8809 11.2484 17.5H6.25071C6.25071 18.8809 7.36985 20 8.74953 20Z" fill="#F0F8FF"/>
</svg>
