<svg width="8" height="8" viewBox="0 0 8 8" fill="none" xmlns="http://www.w3.org/2000/svg">
<mask id="path-1-inside-1_92_14636" fill="white">
<path fill-rule="evenodd" clip-rule="evenodd" d="M4 8C6.20914 8 8 6.20914 8 4C8 1.79086 6.20914 0 4 0C1.79086 0 0 1.79086 0 4C0 6.20914 1.79086 8 4 8ZM2.15906 2.62284C1.42647 3.47753 1.42647 4.73872 2.15906 5.59341C3.06991 6.65607 4.71389 6.65607 5.62473 5.59341C6.35733 4.73872 6.35732 3.47753 5.62473 2.62284C4.71389 1.56018 3.06991 1.56018 2.15906 2.62284ZM3.14404 3.46711C3.53715 3.00849 4.24665 3.00849 4.63975 3.46711C4.95592 3.83597 4.95592 4.38028 4.63975 4.74914C4.24665 5.20776 3.53715 5.20776 3.14404 4.74914C2.82787 4.38028 2.82787 3.83597 3.14404 3.46711Z"/>
</mask>
<path fill-rule="evenodd" clip-rule="evenodd" d="M4 8C6.20914 8 8 6.20914 8 4C8 1.79086 6.20914 0 4 0C1.79086 0 0 1.79086 0 4C0 6.20914 1.79086 8 4 8ZM2.15906 2.62284C1.42647 3.47753 1.42647 4.73872 2.15906 5.59341C3.06991 6.65607 4.71389 6.65607 5.62473 5.59341C6.35733 4.73872 6.35732 3.47753 5.62473 2.62284C4.71389 1.56018 3.06991 1.56018 2.15906 2.62284ZM3.14404 3.46711C3.53715 3.00849 4.24665 3.00849 4.63975 3.46711C4.95592 3.83597 4.95592 4.38028 4.63975 4.74914C4.24665 5.20776 3.53715 5.20776 3.14404 4.74914C2.82787 4.38028 2.82787 3.83597 3.14404 3.46711Z" fill="#27B18A"/>
<path d="M2.15906 5.59341L3.29795 4.61723L2.15906 5.59341ZM2.15906 2.62284L1.02018 1.64665L1.02018 1.64665L2.15906 2.62284ZM5.62473 5.59341L4.48585 4.61723L5.62473 5.59341ZM5.62473 2.62284L6.76362 1.64665V1.64665L5.62473 2.62284ZM4.63975 3.46711L3.50087 4.44329L3.50087 4.4433L4.63975 3.46711ZM3.14404 3.46711L4.28293 4.4433L4.28293 4.44329L3.14404 3.46711ZM4.63975 4.74914L3.50087 3.77296L3.50087 3.77296L4.63975 4.74914ZM3.14404 4.74914L2.00516 5.72533L2.00516 5.72533L3.14404 4.74914ZM6.5 4C6.5 5.38071 5.38071 6.5 4 6.5V9.5C7.03757 9.5 9.5 7.03757 9.5 4H6.5ZM4 1.5C5.38071 1.5 6.5 2.61929 6.5 4H9.5C9.5 0.962434 7.03757 -1.5 4 -1.5V1.5ZM1.5 4C1.5 2.61929 2.61929 1.5 4 1.5V-1.5C0.962434 -1.5 -1.5 0.962434 -1.5 4H1.5ZM4 6.5C2.61929 6.5 1.5 5.38071 1.5 4H-1.5C-1.5 7.03757 0.962434 9.5 4 9.5V6.5ZM3.29795 4.61723C3.04684 4.32427 3.04684 3.89198 3.29795 3.59902L1.02018 1.64665C-0.1939 3.06308 -0.1939 5.15318 1.02018 6.5696L3.29795 4.61723ZM4.48585 4.61723C4.17364 4.98146 3.61015 4.98146 3.29795 4.61723L1.02018 6.5696C2.52967 8.33067 5.25413 8.33067 6.76362 6.5696L4.48585 4.61723ZM4.48585 3.59902C4.73695 3.89198 4.73695 4.32427 4.48585 4.61723L6.76362 6.5696C7.9777 5.15317 7.9777 3.06308 6.76362 1.64665L4.48585 3.59902ZM3.29795 3.59903C3.61015 3.23479 4.17364 3.23479 4.48585 3.59903L6.76362 1.64665C5.25413 -0.114422 2.52967 -0.114422 1.02018 1.64665L3.29795 3.59903ZM5.77864 2.49092C4.78689 1.33388 2.9969 1.33388 2.00516 2.49092L4.28293 4.44329C4.07739 4.68309 3.70641 4.68309 3.50087 4.44329L5.77864 2.49092ZM5.77864 5.72533C6.57629 4.79473 6.57629 3.42152 5.77864 2.49092L3.50087 4.4433C3.33555 4.25043 3.33555 3.96582 3.50087 3.77296L5.77864 5.72533ZM2.00516 5.72533C2.99691 6.88237 4.78689 6.88237 5.77864 5.72533L3.50087 3.77296C3.70641 3.53316 4.07739 3.53316 4.28293 3.77296L2.00516 5.72533ZM2.00516 2.49092C1.2075 3.42152 1.2075 4.79473 2.00516 5.72533L4.28293 3.77296C4.44824 3.96582 4.44825 4.25042 4.28293 4.4433L2.00516 2.49092Z" fill="#27B18A" mask="url(#path-1-inside-1_92_14636)"/>
</svg>
