<svg height="24" viewBox="0 0 24 24" width="24" xmlns="http://www.w3.org/2000/svg"><g fill="none" fill-rule="evenodd"><path d="m0 0h24v24h-24z"/><path d="m19.5118603 9.96407378c0-.61522329-.1185225-1.31559966-.3225225-1.55559966-.1661539-.22153846-1.7836332-.42507621-2.0037275-.48887175-1.0470699-.30349901-1.7084716-.47196453-3.26011-1.96098589-1.2149794-1.16594844-1.4095003-3.30015494-.6525772-5.88477033-.4236923-.04615384-.8575385-.07384615-1.2729231-.07384615-6.61846154 0-12 5.38153846-12 12 0 6.6184615 5.38153846 12 12 12 5.6584615 0 10.5784615-4.0523077 11.7323077-9.5353846-3.5411878-1.593338-4.2204474-2.2494265-4.2204474-4.50054162zm-15.6776553 4.14054162c-.76274098 0-1.38805115-.624623-1.38805115-1.3880512 0-.7634281.62462302-1.3811796 1.38805115-1.3811796.76342814 0 1.38117962.6177515 1.38117962 1.3811796 0 .7634282-.61843864 1.3880512-1.38117962 1.3880512zm3.26425654-6.96000002c0-1.02461538.83907692-1.86553846 1.86461538-1.86553846s1.85538458.84 1.85538458 1.86553846c0 1.02369231-.82984612 1.85538462-1.85538458 1.85538462s-1.86461538-.83076923-1.86461538-1.85538462zm3.35999996 8.52923082c-1.02461535 0-1.85538458-.8307693-1.85538458-1.8563077 0-1.0236923.82984616-1.8646154 1.85538458-1.8646154 1.0338462 0 1.8646154.84 1.8646154 1.8646154 0 1.0255384-.8307692 1.8563077-1.8646154 1.8563077zm1.9117997 4.6523076c-.7704314 0-1.3957997-.6313846-1.3957997-1.4030769s.6246742-1.4030769 1.3957997-1.4030769c.7697374 0 1.4020465.6313846 1.4020465 1.4030769s-.631615 1.4030769-1.4020465 1.4030769zm6.0174311-1.8923076c-1.0246154 0-1.8553846-.84-1.8553846-1.8646154s.8298461-1.8553846 1.8553846-1.8553846 1.8655385.8298461 1.8655385 1.8553846c-.0009231 1.0246154-.8409231 1.8646154-1.8655385 1.8646154z" fill="#f0f8ff"/></g></svg>