<svg height="32" viewBox="0 0 32 32" width="32" xmlns="http://www.w3.org/2000/svg" xmlns:xlink="http://www.w3.org/1999/xlink"><linearGradient id="a" x1="49.993751%" x2="49.993751%" y1="0%" y2="100%"><stop offset="0" stop-color="#0ed4fc"/><stop offset="1" stop-color="#0c57ef"/></linearGradient><g fill="none"><path d="m25.5328084 0h-19.0696163c-3.57155355 0-6.4631921 2.892-6.4631921 6.464v19.076c0 3.568 2.89163855 6.46 6.4631921 6.46h19.0736158c3.5675541 0 6.4631921-2.892 6.4631921-6.464v-19.072c-.0039995-3.572-2.895638-6.464-6.4671916-6.464z" fill="url(#a)"/><path d="m15.8441948 7.34282147.647191-1.11860174c.3995006-.6991261 1.290387-.93483147 1.9895131-.53533084.6991261.39950062.9348314 1.29038702.5353308 1.98951311l-6.2362047 10.7945069h4.510362c1.4621723 0 2.2811486 1.7178526 1.6459426 2.9083645h-13.22347067c-.80699126 0-1.45418228-.647191-1.45418228-1.4541823 0-.8069912.64719102-1.4541822 1.45418228-1.4541822h3.70736579l4.74606738-8.2257179-1.4821473-2.57278401c-.3995006-.69912609-.1637952-1.58202247.5353309-1.98951311.699126-.39950062 1.5820224-.16379525 1.9895131.53533084zm-5.6089888 15.53657923-1.39825219 2.4249688c-.39950063.6991261-1.29038702.9348315-1.98951311.5353309s-.93483146-1.290387-.53533084-1.9895131l1.03870163-1.7977528c1.17453183-.3635456 2.12933832-.0838952 2.88439451.8269662zm12.0409488-4.3985018h3.7832709c.8069913 0 1.4541823.647191 1.4541823 1.4541822 0 .8069913-.647191 1.4541823-1.4541823 1.4541823h-2.1013733l1.4182273 2.4609239c.3995006.6991261.1637952 1.5820224-.5353309 1.9895131-.6991261.3995006-1.5820225.1637952-1.9895131-.5353309-2.3890137-4.1428214-4.1827715-7.2429463-5.3732834-9.3083645-1.2184769-2.1013733-.3475655-4.2107366.5113608-4.9258427.9548065 1.6379526 2.3810237 4.1108614 4.2866417 7.4107366z" fill="#fff"/></g></svg>