<svg width="20" height="20" viewBox="0 0 20 20" fill="none" xmlns="http://www.w3.org/2000/svg">
<path d="M6 1V0H5.58579L5.29289 0.292893L6 1ZM14 1L14.7071 0.292893L14.4142 0H14V1ZM1 6L0.292893 5.29289L0 5.58579V6H1ZM1 14H0V14.4142L0.292893 14.7071L1 14ZM6 19L5.29289 19.7071L5.58579 20H6V19ZM14 19V20H14.4142L14.7071 19.7071L14 19ZM19 14L19.7071 14.7071L20 14.4142V14L19 14ZM19 6L20 6V5.58579L19.7071 5.2929L19 6ZM9 5V11H11V5H9ZM9 13V15H11V13H9ZM6 2H14V0H6V2ZM1.70711 6.70711L6.70711 1.70711L5.29289 0.292893L0.292893 5.29289L1.70711 6.70711ZM2 14V6H0V14H2ZM0.292893 14.7071L5.29289 19.7071L6.70711 18.2929L1.70711 13.2929L0.292893 14.7071ZM6 20L14 20V18L6 18V20ZM20 14L20 6L18 6L18 14L20 14ZM14.7071 19.7071L19.7071 14.7071L18.2929 13.2929L13.2929 18.2929L14.7071 19.7071ZM13.2929 1.70711L18.2929 6.70711L19.7071 5.2929L14.7071 0.292893L13.2929 1.70711Z" fill="#E32636"/>
</svg>
