<svg width="46" height="46" viewBox="0 0 46 46" fill="none" xmlns="http://www.w3.org/2000/svg">
<circle cx="23" cy="23" r="22" fill="#786646" fill-opacity="0.5" stroke="#F0F8FF" stroke-width="2"/>
<path d="M34.0139 16.0055H15.2489L14.9699 12.8977C14.9243 12.3894 14.4984 12 13.9882 12H11.9856C11.4413 12 11 12.4413 11 12.9858C11 13.5302 11.4413 13.9715 11.9856 13.9715H13.0871C13.6891 20.6787 12.1333 3.34326 14.2207 26.603C14.3012 27.5134 14.793 28.5013 15.6403 29.1726C14.1127 31.1236 15.5085 34 17.9933 34C20.0558 34 21.5104 31.9427 20.8032 29.9943H26.1977C25.4913 31.9402 26.9428 34 29.0075 34C30.6552 34 31.9957 32.6593 31.9957 31.0114C31.9957 29.3634 30.6552 28.0227 29.0075 28.0227H18C17.2513 28.0227 16.5988 27.571 16.3172 26.9127L32.0691 25.9869C32.4991 25.9616 32.8629 25.6599 32.9674 25.2419L34.9702 17.2304C35.1254 16.6092 34.6552 16.0055 34.0139 16.0055ZM17.9933 32.0285C17.4327 32.0285 16.9764 31.5722 16.9764 31.0114C16.9764 30.4506 17.4327 29.9943 17.9933 29.9943C18.5541 29.9943 19.0103 30.4506 19.0103 31.0114C19.0103 31.5722 18.5541 32.0285 17.9933 32.0285ZM29.0075 32.0285C28.4467 32.0285 27.9905 31.5722 27.9905 31.0114C27.9905 30.4506 28.4467 29.9943 29.0075 29.9943C29.5682 29.9943 30.0244 30.4506 30.0244 31.0114C30.0244 31.5722 29.5682 32.0285 29.0075 32.0285ZM31.2306 24.0612L16.0519 24.9534L15.4258 17.977H32.7515L31.2306 24.0612Z" fill="#F0F8FF"/>
</svg>
