<svg width="20" height="20" viewBox="0 0 20 20" fill="none" xmlns="http://www.w3.org/2000/svg">
<path fill-rule="evenodd" clip-rule="evenodd" d="M4.16667 8.33334C3.24667 8.33334 2.5 9.08001 2.5 10C2.5 10.92 3.24667 11.6667 4.16667 11.6667C5.08667 11.6667 5.83333 10.92 5.83333 10C5.83333 9.08001 5.08667 8.33334 4.16667 8.33334ZM10 8.33334C9.08 8.33334 8.33333 9.08001 8.33333 10C8.33333 10.92 9.08 11.6667 10 11.6667C10.92 11.6667 11.6667 10.92 11.6667 10C11.6667 9.08001 10.92 8.33334 10 8.33334ZM14.1667 10C14.1667 9.08001 14.9133 8.33334 15.8333 8.33334C16.7533 8.33334 17.5 9.08001 17.5 10C17.5 10.92 16.7533 11.6667 15.8333 11.6667C14.9133 11.6667 14.1667 10.92 14.1667 10Z" fill="#F0F8FF" fill-opacity="0.64"/>
</svg>
