<svg width="40" height="44" viewBox="0 0 40 44" fill="none" xmlns="http://www.w3.org/2000/svg">
<g filter="url(#filter0_d)">
<g filter="url(#filter1_d)">
<path d="M25.3427 21.6317L25.8595 20.0973L19.2766 17.7414L25.8595 24.6193L20.6884 29.7845C19.9082 30.5638 18.6444 30.5646 17.8632 29.7862L9 20.9537C9.32114 19.9189 9.74934 18.9198 10.2489 17.992C11.4621 15.8868 13.2462 14.1026 15.3515 12.8894C16.5291 12.2114 17.8493 11.6762 19.2409 11.3907V9L30.3383 20.0973L27.8762 22.5594L25.3427 21.6317Z" fill="url(#paint0_radial)"/>
<path d="M25.3427 21.6317L25.8595 20.0973L19.2766 17.7414L25.8595 24.6193L20.6884 29.7845C19.9082 30.5638 18.6444 30.5646 17.8632 29.7862L9 20.9537C9.32114 19.9189 9.74934 18.9198 10.2489 17.992C11.4621 15.8868 13.2462 14.1026 15.3515 12.8894C16.5291 12.2114 17.8493 11.6762 19.2409 11.3907V9L30.3383 20.0973L27.8762 22.5594L25.3427 21.6317Z" fill="url(#paint1_radial)" fill-opacity="0.5"/>
</g>
</g>
<defs>
<filter id="filter0_d" x="-8" y="-4" width="56" height="56" filterUnits="userSpaceOnUse" color-interpolation-filters="sRGB">
<feFlood flood-opacity="0" result="BackgroundImageFix"/>
<feColorMatrix in="SourceAlpha" type="matrix" values="0 0 0 0 0 0 0 0 0 0 0 0 0 0 0 0 0 0 127 0"/>
<feOffset dy="4"/>
<feGaussianBlur stdDeviation="4"/>
<feColorMatrix type="matrix" values="0 0 0 0 0 0 0 0 0 0 0 0 0 0 0 0 0 0 0.12 0"/>
<feBlend mode="normal" in2="BackgroundImageFix" result="effect1_dropShadow"/>
<feBlend mode="normal" in="SourceGraphic" in2="effect1_dropShadow" result="shape"/>
</filter>
<filter id="filter1_d" x="5" y="5" width="29.3383" height="29.3695" filterUnits="userSpaceOnUse" color-interpolation-filters="sRGB">
<feFlood flood-opacity="0" result="BackgroundImageFix"/>
<feColorMatrix in="SourceAlpha" type="matrix" values="0 0 0 0 0 0 0 0 0 0 0 0 0 0 0 0 0 0 127 0"/>
<feOffset/>
<feGaussianBlur stdDeviation="2"/>
<feColorMatrix type="matrix" values="0 0 0 0 0 0 0 0 0 0 0 0 0 0 0 0 0 0 0.24 0"/>
<feBlend mode="normal" in2="BackgroundImageFix" result="effect1_dropShadow"/>
<feBlend mode="normal" in="SourceGraphic" in2="effect1_dropShadow" result="shape"/>
</filter>
<radialGradient id="paint0_radial" cx="0" cy="0" r="1" gradientUnits="userSpaceOnUse" gradientTransform="translate(30.3383 31.1947) rotate(-133.873) scale(30.7884 30.7646)">
<stop stop-color="#A63A60"/>
<stop offset="1" stop-color="#912559"/>
</radialGradient>
<radialGradient id="paint1_radial" cx="0" cy="0" r="1" gradientUnits="userSpaceOnUse" gradientTransform="translate(15.5015 12.2945) rotate(53.8949) scale(12.4477 12.3766)">
<stop stop-color="white" stop-opacity="0.8"/>
<stop offset="1" stop-color="white" stop-opacity="0"/>
</radialGradient>
</defs>
</svg>
