<svg width="22" height="16" viewBox="0 0 22 16" fill="none" xmlns="http://www.w3.org/2000/svg">
<path fill-rule="evenodd" clip-rule="evenodd" d="M22 8C22 3.58172 18.4183 0 14 0C9.58172 0 6 3.58172 6 8C6 12.4183 9.58172 16 14 16C18.4183 16 22 12.4183 22 8ZM20 8C20 11.3137 17.3137 14 14 14C10.6863 14 8 11.3137 8 8C8 4.68629 10.6863 2 14 2C17.3137 2 20 4.68629 20 8ZM2 8C2 10.61 3.67 12.83 6 13.65V15.74C2.55 14.85 0 11.73 0 8C0 4.27 2.55 1.15 6 0.26V2.35C3.67 3.17 2 5.39 2 8ZM14.8401 4.93823V7.69117H16.1608C16.9047 7.69117 17.2808 8.70446 16.7542 9.29554L14.5893 11.7256C14.2633 12.0915 13.7367 12.0915 13.4107 11.7256L11.2458 9.29554C10.7192 8.70446 11.0953 7.69117 11.8392 7.69117H13.1683V4.93823C13.1683 4.4222 13.5444 4 14.0042 4C14.4639 4 14.8401 4.4222 14.8401 4.93823Z" fill="#F0F8FF" fill-opacity="0.64"/>
</svg>
