<svg width="20" height="20" viewBox="0 0 20 20" fill="none" xmlns="http://www.w3.org/2000/svg">
<path d="M4 1V0H3.58579L3.29289 0.292893L4 1ZM16 1L16.7071 0.292894L16.4142 0H16V1ZM1 4L0.292893 3.29289L0 3.58579V4H1ZM1 16H0V16.4142L0.292893 16.7071L1 16ZM4 19L3.29289 19.7071L3.58579 20H4L4 19ZM16 19V20H16.4142L16.7071 19.7071L16 19ZM19 16L19.7071 16.7071L20 16.4142V16H19ZM19 4L20 4V3.58579L19.7071 3.2929L19 4ZM9 9V15H11V9H9ZM9 5V7H11V5H9ZM4 2H16V0H4V2ZM1.70711 4.70711L4.70711 1.70711L3.29289 0.292893L0.292893 3.29289L1.70711 4.70711ZM2 16V4H0V16H2ZM0.292893 16.7071L3.29289 19.7071L4.70711 18.2929L1.70711 15.2929L0.292893 16.7071ZM4 20L16 20V18L4 18L4 20ZM20 16L20 4L18 4L18 16H20ZM16.7071 19.7071L19.7071 16.7071L18.2929 15.2929L15.2929 18.2929L16.7071 19.7071ZM15.2929 1.70711L18.2929 4.70711L19.7071 3.2929L16.7071 0.292894L15.2929 1.70711Z" fill="#469EF1"/>
</svg>
