<svg width="18" height="14" viewBox="0 0 18 14" fill="none" xmlns="http://www.w3.org/2000/svg">
<path fill-rule="evenodd" clip-rule="evenodd" d="M4.61258 2.77146L9.49328 2.77146C10.1166 2.77146 10.6286 3.23893 10.6985 3.84314L10.7067 3.98484C10.7067 4.65608 10.1645 5.19823 9.49328 5.19823H4.61258V7.38404C4.61258 7.93479 3.94995 8.20156 3.5713 7.82292L0.180717 4.43233C-0.0602389 4.19138 -0.0602389 3.81273 0.180717 3.57178L3.5713 0.181191C3.95855 -0.206059 4.61258 0.0693192 4.60397 0.611469L4.61258 2.77146Z" fill="#F0F8FF"/>
<path fill-rule="evenodd" clip-rule="evenodd" d="M12.7712 8.07981H7.89051C7.26722 8.07981 6.75524 8.54728 6.68528 9.15148L6.67713 9.29319C6.67713 9.96443 7.21928 10.5066 7.89051 10.5066H12.7712V12.6924C12.7712 13.2431 13.4338 13.5099 13.8125 13.1313L17.2031 9.74068C17.444 9.49973 17.444 9.12108 17.2031 8.88013L13.8125 5.48954C13.4252 5.10229 12.7712 5.37767 12.7798 5.91982L12.7712 8.07981Z" fill="#F0F8FF"/>
</svg>
