<svg width="25" height="21" viewBox="0 0 25 21" fill="none" xmlns="http://www.w3.org/2000/svg">
<path d="M18.6723 6.41838C18.2337 6.16912 17.6697 6.16912 17.1684 6.41838L13.6593 8.47476L11.2781 9.78337L7.83159 11.8397C7.39295 12.089 6.82898 12.089 6.32768 11.8397L3.63316 10.2196C3.19452 9.97031 2.8812 9.4718 2.8812 8.91096V5.79524C2.8812 5.29672 3.13185 4.7982 3.63316 4.48663L6.32768 2.92877C6.76632 2.67951 7.33029 2.67951 7.83159 2.92877L10.5261 4.54895C10.9648 4.7982 11.2781 5.29672 11.2781 5.85755V7.91393L13.6593 6.54301V4.42432C13.6593 3.9258 13.4086 3.42728 12.9073 3.11571L7.89426 0.186928C7.45561 -0.0623298 6.89164 -0.0623298 6.39034 0.186928L1.25196 3.17803C0.750653 3.42728 0.5 3.9258 0.5 4.42432V10.2819C0.5 10.7804 0.750653 11.2789 1.25196 11.5905L6.32768 14.5193C6.76632 14.7685 7.33029 14.7685 7.83159 14.5193L11.2781 12.5252L13.6593 11.1543L17.1057 9.16022C17.5444 8.91096 18.1084 8.91096 18.6097 9.16022L21.3042 10.7181C21.7428 10.9673 22.0561 11.4659 22.0561 12.0267V15.1424C22.0561 15.6409 21.8055 16.1395 21.3042 16.451L18.6723 18.0089C18.2337 18.2581 17.6697 18.2581 17.1684 18.0089L14.4739 16.451C14.0352 16.2018 13.7219 15.7032 13.7219 15.1424V13.1484L11.3407 14.5193V16.5757C11.3407 17.0742 11.5914 17.5727 12.0927 17.8843L17.1684 20.813C17.607 21.0623 18.171 21.0623 18.6723 20.813L23.748 17.8843C24.1867 17.635 24.5 17.1365 24.5 16.5757V10.6558C24.5 10.1573 24.2493 9.65874 23.748 9.34717L18.6723 6.41838Z" fill="#F0F8FF"/>
</svg>
