<svg width="47" height="47" viewBox="0 0 47 47" fill="none" xmlns="http://www.w3.org/2000/svg">
<circle cx="23.5" cy="23.5" r="22.5" fill="#194D54" fill-opacity="0.5" stroke="#F0F8FF" stroke-width="2"/>
<path fill-rule="evenodd" clip-rule="evenodd" d="M22 16C22 16.5523 22.4477 17 23 17C23.5523 17 24 16.5523 24 16V15.0619C27.6187 15.5131 30.4869 18.3813 30.9381 22H30C29.4477 22 29 22.4477 29 23C29 23.5523 29.4477 24 30 24H30.9381C30.4869 27.6187 27.6187 30.4869 24 30.9381V30C24 29.4477 23.5523 29 23 29C22.4477 29 22 29.4477 22 30V30.9381C18.3813 30.4869 15.5131 27.6187 15.0619 24H16C16.5523 24 17 23.5523 17 23C17 22.4477 16.5523 22 16 22H15.0619C15.5131 18.3813 18.3813 15.5131 22 15.0619V16ZM32.9506 24C32.4816 28.7244 28.7244 32.4816 24 32.9506V34C24 34.5523 23.5523 35 23 35C22.4477 35 22 34.5523 22 34V32.9506C17.2756 32.4816 13.5184 28.7244 13.0494 24H12C11.4477 24 11 23.5523 11 23C11 22.4477 11.4477 22 12 22H13.0494C13.5184 17.2756 17.2756 13.5184 22 13.0494V12C22 11.4477 22.4477 11 23 11C23.5523 11 24 11.4477 24 12V13.0494C28.7244 13.5184 32.4816 17.2756 32.9506 22H34C34.5523 22 35 22.4477 35 23C35 23.5523 34.5523 24 34 24H32.9506ZM25 23C25 24.1046 24.1046 25 23 25C21.8954 25 21 24.1046 21 23C21 21.8954 21.8954 21 23 21C24.1046 21 25 21.8954 25 23ZM27 23C27 25.2091 25.2091 27 23 27C20.7909 27 19 25.2091 19 23C19 20.7909 20.7909 19 23 19C25.2091 19 27 20.7909 27 23Z" fill="#F0F8FF"/>
</svg>
