<svg width="15" height="18" viewBox="0 0 15 18" fill="none" xmlns="http://www.w3.org/2000/svg">
<path d="M10.2509 10.4674L8.76668 12.1627L9.28165 12.7506H8.2517H5.75748H5.71812L7.49988 10.7165L8.98415 9.02124L12.2883 5.24926L14.01 3.28422H11.0408H10.986H9.38426V0.196289H8.08972V3.28422H6.97523V0.196289H5.68069V3.28422H3.95893H0.989746L2.7115 5.24926L4.74108 7.56601L6.22535 5.87136L5.68069 5.24926H6.77001H9.26423H9.31908L7.49988 7.32659L6.01561 9.02124L2.74893 12.7506L1.02782 14.7157H3.997H4.03573H5.68069V17.8036H6.97523V14.7157H8.08972V17.8036H9.38426V14.7157H11.0028H13.9719L12.2508 12.7506L10.2509 10.4674Z" fill="#F0F8FF"/>
</svg>
