<svg width="25" height="24" viewBox="0 0 25 24" fill="none" xmlns="http://www.w3.org/2000/svg">
<path d="M12.8 24C19.4275 24 24.8 18.6274 24.8 12C24.8 5.37258 19.4275 0 12.8 0C6.17263 0 0.800049 5.37258 0.800049 12C0.800049 18.6274 6.17263 24 12.8 24Z" fill="#27B18A"/>
<path d="M12.8001 22.8598C18.7977 22.8598 23.6598 17.9977 23.6598 12.0001C23.6598 6.00243 18.7977 1.14038 12.8001 1.14038C6.80242 1.14038 1.94037 6.00243 1.94037 12.0001C1.94037 17.9977 6.80242 22.8598 12.8001 22.8598Z" fill="#18191C"/>
<path d="M15.5511 13.4674L14.0668 15.1627L14.5818 15.7506H13.5519H11.0577H11.0183L12.8001 13.7165L14.2843 12.0212L17.5884 8.24926L19.3102 6.28422H16.341H16.2862H14.6844V3.19629H13.3899V6.28422H12.2754V3.19629H10.9809V6.28422H9.2591H6.28992L8.01167 8.24926L10.0412 10.566L11.5255 8.87136L10.9809 8.24926H12.0702H14.5644H14.6193L12.8001 10.3266L11.3158 12.0212L8.0491 15.7506L6.32799 17.7157H9.29718H9.3359H10.9809V20.8036H12.2754V17.7157H13.3899V20.8036H14.6844V17.7157H16.3029H19.2721L17.551 15.7506L15.5511 13.4674Z" fill="#27B18A"/>
</svg>
