<svg height="24" viewBox="0 0 24 24" width="24" xmlns="http://www.w3.org/2000/svg"><g fill="none" fill-rule="evenodd"><path d="m0 0h24v24h-24z"/><path d="m11 9h2v-2h-2zm1 11c-4.41 0-8-3.59-8-8s3.59-8 8-8 8 3.59 8 8-3.59 8-8 8zm0-18c-5.5228475 0-10 4.4771525-10 10 0 2.6521649 1.0535684 5.195704 2.92893219 7.0710678 1.87536378 1.8753638 4.41890291 2.9289322 7.07106781 2.9289322s5.195704-1.0535684 7.0710678-2.9289322 2.9289322-4.4189029 2.9289322-7.0710678-1.0535684-5.19570403-2.9289322-7.07106781c-1.8753638-1.87536379-4.4189029-2.92893219-7.0710678-2.92893219zm-1 15h2v-6h-2z" fill="#f0f8ff" fill-rule="nonzero"/></g></svg>